# 3ds Max Wavefront OBJ Exporter v0.97b - (c)2007 guruware
# File Created: 20.05.2016 21:20:22

mtllib Forest_A_FirTree_22.mtl

#
# object Forest_A_FirTree_22
#

v  -4.2850 281.5393 -1.5372
v  47.7202 150.6803 -6.4889
v  45.0307 155.7316 -26.5644
v  26.4489 150.7236 -40.2591
v  15.6007 154.6158 -36.7562
v  5.2031 154.5985 -49.5493
v  -9.4247 153.5347 -49.5827
v  -18.4525 160.1083 -39.8457
v  -32.2887 158.1881 -41.3580
v  -48.7395 156.6744 -13.2394
v  -47.8648 153.7509 7.4228
v  -34.3115 163.2048 11.1326
v  -41.0844 152.5486 31.4312
v  -29.0858 150.6889 40.9053
v  -13.5750 161.2155 37.2981
v  -4.6906 153.5347 47.5996
v  9.2966 150.5506 48.2222
v  28.4205 161.4922 45.7647
v  42.6169 154.9618 33.4914
v  49.6673 155.4635 13.1034
v  36.0779 162.8848 3.4671
v  -0.7183 166.0765 -3.0964
v  -3.9452 227.1682 -1.5864
v  60.3812 86.3882 12.2810
v  57.3126 88.6890 -17.3113
v  35.7020 91.1887 -15.6134
v  42.0262 81.3715 -27.5383
v  20.2001 75.6801 -49.0175
v  -1.1681 84.9957 -40.6964
v  -8.6202 70.4385 -52.5028
v  -26.6822 78.6642 -46.9756
v  -27.5271 95.6519 -32.6370
v  -43.3623 79.0448 -32.9684
v  -50.3266 73.8204 -22.3836
v  -47.1880 73.1631 -6.4421
v  -59.7518 71.4851 2.6630
v  -56.6291 71.8483 24.3336
v  -42.7364 73.1371 29.3063
v  -43.0494 66.3472 40.2394
v  -32.2838 70.8883 48.5743
v  -18.1140 84.2950 44.6428
v  -14.5065 74.2789 59.6556
v  14.8815 71.3899 57.1594
v  20.0956 86.6218 39.3313
v  39.7250 68.0079 41.7417
v  50.1226 66.0013 32.1202
v  43.7187 79.1659 17.3205
v  -8.9426 97.4164 4.0448
v  2.1418 0.0001 -8.1377
v  -0.7000 105.4026 -4.0304
v  2.6483 104.5896 0.8332
v  8.5481 0.0000 0.9223
v  -8.5169 0.0001 -4.7185
v  -6.5780 105.3507 -2.2901
v  -8.6512 0.0000 6.5558
v  -6.6861 104.4771 3.9805
v  1.9480 0.0000 9.9974
v  -0.8240 104.0274 5.7522
# 58 vertices

vn 0.9284 0.0312 0.3702
vn 0.4922 0.7964 0.3514
vn -0.2242 0.9475 0.2278
vn 0.7438 0.6049 0.2844
vn -0.0235 0.9357 0.3521
vn -0.5868 0.7500 0.3051
vn 0.0635 0.9538 0.2935
vn -0.8209 0.4622 0.3356
vn -0.9411 -0.0861 0.3270
vn -0.3825 -0.9034 0.1938
vn -0.9541 0.2027 0.2204
vn -0.5464 -0.7607 0.3503
vn 0.0136 -0.9519 0.3062
vn -0.6100 -0.7391 0.2856
vn 0.0349 -0.9330 0.3581
vn -0.0784 -0.9346 0.3469
vn 0.6964 -0.5825 0.4192
vn 0.8613 -0.3078 0.4043
vn 0.6334 0.7517 0.1838
vn 0.7788 -0.5571 0.2884
vn -0.3095 0.1928 -0.9312
vn -0.0211 -0.3685 -0.9294
vn -0.2780 -0.1861 -0.9424
vn -0.2476 -0.2025 -0.9474
vn 0.0697 -0.2477 -0.9663
vn -0.3258 -0.3027 -0.8957
vn 0.1261 -0.0994 -0.9870
vn 0.1811 -0.0531 -0.9820
vn 0.2197 0.1458 -0.9646
vn 0.3250 -0.6239 -0.7107
vn -0.1367 0.4958 -0.8576
vn 0.0767 0.2847 -0.9555
vn 0.5729 -0.0842 -0.8153
vn -0.4534 0.2474 -0.8563
vn -0.1914 0.2498 -0.9492
vn 0.4344 0.3374 -0.8351
vn -0.3342 -0.1115 -0.9359
vn -0.1788 0.0860 -0.9801
vn 0.0511 0.6536 -0.7551
vn -0.1819 -0.6698 -0.7199
vn 0.9101 0.0625 0.4097
vn -0.0686 0.9942 0.0826
vn 0.9254 -0.2936 0.2395
vn 0.6198 0.7153 0.3228
vn -0.2538 0.9339 0.2519
vn 0.6953 0.6894 0.2032
vn -0.1465 0.9395 0.3096
vn -0.9076 0.3419 0.2435
vn -0.2592 0.9285 0.2657
vn -0.8568 0.4085 0.3146
vn -0.9455 -0.1968 0.2593
vn -0.5926 0.7825 0.1911
vn -0.9324 -0.1287 0.3377
vn -0.3466 -0.8990 0.2676
vn -0.9533 -0.1391 0.2680
vn -0.6611 -0.6712 0.3353
vn -0.0301 -0.9501 0.3104
vn -0.9115 -0.3562 0.2057
vn 0.1142 -0.9249 0.3626
vn 0.8284 -0.4836 0.2825
vn 0.1715 -0.9376 0.3023
vn 0.6700 -0.6489 0.3605
vn 0.9458 0.1560 0.2847
vn 0.2080 -0.9596 0.1896
vn -0.1497 0.0612 -0.9868
vn -0.1096 -0.0653 -0.9918
vn 0.2037 -0.6844 -0.7001
vn -0.0867 -0.3365 -0.9377
vn -0.3250 -0.2001 -0.9243
vn 0.7301 -0.2976 -0.6151
vn -0.2696 -0.4134 -0.8697
vn -0.8087 -0.4291 -0.4024
vn 0.6893 0.3179 -0.6509
vn 0.5277 0.0706 -0.8465
vn 0.5578 0.1435 -0.8175
vn 0.4059 -0.4095 -0.8171
vn 0.4551 0.0507 -0.8890
vn 0.2489 0.4771 -0.8429
vn 0.2162 0.5106 -0.8322
vn 0.5189 0.2201 -0.8260
vn 0.6721 0.0859 -0.7355
vn -0.5523 0.3667 -0.7486
vn -0.1229 0.3917 -0.9119
vn 0.3721 0.5376 -0.7566
vn -0.6673 -0.3476 -0.6587
vn -0.3755 0.2179 -0.9008
vn -0.1051 0.6352 -0.7652
vn 0.0047 0.8150 -0.5794
vn 0.8194 0.5714 0.0450
vn -0.2978 0.9542 0.0283
vn -0.9997 0.0129 0.0186
vn -0.3010 -0.9531 0.0300
vn 0.8099 -0.5848 0.0458
# 93 vertex normals

vt 0.9102 0.3933 0.0000
vt 0.8988 0.4264 0.0000
vt 0.8864 0.4177 0.0000
vt 0.8774 0.4045 0.0000
vt 0.8775 0.3967 0.0000
vt 0.8771 0.3875 0.0000
vt 0.8796 0.3790 0.0000
vt 0.8858 0.3733 0.0000
vt 0.8912 0.3666 0.0000
vt 0.9139 0.3608 0.0000
vt 0.9242 0.3630 0.0000
vt 0.9294 0.3701 0.0000
vt 0.9389 0.3749 0.0000
vt 0.9431 0.3829 0.0000
vt 0.9414 0.3922 0.0000
vt 0.9433 0.4006 0.0000
vt 0.9412 0.4091 0.0000
vt 0.9335 0.4164 0.0000
vt 0.9265 0.4236 0.0000
vt 0.9163 0.4268 0.0000
vt 0.9077 0.4241 0.0000
vt 0.6367 0.3978 0.0000
vt 0.6169 0.4026 0.0000
vt 0.6339 0.3903 0.0000
vt 0.6262 0.3856 0.0000
vt 0.6222 0.3879 0.0000
vt 0.6177 0.3833 0.0000
vt 0.6121 0.3836 0.0000
vt 0.6088 0.3882 0.0000
vt 0.6034 0.3877 0.0000
vt 0.5973 0.3985 0.0000
vt 0.5973 0.4066 0.0000
vt 0.6036 0.4087 0.0000
vt 0.6010 0.4177 0.0000
vt 0.6057 0.4214 0.0000
vt 0.6128 0.4192 0.0000
vt 0.6169 0.4236 0.0000
vt 0.6223 0.4238 0.0000
vt 0.6305 0.4210 0.0000
vt 0.6360 0.4157 0.0000
vt 0.6379 0.4076 0.0000
vt 0.6319 0.4037 0.0000
vt 0.9097 0.3917 0.0000
vt 0.8883 0.3600 0.0000
vt 0.9013 0.3553 0.0000
vt 0.9126 0.3570 0.0000
vt 0.9221 0.3557 0.0000
vt 0.9351 0.3614 0.0000
vt 0.9403 0.3723 0.0000
vt 0.9482 0.3782 0.0000
vt 0.9484 0.3895 0.0000
vt 0.9429 0.3979 0.0000
vt 0.9447 0.4082 0.0000
vt 0.9410 0.4168 0.0000
vt 0.9335 0.4235 0.0000
vt 0.9259 0.4295 0.0000
vt 0.9149 0.4326 0.0000
vt 0.9055 0.4317 0.0000
vt 0.8970 0.4323 0.0000
vt 0.8889 0.4276 0.0000
vt 0.8842 0.4190 0.0000
vt 0.8757 0.4145 0.0000
vt 0.8696 0.4026 0.0000
vt 0.8731 0.3923 0.0000
vt 0.8685 0.3818 0.0000
vt 0.8712 0.3725 0.0000
vt 0.8799 0.3671 0.0000
vt 0.6428 0.4166 0.0000
vt 0.6360 0.4260 0.0000
vt 0.6172 0.4046 0.0000
vt 0.6358 0.4115 0.0000
vt 0.6418 0.4092 0.0000
vt 0.6420 0.3970 0.0000
vt 0.6329 0.3939 0.0000
vt 0.6346 0.3862 0.0000
vt 0.6271 0.3837 0.0000
vt 0.6196 0.3881 0.0000
vt 0.6121 0.3834 0.0000
vt 0.6072 0.3849 0.0000
vt 0.6047 0.3906 0.0000
vt 0.5987 0.3908 0.0000
vt 0.5947 0.3982 0.0000
vt 0.5975 0.4031 0.0000
vt 0.5935 0.4059 0.0000
vt 0.5951 0.4110 0.0000
vt 0.6022 0.4140 0.0000
vt 0.5982 0.4201 0.0000
vt 0.6065 0.4281 0.0000
vt 0.6147 0.4234 0.0000
vt 0.6212 0.4319 0.0000
vt 0.6265 0.4323 0.0000
vt 0.6288 0.4246 0.0000
vt 0.2346 0.3047 0.0000
vt 0.2372 0.3459 0.0000
vt 0.2348 0.3457 0.0000
vt 0.2303 0.3051 0.0000
vt 0.2389 0.3046 0.0000
vt 0.2396 0.3458 0.0000
vt 0.2433 0.3047 0.0000
vt 0.2420 0.3455 0.0000
vt 0.2477 0.3049 0.0000
vt 0.2444 0.3454 0.0000
vt 0.2325 0.3458 0.0000
vt 0.2259 0.3057 0.0000
# 104 texture coords

g Forest_A_FirTree_22
usemtl ForestPack_Trees
s off
f 1/1/1 2/2/1 3/3/1 
f 1/1/2 3/3/2 4/4/2 
f 1/1/3 4/4/3 5/5/3 
f 1/1/4 5/5/4 6/6/4 
f 1/1/5 6/6/5 7/7/5 
f 1/1/6 7/7/6 8/8/6 
f 1/1/7 8/8/7 9/9/7 
f 1/1/8 9/9/8 10/10/8 
f 1/1/9 10/10/9 11/11/9 
f 1/1/10 11/11/10 12/12/10 
f 1/1/11 12/12/11 13/13/11 
f 1/1/12 13/13/12 14/14/12 
f 1/1/13 14/14/13 15/15/13 
f 1/1/14 15/15/14 16/16/14 
f 1/1/15 16/16/15 17/17/15 
f 1/1/16 17/17/16 18/18/16 
f 1/1/17 18/18/17 19/19/17 
f 1/1/18 19/19/18 20/20/18 
f 1/1/19 20/20/19 21/21/19 
f 1/1/20 21/21/20 2/2/20 
f 2/22/21 22/23/21 3/24/21 
f 3/24/22 22/23/22 4/25/22 
f 5/26/23 4/25/23 22/23/23 
f 6/27/24 5/26/24 22/23/24 
f 7/28/25 6/27/25 22/23/25 
f 8/29/26 7/28/26 22/23/26 
f 9/30/27 8/29/27 22/23/27 
f 9/30/28 22/23/28 10/31/28 
f 11/32/29 10/31/29 22/23/29 
f 12/33/30 11/32/30 22/23/30 
f 13/34/31 12/33/31 22/23/31 
f 14/35/32 13/34/32 22/23/32 
f 15/36/33 14/35/33 22/23/33 
f 16/37/34 15/36/34 22/23/34 
f 17/38/35 16/37/35 22/23/35 
f 18/39/36 17/38/36 22/23/36 
f 19/40/37 18/39/37 22/23/37 
f 20/41/38 19/40/38 22/23/38 
f 21/42/39 20/41/39 22/23/39 
f 2/22/40 21/42/40 22/23/40 
f 23/43/41 24/44/41 25/45/41 
f 23/43/42 25/45/42 26/46/42 
f 23/43/43 26/46/43 27/47/43 
f 23/43/44 27/47/44 28/48/44 
f 23/43/45 28/48/45 29/49/45 
f 23/43/46 29/49/46 30/50/46 
f 23/43/47 30/50/47 31/51/47 
f 23/43/48 31/51/48 32/52/48 
f 23/43/49 32/52/49 33/53/49 
f 23/43/50 33/53/50 34/54/50 
f 23/43/51 34/54/51 35/55/51 
f 23/43/52 35/55/52 36/56/52 
f 23/43/53 36/56/53 37/57/53 
f 23/43/54 37/57/54 38/58/54 
f 23/43/55 38/58/55 39/59/55 
f 23/43/56 39/59/56 40/60/56 
f 23/43/57 40/60/57 41/61/57 
f 23/43/58 41/61/58 42/62/58 
f 23/43/59 42/62/59 43/63/59 
f 23/43/60 43/63/60 44/64/60 
f 23/43/61 44/64/61 45/65/61 
f 23/43/62 45/65/62 46/66/62 
f 23/43/63 46/66/63 47/67/63 
f 23/43/64 47/67/64 24/44/64 
f 25/68/65 24/69/65 48/70/65 
f 26/71/66 25/68/66 48/70/66 
f 27/72/67 26/71/67 48/70/67 
f 28/73/68 27/72/68 48/70/68 
f 29/74/69 28/73/69 48/70/69 
f 30/75/70 29/74/70 48/70/70 
f 31/76/71 30/75/71 48/70/71 
f 32/77/72 31/76/72 48/70/72 
f 33/78/73 32/77/73 48/70/73 
f 34/79/74 33/78/74 48/70/74 
f 35/80/75 34/79/75 48/70/75 
f 36/81/76 35/80/76 48/70/76 
f 37/82/77 36/81/77 48/70/77 
f 38/83/78 37/82/78 48/70/78 
f 39/84/79 38/83/79 48/70/79 
f 40/85/80 39/84/80 48/70/80 
f 41/86/81 40/85/81 48/70/81 
f 42/87/82 41/86/82 48/70/82 
f 43/88/83 42/87/83 48/70/83 
f 44/89/84 43/88/84 48/70/84 
f 45/90/85 44/89/85 48/70/85 
f 46/91/86 45/90/86 48/70/86 
f 47/92/87 46/91/87 48/70/87 
f 24/69/88 47/92/88 48/70/88 
f 49/93/89 50/94/89 51/95/89 52/96/89 
f 53/97/90 54/98/90 50/94/90 49/93/90 
f 55/99/91 56/100/91 54/98/91 53/97/91 
f 57/101/92 58/102/92 56/100/92 55/99/92 
f 52/96/93 51/95/93 58/103/93 57/104/93 
# 5 polygons - 88 triangles

