# 3ds Max Wavefront OBJ Exporter v0.97b - (c)2007 guruware
# File Created: 20.05.2016 21:20:24

mtllib Forest_A_FirTree_10.mtl

#
# object Forest_A_FirTree_10
#

v  7.3691 158.5175 -0.3747
v  6.6297 114.5598 -0.0768
v  -0.2242 116.5217 -12.2370
v  2.8723 160.7507 -8.3225
v  -6.0611 160.9315 -6.4917
v  -6.1153 199.0849 -5.5759
v  2.3162 198.4610 -7.5307
v  -6.9324 158.9605 2.9651
v  -7.1445 197.1230 3.3579
v  1.5738 157.4688 6.5733
v  0.8452 195.1249 6.5012
v  -3.2750 113.5743 9.0038
v  4.7270 0.0002 -15.4612
v  3.2869 25.7763 -10.7028
v  12.6087 24.4834 3.7554
v  16.7801 0.0001 5.9695
v  -15.1437 0.0001 -7.9927
v  -12.9440 26.3459 -6.6641
v  -16.4534 0.0000 14.5097
v  -15.4487 25.3966 11.1633
v  1.3740 0.0000 24.2364
v  0.7222 24.4382 20.0919
v  -1.5866 64.1828 -11.5216
v  7.2955 62.5193 -1.1656
v  -14.0122 64.0472 -8.0431
v  -15.1375 62.5464 4.8689
v  -1.4403 61.5248 10.7851
v  -27.6341 260.1484 11.6662
v  -50.7877 243.9106 21.8342
v  -50.1305 244.4259 20.0276
v  -26.1417 261.1158 6.5664
v  -29.4193 262.3996 12.2704
v  -51.9385 245.6374 22.0658
v  -28.8060 263.1319 7.6133
v  -51.3625 245.9629 19.9104
v  1.0195 270.0755 -6.0704
v  1.1019 269.3160 -9.8624
v  -0.6387 274.0083 -6.3986
v  -1.3657 274.3971 -9.8881
v  36.3760 184.1942 -23.2594
v  58.2699 166.1844 -35.4323
v  56.6624 165.5424 -36.9345
v  31.5384 185.0893 -26.3066
v  34.2729 181.2830 -20.3549
v  57.7053 164.5660 -33.6772
v  29.9032 181.1383 -23.6355
v  55.9530 163.8337 -35.5792
v  -0.6639 209.9703 -0.0800
v  -5.1016 210.2054 -5.3056
v  0.4932 202.4210 0.2245
v  -3.0522 200.9564 -6.2800
v  -21.8110 210.1512 29.5146
v  -36.8480 194.5101 51.6841
v  -38.7440 194.5372 50.8905
v  -24.0967 210.2777 27.6754
v  -22.1062 212.2758 30.4913
v  -37.1141 196.1827 52.4639
v  -25.1981 212.1673 29.4781
v  -39.3597 195.9928 51.6603
v  1.1278 228.2514 -3.1199
v  -3.3322 227.8446 -5.7755
v  0.4418 232.3018 -1.6347
v  -3.9764 232.8895 -3.4096
v  17.8025 256.1341 14.9009
v  40.0628 235.5295 41.4503
v  38.0196 235.7013 43.0795
v  15.0380 256.2788 16.4908
v  18.6457 258.6114 15.2191
v  40.4467 237.8440 41.4891
v  16.2004 258.8645 17.5086
v  38.4230 237.8983 43.5555
v  0.3672 262.0832 -8.3034
v  -3.5330 261.4684 -4.6988
v  1.4200 266.5856 -7.7265
v  -1.6073 267.3089 -4.1870
v  -39.7836 153.6805 -32.0049
v  -70.5942 134.3326 -63.1759
v  -66.8516 134.7485 -63.7570
v  -32.5450 153.6082 -33.4094
v  -39.5721 158.9063 -32.8153
v  -70.9128 136.3126 -63.5255
v  -33.8503 159.0781 -35.8231
v  -66.9067 136.8280 -64.6690
v  -3.5414 171.5638 0.3936
v  2.4468 168.8786 -5.0802
v  -3.9198 178.9323 -0.9628
v  1.0843 178.4802 -6.9606
v  -21.3155 144.7480 38.4912
v  -35.9753 127.2896 62.2233
v  -38.6836 127.3891 61.4965
v  -23.6609 147.4512 33.4262
v  -20.9311 149.3680 39.6574
v  -34.4883 128.9984 63.1898
v  -24.2182 151.6282 35.7764
v  -37.5426 129.0074 62.2787
v  1.4515 173.7156 -1.4763
v  -3.1685 173.1731 -3.8594
v  1.0560 178.1276 0.6543
v  -3.2992 178.7063 -0.7437
v  -36.5577 203.8586 -26.4434
v  -66.5738 176.4370 -51.2641
v  -64.8489 177.6846 -51.6816
v  -32.2469 204.9706 -29.5578
v  -39.0053 207.0139 -28.0694
v  -68.0897 177.8022 -52.3046
v  -34.4997 208.5057 -30.5758
v  -66.2292 179.1674 -52.6536
v  -3.6857 223.7580 -3.6709
v  0.2769 224.9876 -7.0652
v  -5.1016 227.4377 -4.1652
v  -2.6759 229.3002 -7.4983
v  3.3209 242.3284 -10.5964
v  -1.0598 293.7722 -9.9016
v  -0.6112 293.0941 -8.1686
v  5.6479 240.3574 -4.6601
v  -12.4007 116.4313 -8.3498
v  -4.5278 243.4856 -10.4813
v  -13.9140 114.5869 3.8936
v  -6.0977 242.1295 -2.4783
v  0.9231 239.8782 -0.6443
v  -2.3165 293.1031 -7.1358
v  8.0984 267.9689 -32.2473
v  13.5270 247.1201 -66.4808
v  11.0832 246.9122 -65.8020
v  3.0586 267.3179 -32.5948
v  8.6332 264.3253 -28.7121
v  13.2294 246.1889 -64.0791
v  3.4185 263.4031 -29.2798
v  10.5705 245.7369 -63.6751
v  -0.0841 275.4351 -5.3794
v  -4.0195 276.7049 -7.9541
v  0.0697 270.8356 -7.2083
v  -3.4988 270.6123 -10.3114
v  6.4602 195.9295 -0.1954
v  -4.0268 293.1483 -10.3298
v  -5.0712 294.1519 -7.6133
v  31.1781 161.3112 3.3320
v  72.3228 132.6600 23.3866
v  71.2624 133.2386 26.8051
v  29.7162 161.7000 7.2123
v  33.4537 164.5570 4.2484
v  73.5498 135.0017 24.2842
v  33.0078 164.6835 8.9491
v  72.7110 135.2729 27.8420
v  -3.7832 176.7172 -4.8578
v  -4.3456 175.8493 0.8903
v  -1.1336 181.8978 -3.5965
v  -0.4084 182.4583 2.0060
v  30.2840 215.9375 -9.0288
v  61.2588 193.6693 -7.5504
v  60.9721 193.9043 -5.2341
v  28.9238 216.4618 -5.9314
v  31.3301 218.4057 -8.7657
v  61.9560 195.4684 -7.3533
v  30.7774 218.7854 -5.3433
v  61.8162 195.5136 -4.6972
v  0.5765 232.8262 -8.6505
v  -0.2275 232.2024 -3.4097
v  1.8983 237.2292 -7.8488
v  1.9079 237.7807 -2.8504
# 160 vertices

vn 0.8691 0.4943 -0.0175
vn -0.2121 0.9770 0.0203
vn -0.9947 0.1032 -0.0017
vn -0.3803 -0.9248 -0.0086
vn 0.7157 -0.6980 -0.0238
vn 0.8548 0.5047 0.1210
vn -0.3000 0.9470 0.1150
vn -0.9940 0.0926 0.0579
vn -0.4738 -0.8704 0.1342
vn 0.7755 -0.6118 0.1560
vn 0.8083 0.5854 0.0638
vn -0.2541 0.9660 -0.0477
vn -0.9926 0.1190 -0.0222
vn -0.4288 -0.8862 0.1755
vn 0.7902 -0.5830 0.1891
vn 0.5735 -0.0026 -0.8192
vn 0.3577 -0.9313 0.0683
vn -0.5947 -0.0210 0.8037
vn 0.3281 -0.0360 -0.9439
vn 0.4624 -0.8592 0.2191
vn -0.2982 -0.1342 0.9450
vn -0.4608 0.8625 -0.2091
vn -0.3764 0.9098 -0.1747
vn -0.7617 0.3525 -0.5437
vn 0.3815 0.4971 0.7794
vn 0.6427 -0.6905 0.3319
vn -0.3046 -0.4973 -0.8124
vn 0.3963 0.3272 0.8578
vn 0.6020 -0.7770 0.1839
vn -0.3088 -0.3923 -0.8665
vn -0.5392 0.8330 -0.1240
vn 0.6647 0.4017 -0.6300
vn -0.5624 0.7658 -0.3119
vn 0.2442 0.4384 -0.8650
vn 0.8561 -0.5055 -0.1073
vn -0.2115 -0.4817 0.8504
vn 0.2538 0.3240 -0.9114
vn 0.8377 -0.5400 -0.0822
vn -0.1183 -0.4690 0.8753
vn -0.8629 0.4985 0.0825
vn -0.8398 0.5427 -0.0138
vn -0.3207 0.3943 -0.8612
vn 0.7090 0.6932 -0.1299
vn 0.3956 -0.3458 0.8508
vn -0.0751 0.1850 -0.9799
vn 0.7734 0.6203 -0.1306
vn 0.2945 -0.1177 0.9484
vn -0.7308 -0.6666 0.1468
vn 0.6533 -0.7309 -0.1974
vn -0.7442 -0.6670 0.0353
vn 0.1075 -0.4400 -0.8916
vn -0.7344 -0.6717 0.0972
vn -0.2365 0.4082 0.8817
vn 0.0420 -0.4403 -0.8968
vn -0.6946 -0.7105 0.1130
vn -0.2411 0.3157 0.9177
vn 0.6583 0.7466 -0.0962
vn 0.7078 0.6846 -0.1740
vn -0.2969 -0.8198 -0.4898
vn -0.1715 0.9362 -0.3067
vn 0.1394 0.5272 -0.8382
vn 0.9003 -0.2555 -0.3523
vn -0.1638 -0.5908 0.7900
vn 0.2377 0.4691 -0.8506
vn 0.9027 -0.4045 -0.1465
vn -0.0823 -0.5618 0.8231
vn -0.9051 0.3947 0.1581
vn -0.9254 0.2866 0.2481
vn -0.2677 -0.9237 -0.2740
vn 0.4930 -0.2959 -0.8182
vn -0.6031 -0.7954 -0.0596
vn -0.5071 0.3369 0.7933
vn 0.4076 -0.1974 -0.8916
vn -0.5505 -0.8331 -0.0527
vn -0.4880 0.0799 0.8692
vn 0.4950 0.8519 0.1708
vn 0.5340 0.8439 0.0520
vn 0.1510 0.8732 -0.4634
vn 0.8194 0.5732 -0.0034
vn 0.9460 0.3119 0.0882
vn -0.2868 0.9580 -0.0012
vn -0.1348 0.9872 -0.0852
vn -0.9946 0.1009 0.0258
vn -0.9887 0.1495 0.0112
vn -0.4111 -0.9113 0.0217
vn -0.2754 -0.9509 0.1410
vn 0.7471 -0.6643 0.0224
vn 0.6066 -0.7846 0.1284
vn -0.1197 0.5353 0.8361
vn 0.9884 -0.0658 0.1367
vn 0.1422 -0.4708 -0.8707
vn 0.1523 0.2663 0.9518
vn 0.9475 -0.2879 0.1387
vn -0.0092 -0.3179 -0.9481
vn -0.9578 0.2656 -0.1097
vn 0.0289 0.4173 -0.9083
vn -0.9806 0.1478 -0.1285
vn 0.8734 0.4865 0.0233
vn -0.2600 0.9614 0.0902
vn -0.9855 0.0822 0.1486
vn -0.4032 -0.9108 0.0887
vn 0.7660 -0.6427 0.0158
vn 0.8927 0.4489 -0.0402
vn 0.0294 0.9995 0.0095
vn -0.9715 0.2368 0.0030
vn -0.1956 -0.9752 0.1036
vn 0.7103 -0.6972 0.0966
vn 0.2568 -0.3359 0.9062
vn -0.5416 0.0762 -0.8371
vn 0.4479 0.8940 0.0095
vn 0.5775 -0.0506 0.8149
vn -0.3686 0.1234 -0.9214
vn 0.2651 0.9597 0.0931
vn 0.4699 0.0714 0.8798
vn -0.2399 -0.9650 -0.1061
vn -0.4596 -0.8864 -0.0558
vn 0.7597 -0.2784 -0.5876
vn -0.5771 0.0613 -0.8144
vn 0.0963 0.9930 0.0677
vn 0.5994 -0.0123 0.8004
vn -0.4855 0.1363 -0.8636
vn 0.0587 0.9894 0.1331
vn 0.5409 0.0579 0.8391
vn -0.0004 -0.9896 -0.1435
vn 0.8981 -0.1012 -0.4279
vn -0.1488 -0.9730 -0.1763
vn -0.1355 0.3888 0.9113
# 127 vertex normals

vt 0.1963 0.2567 0.0000
vt 0.1954 0.2425 0.0000
vt 0.1998 0.2430 0.0000
vt 0.1994 0.2573 0.0000
vt 0.2025 0.2573 0.0000
vt 0.2026 0.2704 0.0000
vt 0.1996 0.2702 0.0000
vt 0.2057 0.2568 0.0000
vt 0.2056 0.2696 0.0000
vt 0.1903 0.2571 0.0000
vt 0.1933 0.2565 0.0000
vt 0.1938 0.2690 0.0000
vt 0.1909 0.2699 0.0000
vt 0.1911 0.2423 0.0000
vt 0.2005 0.2052 0.0000
vt 0.1998 0.2135 0.0000
vt 0.1942 0.2129 0.0000
vt 0.1931 0.2052 0.0000
vt 0.2068 0.2064 0.0000
vt 0.2052 0.2145 0.0000
vt 0.2135 0.2078 0.0000
vt 0.2108 0.2150 0.0000
vt 0.1860 0.2062 0.0000
vt 0.1878 0.2135 0.0000
vt 0.1827 0.2157 0.0000
vt 0.1802 0.2083 0.0000
vt 0.1998 0.2263 0.0000
vt 0.1954 0.2255 0.0000
vt 0.2040 0.2264 0.0000
vt 0.2080 0.2261 0.0000
vt 0.1904 0.2254 0.0000
vt 0.1858 0.2267 0.0000
vt 0.2128 0.2716 0.0000
vt 0.2116 0.2813 0.0000
vt 0.2112 0.2808 0.0000
vt 0.2117 0.2703 0.0000
vt 0.2095 0.2718 0.0000
vt 0.2100 0.2813 0.0000
vt 0.2094 0.2813 0.0000
vt 0.2085 0.2716 0.0000
vt 0.2107 0.2708 0.0000
vt 0.2106 0.2808 0.0000
vt 0.2135 0.2602 0.0000
vt 0.2124 0.2595 0.0000
vt 0.2095 0.2601 0.0000
vt 0.2081 0.2601 0.0000
vt 0.2106 0.2597 0.0000
vt 0.2110 0.2813 0.0000
vt 0.2105 0.2817 0.0000
vt 0.0298 0.0578 0.0000
vt 0.0301 0.0478 0.0000
vt 0.0308 0.0479 0.0000
vt 0.0314 0.0587 0.0000
vt 0.0283 0.0582 0.0000
vt 0.0293 0.0479 0.0000
vt 0.0266 0.0586 0.0000
vt 0.0284 0.0478 0.0000
vt 0.0294 0.0743 0.0000
vt 0.0316 0.0746 0.0000
vt 0.0274 0.0728 0.0000
vt 0.0250 0.0723 0.0000
vt 0.0330 0.0587 0.0000
vt 0.0338 0.0724 0.0000
vt 0.0309 0.0472 0.0000
vt 0.0301 0.0470 0.0000
vt 0.0316 0.0479 0.0000
vt 0.0479 0.1774 0.0000
vt 0.0471 0.1673 0.0000
vt 0.0477 0.1671 0.0000
vt 0.0489 0.1774 0.0000
vt 0.0472 0.1775 0.0000
vt 0.0465 0.1674 0.0000
vt 0.0461 0.1773 0.0000
vt 0.0457 0.1673 0.0000
vt 0.0495 0.1916 0.0000
vt 0.0511 0.1912 0.0000
vt 0.0481 0.1918 0.0000
vt 0.0465 0.1916 0.0000
vt 0.0447 0.1916 0.0000
vt 0.0453 0.1776 0.0000
vt 0.0452 0.1673 0.0000
vt 0.0162 0.0910 0.0000
vt 0.0150 0.0779 0.0000
vt 0.0159 0.0779 0.0000
vt 0.0172 0.0911 0.0000
vt 0.0154 0.0912 0.0000
vt 0.0143 0.0783 0.0000
vt 0.0143 0.0912 0.0000
vt 0.0134 0.0783 0.0000
vt 0.0175 0.1007 0.0000
vt 0.0192 0.1002 0.0000
vt 0.0160 0.1008 0.0000
vt 0.0145 0.1007 0.0000
vt 0.0125 0.1007 0.0000
vt 0.0133 0.0914 0.0000
vt 0.0134 0.0775 0.0000
vt 0.0143 0.0775 0.0000
vt 0.0127 0.0781 0.0000
vt 0.0861 0.2052 0.0000
vt 0.0857 0.2208 0.0000
vt 0.0847 0.2200 0.0000
vt 0.0841 0.2039 0.0000
vt 0.0877 0.2048 0.0000
vt 0.0863 0.2207 0.0000
vt 0.0898 0.2043 0.0000
vt 0.0876 0.2201 0.0000
vt 0.0866 0.1884 0.0000
vt 0.0838 0.1884 0.0000
vt 0.0890 0.1880 0.0000
vt 0.0916 0.1884 0.0000
vt 0.0946 0.1893 0.0000
vt 0.0917 0.2045 0.0000
vt 0.0883 0.2203 0.0000
vt 0.0459 0.1667 0.0000
vt 0.0466 0.1668 0.0000
vt 0.0878 0.2208 0.0000
vt 0.0866 0.2213 0.0000
vt 0.0556 0.1539 0.0000
vt 0.0545 0.1646 0.0000
vt 0.0536 0.1647 0.0000
vt 0.0542 0.1525 0.0000
vt 0.0511 0.1533 0.0000
vt 0.0519 0.1643 0.0000
vt 0.0512 0.1647 0.0000
vt 0.0497 0.1540 0.0000
vt 0.0526 0.1524 0.0000
vt 0.0530 0.1644 0.0000
vt 0.0558 0.1362 0.0000
vt 0.0541 0.1363 0.0000
vt 0.0505 0.1360 0.0000
vt 0.0490 0.1363 0.0000
vt 0.0520 0.1361 0.0000
vt 0.0534 0.1650 0.0000
vt 0.0524 0.1650 0.0000
vt 0.1166 0.3133 0.0000
vt 0.1164 0.2977 0.0000
vt 0.1169 0.2983 0.0000
vt 0.1182 0.3139 0.0000
vt 0.1152 0.3130 0.0000
vt 0.1157 0.2975 0.0000
vt 0.1137 0.3137 0.0000
vt 0.1152 0.2981 0.0000
vt 0.1163 0.3278 0.0000
vt 0.1179 0.3284 0.0000
vt 0.1150 0.3279 0.0000
vt 0.1135 0.3282 0.0000
vt 0.1118 0.3282 0.0000
vt 0.1123 0.3137 0.0000
vt 0.1145 0.2982 0.0000
vt 0.1146 0.2976 0.0000
vt 0.1151 0.2971 0.0000
vt 0.1991 0.2852 0.0000
vt 0.1990 0.3031 0.0000
vt 0.1984 0.3028 0.0000
vt 0.1970 0.2844 0.0000
vt 0.2038 0.2428 0.0000
vt 0.2018 0.2857 0.0000
vt 0.2077 0.2425 0.0000
vt 0.2046 0.2853 0.0000
vt 0.1874 0.2430 0.0000
vt 0.1949 0.2843 0.0000
vt 0.1926 0.2855 0.0000
vt 0.1977 0.3029 0.0000
vt 0.1150 0.3434 0.0000
vt 0.1147 0.3304 0.0000
vt 0.1155 0.3307 0.0000
vt 0.1166 0.3436 0.0000
vt 0.1135 0.3440 0.0000
vt 0.1140 0.3310 0.0000
vt 0.1118 0.3440 0.0000
vt 0.1131 0.3311 0.0000
vt 0.1149 0.3527 0.0000
vt 0.1165 0.3525 0.0000
vt 0.1135 0.3518 0.0000
vt 0.1120 0.3512 0.0000
vt 0.1182 0.3439 0.0000
vt 0.1182 0.3511 0.0000
vt 0.1161 0.3301 0.0000
vt 0.1152 0.3298 0.0000
vt 0.1163 0.3310 0.0000
vt 0.1967 0.2692 0.0000
vt 0.2001 0.3029 0.0000
vt 0.2012 0.3034 0.0000
vt 0.1968 0.3035 0.0000
vt 0.1980 0.3034 0.0000
vt 0.1982 0.3045 0.0000
vt 0.1870 0.2903 0.0000
vt 0.1863 0.2728 0.0000
vt 0.1874 0.2727 0.0000
vt 0.1883 0.2903 0.0000
vt 0.1857 0.2901 0.0000
vt 0.1853 0.2728 0.0000
vt 0.1842 0.2898 0.0000
vt 0.1842 0.2726 0.0000
vt 0.1877 0.3029 0.0000
vt 0.1896 0.3025 0.0000
vt 0.1858 0.3029 0.0000
vt 0.1840 0.3024 0.0000
vt 0.1815 0.3025 0.0000
vt 0.1827 0.2904 0.0000
vt 0.1833 0.2727 0.0000
vt 0.1850 0.2716 0.0000
vt 0.1859 0.2716 0.0000
vt 0.0376 0.1479 0.0000
vt 0.0362 0.1602 0.0000
vt 0.0355 0.1600 0.0000
vt 0.0367 0.1473 0.0000
vt 0.0346 0.1475 0.0000
vt 0.0340 0.1599 0.0000
vt 0.0334 0.1600 0.0000
vt 0.0337 0.1476 0.0000
vt 0.0357 0.1473 0.0000
vt 0.0349 0.1599 0.0000
vt 0.0398 0.1370 0.0000
vt 0.0381 0.1366 0.0000
vt 0.0346 0.1362 0.0000
vt 0.0331 0.1366 0.0000
vt 0.0362 0.1360 0.0000
vt 0.0347 0.1605 0.0000
vt 0.0340 0.1605 0.0000
vt 0.1992 0.3042 0.0000
# 221 texture coords

g Forest_A_FirTree_10
usemtl ForestPack_Trees
s off
f 1/1/1 2/2/1 3/3/1 4/4/1 
f 4/4/2 5/5/2 6/6/2 7/7/2 
f 5/5/3 8/8/3 9/9/3 6/6/3 
f 8/10/4 10/11/4 11/12/4 9/13/4 
f 10/11/5 12/14/5 2/2/5 1/1/5 
f 13/15/6 14/16/6 15/17/6 16/18/6 
f 17/19/7 18/20/7 14/16/7 13/15/7 
f 19/21/8 20/22/8 18/20/8 17/19/8 
f 21/23/9 22/24/9 20/25/9 19/26/9 
f 16/18/10 15/17/10 22/24/10 21/23/10 
f 14/16/11 23/27/11 24/28/11 15/17/11 
f 18/20/12 25/29/12 23/27/12 14/16/12 
f 20/22/13 26/30/13 25/29/13 18/20/13 
f 22/24/14 27/31/14 26/32/14 20/25/14 
f 15/17/15 24/28/15 27/31/15 22/24/15 
f 28/33/16 29/34/16 30/35/16 31/36/16 
f 32/37/17 33/38/17 29/39/17 28/40/17 
f 34/41/18 35/42/18 33/38/18 32/37/18 
f 36/43/19 28/33/19 31/36/19 37/44/19 
f 38/45/20 32/37/20 28/40/20 36/46/20 
f 39/47/21 34/41/21 32/37/21 38/45/21 
f 34/41/22 39/47/22 37/44/22 31/36/22 
f 35/42/23 34/41/23 31/36/23 30/35/23 
f 35/42/24 30/48/24 29/49/24 33/38/24 
f 40/50/25 41/51/25 42/52/25 43/53/25 
f 44/54/26 45/55/26 41/51/26 40/50/26 
f 46/56/27 47/57/27 45/55/27 44/54/27 
f 48/58/28 40/50/28 43/53/28 49/59/28 
f 50/60/29 44/54/29 40/50/29 48/58/29 
f 51/61/30 46/56/30 44/54/30 50/60/30 
f 46/62/31 51/63/31 49/59/31 43/53/31 
f 47/64/32 42/52/32 41/51/32 45/65/32 
f 47/66/33 46/62/33 43/53/33 42/52/33 
f 52/67/34 53/68/34 54/69/34 55/70/34 
f 56/71/35 57/72/35 53/68/35 52/67/35 
f 58/73/36 59/74/36 57/72/36 56/71/36 
f 60/75/37 52/67/37 55/70/37 61/76/37 
f 62/77/38 56/71/38 52/67/38 60/75/38 
f 63/78/39 58/73/39 56/71/39 62/77/39 
f 58/73/40 63/78/40 61/79/40 55/80/40 
f 59/74/41 58/73/41 55/80/41 54/81/41 
f 64/82/42 65/83/42 66/84/42 67/85/42 
f 68/86/43 69/87/43 65/83/43 64/82/43 
f 70/88/44 71/89/44 69/87/44 68/86/44 
f 72/90/45 64/82/45 67/85/45 73/91/45 
f 74/92/46 68/86/46 64/82/46 72/90/46 
f 75/93/47 70/88/47 68/86/47 74/92/47 
f 70/88/48 75/93/48 73/94/48 67/95/48 
f 71/89/49 66/96/49 65/97/49 69/87/49 
f 71/89/50 70/88/50 67/95/50 66/98/50 
f 76/99/51 77/100/51 78/101/51 79/102/51 
f 80/103/52 81/104/52 77/100/52 76/99/52 
f 82/105/53 83/106/53 81/104/53 80/103/53 
f 84/107/54 76/99/54 79/102/54 85/108/54 
f 86/109/55 80/103/55 76/99/55 84/107/55 
f 87/110/56 82/105/56 80/103/56 86/109/56 
f 82/105/57 87/110/57 85/111/57 79/112/57 
f 83/106/58 82/105/58 79/112/58 78/113/58 
f 59/74/59 54/114/59 53/115/59 57/72/59 
f 83/106/60 78/116/60 77/117/60 81/104/60 
f 88/118/61 89/119/61 90/120/61 91/121/61 
f 92/122/62 93/123/62 89/124/62 88/125/62 
f 94/126/63 95/127/63 93/123/63 92/122/63 
f 96/128/64 88/118/64 91/121/64 97/129/64 
f 98/130/65 92/122/65 88/125/65 96/131/65 
f 99/132/66 94/126/66 92/122/66 98/130/66 
f 94/126/67 99/132/67 97/129/67 91/121/67 
f 95/127/68 94/126/68 91/121/68 90/120/68 
f 95/127/69 90/133/69 89/134/69 93/123/69 
f 100/135/70 101/136/70 102/137/70 103/138/70 
f 104/139/71 105/140/71 101/136/71 100/135/71 
f 106/141/72 107/142/72 105/140/72 104/139/72 
f 108/143/73 100/135/73 103/138/73 109/144/73 
f 110/145/74 104/139/74 100/135/74 108/143/74 
f 111/146/75 106/141/75 104/139/75 110/145/75 
f 106/141/76 111/146/76 109/147/76 103/148/76 
f 107/142/77 106/141/77 103/148/77 102/149/77 
f 107/142/78 102/150/78 101/151/78 105/140/78 
f 2/2/79 24/28/79 23/27/79 3/3/79 
f 112/152/80 113/153/80 114/154/80 115/155/80 
f 23/27/81 25/29/81 116/156/81 3/3/81 
f 117/157/82 112/152/82 7/7/82 6/6/82 
f 25/29/83 26/30/83 118/158/83 116/156/83 
f 119/159/84 117/157/84 6/6/84 9/9/84 
f 26/32/85 27/31/85 12/14/85 118/160/85 
f 120/161/86 119/162/86 9/13/86 11/12/86 
f 12/14/87 27/31/87 24/28/87 2/2/87 
f 115/155/88 114/154/88 121/163/88 120/161/88 
f 122/164/89 123/165/89 124/166/89 125/167/89 
f 126/168/90 127/169/90 123/165/90 122/164/90 
f 128/170/91 129/171/91 127/169/91 126/168/91 
f 130/172/92 122/164/92 125/167/92 131/173/92 
f 132/174/93 126/168/93 122/164/93 130/172/93 
f 133/175/94 128/170/94 126/168/94 132/174/94 
f 128/176/95 133/177/95 131/173/95 125/167/95 
f 129/178/96 124/166/96 123/165/96 127/179/96 
f 129/180/97 128/176/97 125/167/97 124/166/97 
f 134/181/98 1/1/98 4/4/98 7/7/98 
f 3/3/99 116/156/99 5/5/99 4/4/99 
f 116/156/100 118/158/100 8/8/100 5/5/100 
f 118/160/101 12/14/101 10/11/101 8/10/101 
f 11/12/102 10/11/102 1/1/102 134/181/102 
f 7/7/103 112/152/103 115/155/103 134/181/103 
f 135/182/104 113/153/104 112/152/104 117/157/104 
f 136/183/105 135/182/105 117/157/105 119/159/105 
f 121/163/106 136/184/106 119/162/106 120/161/106 
f 134/181/107 115/155/107 120/161/107 11/12/107 
f 121/185/108 114/154/108 113/153/108 136/186/108 
f 137/187/109 138/188/109 139/189/109 140/190/109 
f 141/191/110 142/192/110 138/188/110 137/187/110 
f 143/193/111 144/194/111 142/192/111 141/191/111 
f 145/195/112 137/187/112 140/190/112 146/196/112 
f 147/197/113 141/191/113 137/187/113 145/195/113 
f 148/198/114 143/193/114 141/191/114 147/197/114 
f 143/193/115 148/198/115 146/199/115 140/200/115 
f 144/194/116 143/193/116 140/200/116 139/201/116 
f 144/202/117 139/203/117 138/188/117 142/192/117 
f 149/204/118 150/205/118 151/206/118 152/207/118 
f 153/208/119 154/209/119 150/210/119 149/211/119 
f 155/212/120 156/213/120 154/209/120 153/208/120 
f 157/214/121 149/204/121 152/207/121 158/215/121 
f 159/216/122 153/208/122 149/211/122 157/217/122 
f 160/218/123 155/212/123 153/208/123 159/216/123 
f 155/212/124 160/218/124 158/215/124 152/207/124 
f 156/213/125 151/219/125 150/220/125 154/209/125 
f 156/213/126 155/212/126 152/207/126 151/206/126 
f 113/153/127 135/221/127 136/186/127 
# 126 polygons - 1 triangles

