# 3ds Max Wavefront OBJ Exporter v0.97b - (c)2007 guruware
# File Created: 20.05.2016 21:20:17

mtllib Forest_C_Tree_03.mtl

#
# object Forest_C_Tree_03
#

v  0.2628 0.0000 16.5953
v  15.9998 0.0000 2.7316
v  6.3380 280.0026 2.6550
v  -1.7246 280.0026 6.5686
v  7.6776 0.0000 -16.5193
v  5.1075 280.0026 -6.2224
v  -13.2027 0.0000 -14.5533
v  -3.7157 276.1037 -7.7954
v  -17.7853 0.0000 5.9126
v  -7.9382 276.1037 0.1099
v  -3.7157 283.9016 -7.7954
v  -7.9382 283.9016 0.1099
v  3.4540 334.1377 -0.2621
v  -1.3421 334.1377 2.2784
v  2.5200 339.0399 -5.6085
v  -2.8534 339.0399 -6.3723
v  -5.2403 339.0399 -1.4979
v  -50.0673 325.1145 -22.5622
v  -48.8979 324.9816 -25.0575
v  -47.2484 327.5873 -24.4232
v  -48.4178 327.7202 -21.9280
v  -1.3488 342.1078 2.2374
v  3.3824 342.1078 -0.3136
v  -4.3595 428.8498 -2.8248
v  -0.6170 428.8498 -5.1377
v  -3.3162 428.8498 1.4492
v  1.0710 428.8498 1.7778
v  2.7392 428.8498 -2.2932
v  33.0290 384.0620 36.9981
v  31.1926 383.9583 38.1161
v  30.3937 385.9913 36.9923
v  32.2301 386.0950 35.8743
v  -81.0641 475.1955 -33.4272
v  -31.2695 514.7882 -31.7149
v  9.7472 497.4259 -41.3918
v  15.7419 490.4676 40.4086
v  15.3024 458.1834 58.3580
v  65.8735 439.9608 31.7602
v  -16.8015 507.5709 23.8682
v  -44.1560 429.3190 47.4796
v  34.1429 514.0652 4.6058
v  38.5155 497.7726 -22.2871
v  -2.8363 521.8818 -19.1603
v  51.2811 411.3236 -11.7229
v  62.6569 411.8974 12.4632
v  12.1578 435.6176 49.2761
v  -26.9682 427.9942 -38.8903
v  -76.7239 477.2231 12.7120
v  -76.6939 431.1927 1.9239
v  -9.6360 422.8970 1.3595
v  -9.3480 422.9194 1.4201
v  -9.4790 428.0712 1.7462
v  77.0728 441.6117 -13.9580
v  74.8182 449.0298 7.9627
v  80.7696 439.5900 -30.6402
v  3.9073 521.0906 11.1711
v  25.6119 442.0506 -54.8058
v  -0.8735 427.3144 24.0382
v  73.9830 442.4165 -51.3422
v  -54.6663 414.7482 -8.1013
v  -22.6491 423.8548 34.5280
v  43.4751 417.3513 -38.6332
v  11.4443 393.1656 34.7092
v  17.5449 389.9303 17.2120
v  17.4729 375.6690 23.3143
v  64.7722 385.3838 37.4363
v  49.3284 392.9965 67.1965
v  66.4207 370.1112 46.1113
v  54.2595 399.0592 23.3468
v  52.2052 401.4492 52.7801
v  54.5748 379.7248 16.4307
v  32.6689 378.8731 23.3329
v  55.1627 370.1081 59.1065
v  12.3292 385.5699 59.8079
v  14.8329 380.7508 42.0449
v  30.8688 403.9596 31.5463
v  20.2272 399.9192 50.1320
v  26.2371 379.7112 43.9708
v  29.9555 380.3166 55.3102
v  -80.2480 379.1138 -40.1578
v  -89.6793 365.5243 -64.0698
v  -105.2115 344.7196 -34.7339
v  -28.1117 313.2317 -53.4090
v  -17.9274 320.4845 -17.8060
v  -50.6111 323.0510 -26.2220
v  -39.8789 335.9593 -77.2659
v  -15.9220 346.0129 -31.3137
v  -64.9059 320.8899 -69.0935
v  -86.7126 312.6318 -39.1781
v  -89.8478 345.4881 -75.1324
v  -48.8214 335.6161 -0.7586
v  -74.9494 364.8437 5.3102
v  -50.0905 366.0871 -60.0560
v  -51.0887 379.0290 -22.2647
v  -18.7452 341.4655 -5.8838
v  -52.8947 369.9305 4.1713
v  -60.9460 327.3259 -84.2480
v  -68.2752 321.8267 4.5328
# 98 vertices

vn 0.5982 -0.8009 0.0269
vn 0.9465 0.3215 0.0265
vn -0.0173 0.9994 0.0309
vn -0.9545 0.2962 0.0339
vn -0.5801 -0.8139 0.0314
vn 0.1755 0.9845 -0.0000
vn -0.7206 -0.6933 -0.0000
vn 0.4475 -0.8916 0.0697
vn 0.9898 0.1351 0.0451
vn 0.1678 0.9856 0.0201
vn -0.8879 0.4592 0.0279
vn -0.6845 -0.7266 0.0585
vn -0.6377 0.3216 -0.7000
vn 0.3571 0.9340 0.0003
vn -0.4595 -0.8880 0.0187
vn 0.6141 -0.3091 0.7262
vn -0.6938 -0.7202 0.0031
vn 0.9862 0.1652 0.0078
vn -0.1675 0.9857 0.0177
vn -0.9894 0.1453 0.0076
vn -0.4401 -0.8979 -0.0018
vn 0.7191 -0.6949 0.0024
vn 0.8854 0.4646 0.0150
vn 0.3593 -0.6319 -0.6868
vn -0.7501 -0.6611 0.0166
vn 0.7853 0.6191 -0.0044
vn -0.3460 0.5990 0.7222
vn -0.1373 0.9670 0.2145
vn 0.5356 -0.7411 0.4048
vn -0.2641 -0.8940 0.3621
vn 0.4350 0.4138 0.7997
vn -0.3146 -0.1701 -0.9338
vn -0.0902 0.9958 0.0118
vn -0.8090 -0.5722 -0.1346
vn -0.2002 -0.9775 -0.0670
vn 0.9392 -0.1928 -0.2842
vn 0.7538 0.1004 -0.6493
vn -0.4317 -0.2258 0.8733
vn -0.6227 -0.0242 0.7821
vn 0.9298 -0.2447 -0.2749
vn -0.0059 -0.7244 0.6894
vn -0.3200 0.9377 0.1355
vn -0.2028 -0.2594 -0.9442
vn 0.2477 0.8606 0.4449
vn 0.3769 0.5806 0.7217
vn -0.9953 -0.0946 -0.0228
vn -0.5167 0.6855 -0.5129
vn -0.1905 -0.0959 -0.9770
vn 0.0123 -0.9270 -0.3748
vn 0.5351 0.3101 -0.7858
vn -0.1464 0.1756 -0.9735
vn -0.3521 -0.8549 0.3810
vn -0.4736 -0.2335 0.8492
vn 0.1329 0.6984 0.7033
vn -0.2770 -0.0865 0.9570
vn -0.0562 -0.3381 -0.9394
vn 0.0807 -0.4982 -0.8633
vn -0.3865 -0.4610 -0.7988
vn -0.6432 0.5645 -0.5174
vn 0.2214 0.0238 0.9749
vn 0.3029 -0.6281 0.7167
vn 0.2167 0.2139 -0.9525
vn -0.1956 0.0379 -0.9799
vn 0.2419 -0.1883 -0.9519
vn 0.1189 0.0795 -0.9897
vn 0.2548 -0.1276 -0.9585
vn 0.3053 -0.8138 -0.4945
vn 0.8345 0.1449 0.5316
vn 0.8117 -0.1104 0.5736
vn 0.6580 -0.5710 0.4910
vn 0.0652 0.8558 -0.5132
vn 0.7843 0.1759 0.5949
vn -0.3693 -0.8101 0.4554
vn -0.0860 0.8039 -0.5886
vn -0.9437 0.3057 -0.1261
vn 0.8745 -0.3751 0.3075
vn 0.7901 -0.0054 0.6129
vn -0.1995 0.7158 -0.6692
vn 0.7553 -0.6543 -0.0387
vn -0.9545 0.0550 -0.2930
vn -0.0617 -0.1781 0.9821
vn -0.2719 -0.7219 0.6364
vn -0.0537 0.2883 -0.9560
vn -0.1600 0.1388 -0.9773
vn 0.0731 0.9387 0.3370
vn -0.4993 0.3228 0.8040
vn 0.9052 0.4040 -0.1317
vn 0.8645 0.4686 0.1817
vn -0.1922 -0.1876 -0.9633
vn -0.0123 -0.7388 -0.6738
vn 0.0839 0.9160 -0.3924
vn -0.4954 0.0960 0.8634
vn -0.7944 -0.2014 0.5731
vn -0.0822 -0.4918 0.8668
vn 0.8698 -0.3670 0.3299
vn -0.3922 -0.1768 -0.9027
vn 0.1821 0.0669 0.9810
vn -0.0752 0.6609 0.7467
vn -0.2875 -0.8777 -0.3835
vn -0.1286 -0.2427 -0.9615
vn 0.2051 -0.1034 -0.9733
vn -0.2902 0.0516 -0.9556
vn -0.8102 0.0134 0.5860
vn -0.1361 -0.2350 -0.9624
vn 0.8884 0.4585 -0.0213
vn -0.5124 0.5545 -0.6557
vn -0.1835 -0.4453 -0.8764
vn -0.7572 -0.2743 0.5928
vn 0.6321 0.2360 0.7380
vn 0.1011 -0.9699 -0.2213
vn 0.2934 0.0497 -0.9547
vn 0.1024 -0.4344 -0.8949
vn 0.0753 0.8572 0.5095
vn 0.0390 0.5053 0.8621
vn -0.2562 -0.1337 -0.9573
vn 0.4535 0.7218 -0.5229
vn -0.7588 -0.6384 -0.1293
vn 0.1766 -0.9832 -0.0463
vn -0.7580 -0.4240 -0.4957
vn -0.8376 0.3269 -0.4376
vn 0.1949 0.3132 0.9295
vn -0.1979 -0.3144 0.9284
vn 0.6975 -0.2005 0.6880
vn 0.9524 0.2322 -0.1977
vn 0.5652 0.0654 -0.8224
vn 0.2485 -0.9684 0.0211
vn 0.7084 0.4821 0.5155
vn 0.0792 0.8538 0.5146
vn -0.9174 0.3451 0.1983
vn 0.0275 0.8752 0.4830
vn 0.2366 -0.8487 -0.4730
vn 0.9941 -0.1065 -0.0218
vn 0.6619 -0.2840 0.6937
vn -0.1865 -0.3083 0.9328
vn -0.5730 0.4427 -0.6897
vn -0.0224 0.3958 -0.9181
# 136 vertex normals

vt 0.5068 0.1304 0.0000
vt 0.5134 0.1305 0.0000
vt 0.5095 0.2189 0.0000
vt 0.5067 0.2188 0.0000
vt 0.4805 0.1328 0.0000
vt 0.4870 0.1318 0.0000
vt 0.4983 0.2195 0.0000
vt 0.4955 0.2200 0.0000
vt 0.4936 0.1310 0.0000
vt 0.5010 0.2179 0.0000
vt 0.5002 0.1306 0.0000
vt 0.5038 0.2177 0.0000
vt 0.5012 0.2204 0.0000
vt 0.5040 0.2201 0.0000
vt 0.5082 0.2358 0.0000
vt 0.5065 0.2357 0.0000
vt 0.5015 0.2377 0.0000
vt 0.4995 0.2364 0.0000
vt 0.5032 0.2375 0.0000
vt 0.5049 0.2373 0.0000
vt 0.5187 0.0857 0.0000
vt 0.5215 0.0853 0.0000
vt 0.5244 0.1066 0.0000
vt 0.5235 0.1068 0.0000
vt 0.5174 0.0877 0.0000
vt 0.5226 0.1072 0.0000
vt 0.5234 0.0868 0.0000
vt 0.5254 0.1067 0.0000
vt 0.5262 0.0865 0.0000
vt 0.5263 0.1066 0.0000
vt 0.5066 0.2381 0.0000
vt 0.5000 0.2389 0.0000
vt 0.5068 0.2654 0.0000
vt 0.5054 0.2655 0.0000
vt 0.5081 0.2652 0.0000
vt 0.5095 0.2651 0.0000
vt 0.5083 0.2380 0.0000
vt 0.5109 0.2650 0.0000
vt 0.5041 0.2657 0.0000
vt 0.5528 0.2942 0.0000
vt 0.5544 0.2947 0.0000
vt 0.5509 0.3161 0.0000
vt 0.5503 0.3159 0.0000
vt 0.5509 0.2957 0.0000
vt 0.5495 0.3160 0.0000
vt 0.5474 0.2942 0.0000
vt 0.5492 0.2959 0.0000
vt 0.5488 0.3160 0.0000
vt 0.5481 0.3159 0.0000
vt 0.5551 0.6239 0.0000
vt 0.5804 0.6343 0.0000
vt 0.5734 0.6489 0.0000
vt 0.5953 0.6625 0.0000
vt 0.6023 0.6700 0.0000
vt 0.5860 0.6825 0.0000
vt 0.5936 0.6501 0.0000
vt 0.6212 0.6554 0.0000
vt 0.5835 0.6579 0.0000
vt 0.5770 0.6589 0.0000
vt 0.5820 0.6444 0.0000
vt 0.5487 0.6753 0.0000
vt 0.5461 0.6827 0.0000
vt 0.5243 0.6686 0.0000
vt 0.5483 0.6468 0.0000
vt 0.6069 0.6363 0.0000
vt 0.6213 0.6334 0.0000
vt 0.5378 0.6563 0.0000
vt 0.5378 0.6567 0.0000
vt 0.5372 0.6569 0.0000
vt 0.5846 0.6923 0.0000
vt 0.5675 0.6825 0.0000
vt 0.5769 0.6812 0.0000
vt 0.5651 0.6800 0.0000
vt 0.5881 0.6512 0.0000
vt 0.6025 0.6226 0.0000
vt 0.5587 0.6610 0.0000
vt 0.5312 0.6616 0.0000
vt 0.5620 0.6756 0.0000
vt 0.5372 0.6408 0.0000
vt 0.5200 0.6487 0.0000
vt 0.5336 0.6332 0.0000
vt 0.5260 0.6546 0.0000
vt 0.6066 0.6752 0.0000
vt 0.5531 0.6694 0.0000
vt 0.9718 0.9190 0.0000
vt 0.9676 0.9245 0.0000
vt 0.9644 0.9218 0.0000
vt 0.9814 0.9365 0.0000
vt 0.9845 0.9267 0.0000
vt 0.9871 0.9382 0.0000
vt 0.9754 0.9338 0.0000
vt 0.9814 0.9287 0.0000
vt 0.9731 0.9385 0.0000
vt 0.9656 0.9301 0.0000
vt 0.9884 0.9323 0.0000
vt 0.9819 0.9153 0.0000
vt 0.9716 0.9152 0.0000
vt 0.9738 0.9258 0.0000
vt 0.9772 0.9197 0.0000
vt 0.9985 0.9250 0.0000
vt 0.9993 0.9339 0.0000
vt 0.9912 0.9163 0.0000
vt 0.9915 0.9208 0.0000
vt 0.9885 0.9218 0.0000
vt 0.9988 0.9185 0.0000
vt 0.3312 0.9562 0.0000
vt 0.3163 0.9619 0.0000
vt 0.3165 0.9514 0.0000
vt 0.3064 0.9228 0.0000
vt 0.3217 0.9187 0.0000
vt 0.3149 0.9300 0.0000
vt 0.3574 0.9361 0.0000
vt 0.3536 0.9465 0.0000
vt 0.3438 0.9323 0.0000
vt 0.3008 0.9389 0.0000
vt 0.3101 0.9429 0.0000
vt 0.3041 0.9564 0.0000
vt 0.3230 0.9286 0.0000
vt 0.3275 0.9418 0.0000
vt 0.3437 0.9495 0.0000
vt 0.3357 0.9434 0.0000
vt 0.3356 0.9245 0.0000
vt 0.3319 0.9389 0.0000
vt 0.3566 0.9520 0.0000
vt 0.3422 0.9623 0.0000
vt 0.3216 0.9344 0.0000
vt 0.3475 0.9244 0.0000
vt 0.3514 0.9618 0.0000
vt 0.3609 0.9520 0.0000
# 129 texture coords

g Forest_C_Tree_03
usemtl ForestPack_Trees
s off
f 1/1/1 2/2/1 3/3/1 4/4/1 
f 2/5/2 5/6/2 6/7/2 3/8/2 
f 5/6/3 7/9/3 8/10/3 6/7/3 
f 7/9/4 9/11/4 10/12/4 8/10/4 
f 9/11/5 1/1/5 4/4/5 10/12/5 
f 6/7/6 8/10/6 11/13/6 
f 10/12/7 4/4/7 12/14/7 
f 4/4/8 3/3/8 13/15/8 14/16/8 
f 3/8/9 6/7/9 15/17/9 13/18/9 
f 6/7/10 11/13/10 16/19/10 15/17/10 
f 11/13/11 12/14/11 17/20/11 16/19/11 
f 12/14/12 4/4/12 14/16/12 17/20/12 
f 8/21/13 10/22/13 18/23/13 19/24/13 
f 11/25/14 8/21/14 19/24/14 20/26/14 
f 10/22/15 12/27/15 21/28/15 18/23/15 
f 12/27/16 11/29/16 20/30/16 21/28/16 
f 17/20/17 14/16/17 22/31/17 
f 13/18/18 15/17/18 23/32/18 
f 15/17/19 16/19/19 24/33/19 25/34/19 
f 16/19/20 17/20/20 26/35/20 24/33/20 
f 17/20/21 22/31/21 27/36/21 26/35/21 
f 22/31/22 23/37/22 28/38/22 27/36/22 
f 23/32/23 15/17/23 25/34/23 28/39/23 
f 14/40/24 13/41/24 29/42/24 30/43/24 
f 22/44/25 14/40/25 30/43/25 31/45/25 
f 13/46/26 23/47/26 32/48/26 29/49/26 
f 23/47/27 22/44/27 31/45/27 32/48/27 
f 33/50/28 34/51/28 35/52/28 
f 36/53/29 37/54/29 38/55/29 
f 36/53/30 39/56/30 40/57/30 
f 41/58/31 42/59/31 43/60/31 
f 44/61/32 45/62/32 46/63/32 
f 47/64/33 33/50/33 35/52/33 
f 48/65/34 49/66/34 40/57/34 
f 50/67/35 51/68/35 52/69/35 
f 45/70/36 53/71/36 54/72/36 
f 44/61/37 55/73/37 53/71/37 45/62/37 
f 56/74/38 34/51/38 39/56/38 
f 34/51/39 33/75/39 48/65/39 
f 45/70/40 54/72/40 38/55/40 
f 56/74/41 39/56/41 36/53/41 
f 47/64/42 35/52/42 57/76/42 
f 51/68/43 44/61/43 58/77/43 52/69/43 
f 42/59/44 59/78/44 57/76/44 35/52/44 
f 43/60/45 42/59/45 35/52/45 
f 49/66/46 48/65/46 33/75/46 
f 47/64/47 60/79/47 33/50/47 
f 40/80/48 49/81/48 61/82/48 
f 40/57/49 46/83/49 37/54/49 
f 62/84/50 59/78/50 55/73/50 44/61/50 
f 47/64/51 62/84/51 44/61/51 
f 40/57/52 39/56/52 48/65/52 
f 34/51/53 48/65/53 39/56/53 
f 43/60/54 35/52/54 34/51/54 
f 56/74/55 43/60/55 34/51/55 
f 44/61/56 46/63/56 58/77/56 
f 40/80/57 61/82/57 46/63/57 
f 60/79/58 61/82/58 49/81/58 
f 33/50/59 60/79/59 49/81/59 
f 56/74/60 41/58/60 43/60/60 
f 56/74/61 36/53/61 41/58/61 
f 50/67/62 60/79/62 47/64/62 51/68/62 
f 51/68/63 47/64/63 44/61/63 
f 46/63/64 61/82/64 58/77/64 
f 58/77/65 61/82/65 52/69/65 
f 60/79/66 50/67/66 52/69/66 61/82/66 
f 45/70/67 38/55/67 37/54/67 46/83/67 
f 41/58/68 54/72/68 53/71/68 42/59/68 
f 55/73/69 42/59/69 53/71/69 
f 41/58/70 36/53/70 38/55/70 54/72/70 
f 59/78/71 62/84/71 57/76/71 
f 59/78/72 42/59/72 55/73/72 
f 37/54/73 36/53/73 40/57/73 
f 57/76/74 62/84/74 47/64/74 
f 63/85/75 64/86/75 65/87/75 
f 66/88/76 67/89/76 68/90/76 
f 66/88/77 69/91/77 70/92/77 
f 71/93/78 72/94/78 64/86/78 
f 73/95/79 68/90/79 67/89/79 
f 74/96/80 63/85/80 75/97/80 
f 76/98/81 77/99/81 70/92/81 
f 67/89/82 77/99/82 74/96/82 
f 68/90/83 72/100/83 71/101/83 
f 73/95/84 72/100/84 68/90/84 
f 71/93/85 64/86/85 69/91/85 
f 64/86/86 63/85/86 76/98/86 
f 68/90/87 71/93/87 66/88/87 
f 71/93/88 69/91/88 66/88/88 
f 75/102/89 78/103/89 79/104/89 74/96/89 
f 74/96/90 79/104/90 67/89/90 
f 64/86/91 72/94/91 65/87/91 
f 77/99/92 76/98/92 63/85/92 
f 74/96/93 77/99/93 63/85/93 
f 70/92/94 77/99/94 67/89/94 
f 66/88/95 70/92/95 67/89/95 
f 79/104/96 78/103/96 73/95/96 
f 70/92/97 69/91/97 76/98/97 
f 64/86/98 76/98/98 69/91/98 
f 79/104/99 73/95/99 67/89/99 
f 63/85/80 65/87/80 75/97/80 
f 75/102/100 65/105/100 78/103/100 
f 78/103/101 65/105/101 72/100/101 
f 78/103/102 72/100/102 73/95/102 
f 80/106/103 81/107/103 82/108/103 
f 83/109/104 84/110/104 85/111/104 
f 83/112/105 86/113/105 87/114/105 
f 88/115/106 89/116/106 90/117/106 
f 91/118/107 85/111/107 84/110/107 
f 92/119/108 80/106/108 82/108/108 
f 93/120/109 94/121/109 87/114/109 
f 95/122/110 96/123/110 92/119/110 
f 85/111/111 89/116/111 88/115/111 
f 91/118/112 89/116/112 85/111/112 
f 97/124/113 81/125/113 86/113/113 
f 81/125/114 80/106/114 93/120/114 
f 85/111/115 88/115/115 83/109/115 
f 97/124/116 86/113/116 83/112/116 
f 98/126/117 92/119/117 82/108/117 
f 92/119/118 91/118/118 95/122/118 
f 82/108/119 89/116/119 98/126/119 
f 90/117/120 89/116/120 82/108/120 
f 94/121/121 93/120/121 80/106/121 
f 92/119/122 96/123/122 80/106/122 
f 87/114/123 94/121/123 95/122/123 
f 83/112/124 87/114/124 84/127/124 
f 98/126/125 89/116/125 91/118/125 
f 92/119/126 98/126/126 91/118/126 
f 87/114/127 86/113/127 93/120/127 
f 81/125/128 93/120/128 86/113/128 
f 90/117/129 82/108/129 81/107/129 
f 97/124/130 90/128/130 81/125/130 
f 91/118/131 84/110/131 95/122/131 
f 87/114/132 95/122/132 84/127/132 
f 96/123/133 95/122/133 94/121/133 
f 80/106/134 96/123/134 94/121/134 
f 97/124/135 88/129/135 90/128/135 
f 97/124/136 83/112/136 88/129/136 
# 33 polygons - 104 triangles

