# 3ds Max Wavefront OBJ Exporter v0.97b - (c)2007 guruware
# File Created: 20.05.2016 21:20:15

mtllib Forest_C_Tree_16.mtl

#
# object Forest_C_Tree_16
#

v  -4.4524 0.0000 -15.2329
v  -21.0278 0.0000 -8.9857
v  -16.8813 16.6023 -6.9704
v  -0.2296 18.7379 -9.3344
v  -25.5280 0.0000 11.1119
v  -21.9621 16.6023 8.3362
v  -0.0863 0.0000 21.6023
v  3.5806 15.1627 21.3753
v  -8.9747 18.7379 17.8982
v  -13.5502 0.0000 22.7482
v  -2.8626 75.8095 -1.7666
v  -12.4375 72.3720 -3.4736
v  -12.4375 88.2728 -3.4736
v  -17.0197 72.3720 5.1052
v  -10.2768 75.8095 12.1141
v  -17.0197 88.2728 5.1052
v  -44.4477 109.6881 -8.1070
v  -43.4758 109.4561 -10.1809
v  -42.1048 114.0051 -9.6538
v  -43.0767 114.2371 -7.5799
v  -21.1424 215.7699 2.5109
v  -17.3686 215.7699 -6.6064
v  -13.6375 215.7699 8.9173
v  -1.5272 75.8095 7.8671
v  -3.6007 215.5060 4.9051
v  -5.9067 215.5060 -4.6891
v  -0.6690 48.9710 8.5312
v  10.2762 15.5439 -9.2009
v  17.0305 15.3533 6.0872
v  19.6761 0.0000 5.3430
v  11.3857 0.0000 -10.9163
v  29.7212 121.1410 16.6544
v  7.8114 33.5575 20.7331
v  20.0000 36.0662 7.2344
v  32.7449 121.4156 12.1487
v  24.1162 124.0347 7.2762
v  31.2208 120.1954 7.8103
v  11.5798 22.0574 -8.1421
v  22.6143 124.1437 14.2296
v  24.4967 126.4035 10.9610
v  18.8296 33.8241 23.2399
v  20.0317 42.2466 22.7433
v  24.3603 33.9024 16.9534
v  25.0437 43.2782 17.1926
v  31.4127 41.8056 29.4153
v  31.5173 46.5427 28.5383
v  34.1992 40.6129 23.1907
v  33.8657 46.1552 22.9353
v  58.8632 225.0956 -33.8315
v  17.0422 200.9755 -30.2124
v  -68.6056 227.5795 -63.2236
v  -83.2198 220.4863 63.2707
v  2.8671 318.5582 62.3995
v  -88.8638 264.2234 19.4720
v  -12.9741 202.3232 60.4602
v  60.4965 251.4737 60.7061
v  -117.8005 188.3550 17.1088
v  -118.1205 220.3253 -36.9927
v  -78.7186 168.9529 -9.5379
v  -28.9768 332.9444 3.8208
v  29.1169 301.2561 -50.5493
v  52.5168 212.5681 36.5121
v  89.8501 245.1427 -1.3433
v  25.5801 304.8406 34.4442
v  48.9290 300.5134 -14.9382
v  13.6309 319.4178 -4.4514
v  -86.6241 172.1595 26.9293
v  -16.7026 328.0577 -34.6808
v  4.8168 126.6601 54.2772
v  22.6254 105.5218 48.5421
v  103.6574 114.1832 43.9883
v  91.6876 112.4706 -48.9444
v  61.8289 188.7031 -65.4805
v  109.5596 146.4434 -21.4649
v  28.8990 107.3669 -34.4043
v  -15.6559 154.4663 -45.0054
v  120.9696 76.4468 -17.6358
v  134.9375 100.7035 18.9591
v  91.1591 64.0489 8.9471
v  103.6409 193.2384 -11.3299
v  27.7555 187.8210 63.3889
v  -7.8775 119.1936 -18.1211
v  -26.1696 149.5963 24.0129
v  11.1641 195.1558 -24.9891
v  2.8895 191.8787 29.8787
v  31.8866 203.6505 11.9901
v  91.3889 67.4862 -18.7949
v  101.9304 188.6049 30.6453
v  -15.6214 120.4601 -6.2437
v  -29.4867 104.7106 -6.8153
v  -70.4057 108.2521 -39.6757
v  -96.2864 103.8246 36.9762
v  -76.0255 159.5818 40.2382
v  -97.9845 130.2817 7.7530
v  -48.1352 103.2639 45.3094
v  -30.4682 138.2837 51.7138
v  -104.6719 78.2746 5.5815
v  -100.5052 97.7291 -28.9602
v  -75.1586 69.5442 -5.1892
v  -88.7143 164.8841 -0.6751
v  -28.3621 166.5986 -20.6038
v  -28.0690 112.7730 36.8818
v  -3.2530 136.4290 17.3318
v  -42.7523 169.4812 31.4672
v  -21.1715 168.4513 4.0805
v  -46.0683 177.0496 5.3539
v  -85.3982 71.2134 16.2614
v  -75.3564 162.5571 -22.7599
# 108 vertices

vn -0.2578 0.9280 0.2689
vn -0.9431 0.2552 0.2132
vn -0.0657 -0.9844 0.1634
vn 0.1755 0.9845 -0.0000
vn -0.7206 -0.6933 -0.0000
vn -0.6904 0.3461 -0.6352
vn 0.2181 0.9759 0.0105
vn -0.4304 -0.9026 0.0056
vn 0.5948 -0.2938 0.7483
vn -0.9035 0.4266 -0.0417
vn -0.6871 -0.7265 -0.0035
vn 0.4026 -0.9149 0.0280
vn 0.9824 0.1861 0.0141
vn 0.1594 0.9871 -0.0176
vn 0.5333 -0.8423 0.0785
vn 0.9951 0.0857 0.0485
vn -0.0458 0.9941 0.0982
vn -0.9241 0.3739 0.0787
vn -0.6544 -0.7518 0.0812
vn 0.8937 0.4254 0.1425
vn 0.7662 -0.6232 -0.1566
vn 0.0938 0.9860 0.1376
vn -0.2663 -0.9573 0.1122
vn -0.9550 0.0078 0.2964
vn -0.8627 0.4226 0.2778
vn 0.9206 0.3715 -0.1202
vn 0.6884 -0.7245 -0.0353
vn 0.1865 0.9625 0.1968
vn -0.6323 -0.7144 0.2998
vn -0.2421 -0.9661 0.0894
vn 0.9097 0.4004 -0.1103
vn 0.0578 0.9872 0.1489
vn -0.2230 -0.9710 0.0864
vn 0.6236 -0.5416 -0.5637
vn 0.9011 0.4243 -0.0898
vn -0.5146 0.3165 0.7969
vn -0.4968 -0.8567 0.1388
vn 0.3822 -0.3309 -0.8628
vn 0.5452 0.8382 -0.0137
vn -0.2683 0.1219 0.9556
vn 0.9185 -0.3903 0.0635
vn 0.1909 0.8667 -0.4610
vn -0.5960 -0.6046 0.5285
vn 0.0279 -0.9985 -0.0467
vn -0.6116 0.3998 -0.6827
vn -0.6024 -0.4835 0.6351
vn 0.2206 0.9672 -0.1262
vn 0.8000 -0.4220 -0.4265
vn 0.5031 -0.1635 0.8486
vn -0.9160 -0.2081 0.3429
vn -0.7614 0.1031 0.6400
vn 0.3279 -0.1225 -0.9367
vn 0.4894 0.1099 -0.8651
vn -0.8518 -0.4211 0.3118
vn -0.1209 -0.7974 -0.5912
vn -0.1293 0.9343 0.3322
vn 0.3356 -0.2384 0.9113
vn -0.4678 0.7568 0.4566
vn -0.2960 0.7293 -0.6168
vn 0.6036 0.0867 -0.7925
vn 0.8525 0.4695 0.2299
vn 0.7326 -0.2834 0.6188
vn 0.0196 -0.9998 -0.0084
vn -0.6905 0.3035 0.6566
vn 0.5187 -0.0571 0.8530
vn 0.3619 -0.7566 -0.5447
vn 0.1806 -0.0744 -0.9807
vn 0.0699 0.7297 -0.6802
vn 0.3434 -0.1559 -0.9262
vn 0.4767 0.0435 0.8780
vn 0.7298 -0.2889 0.6196
vn 0.7332 -0.2929 0.6137
vn 0.6096 0.7463 0.2673
vn -0.4558 0.0206 -0.8899
vn -0.4864 -0.7145 -0.5030
vn 0.4121 0.2108 0.8864
vn 0.2393 0.2853 0.9281
vn 0.0763 -0.9767 -0.2007
vn 0.7373 0.6597 0.1457
vn -0.1801 0.9093 -0.3750
vn 0.5752 -0.2880 -0.7657
vn 0.7614 0.6070 0.2278
vn 0.0799 -0.9811 -0.1761
vn -0.9293 0.1649 -0.3306
vn -0.3770 0.0015 0.9262
vn 0.8972 0.4240 0.1231
vn 0.9144 0.3560 0.1928
vn -0.5266 0.0587 -0.8481
vn -0.7233 -0.1951 -0.6623
vn 0.7783 0.6210 0.0929
vn -0.1457 0.8223 -0.5501
vn 0.3964 -0.9020 0.1709
vn 0.0575 0.2540 0.9655
vn 0.6560 -0.7401 0.1479
vn 0.3303 -0.7330 -0.5947
vn -0.6988 -0.1935 -0.6887
vn -0.7748 -0.5993 0.2013
vn -0.8128 0.0831 0.5766
vn -0.1372 0.9555 -0.2610
vn 0.9368 -0.0759 0.3417
vn 0.0386 -0.1112 0.9930
vn -0.4774 0.6449 -0.5968
vn -0.3240 0.0455 -0.9449
vn 0.1079 -0.8020 -0.5875
vn -0.5591 0.1065 -0.8222
vn 0.0371 0.1118 0.9930
vn -0.4437 0.6530 0.6137
vn -0.8151 0.0887 0.5725
vn -0.5593 -0.7817 0.2759
vn 0.2921 0.1152 -0.9494
vn 0.1975 0.8137 -0.5467
vn -0.2132 -0.2719 0.9384
vn 0.2327 -0.3033 0.9241
vn 0.5365 0.7162 -0.4463
vn -0.8937 -0.3285 0.3055
vn -0.1708 -0.9809 -0.0932
vn -0.4061 0.4851 -0.7744
vn -0.8935 -0.3182 0.3169
vn 0.5358 0.8368 -0.1125
vn 0.7449 -0.6048 -0.2816
vn 0.3284 -0.2242 0.9176
vn -0.9905 0.0466 0.1293
vn -0.9649 0.1340 0.2259
vn 0.5586 -0.1774 -0.8102
vn 0.7452 -0.0975 -0.6596
vn -0.9791 -0.1647 0.1190
vn -0.1471 -0.8120 -0.5649
vn 0.0181 0.9541 0.2989
vn -0.3007 -0.3005 0.9051
vn -0.3988 0.8852 0.2394
vn -0.0348 0.7483 -0.6624
vn 0.7221 -0.0861 -0.6864
vn 0.9425 0.2874 0.1708
vn 0.6562 -0.4884 0.5753
vn -0.2321 -0.9723 0.0275
vn -0.7837 0.5112 0.3529
vn -0.0778 0.1509 0.9855
vn 0.5088 -0.7642 -0.3964
vn 0.4728 -0.1450 -0.8692
vn 0.4566 0.6357 -0.6224
vn 0.5822 -0.3355 -0.7406
vn -0.2320 -0.1954 0.9529
vn 0.0523 -0.8282 0.5580
vn 0.6550 -0.4947 0.5712
vn 0.7982 0.5634 0.2135
vn -0.3073 0.0728 -0.9488
vn -0.5479 -0.6112 -0.5712
vn 0.3147 0.1619 0.9353
vn -0.1799 0.4705 0.8639
# 149 vertex normals

vt 0.5726 0.3101 0.0000
vt 0.5674 0.3108 0.0000
vt 0.5675 0.3056 0.0000
vt 0.5725 0.3042 0.0000
vt 0.5614 0.3107 0.0000
vt 0.5624 0.3056 0.0000
vt 0.6172 0.1314 0.0000
vt 0.6182 0.1361 0.0000
vt 0.6141 0.1369 0.0000
vt 0.6132 0.1310 0.0000
vt 0.5699 0.2866 0.0000
vt 0.5669 0.2879 0.0000
vt 0.5668 0.2827 0.0000
vt 0.5638 0.2880 0.0000
vt 0.5607 0.2868 0.0000
vt 0.5637 0.2828 0.0000
vt 0.4899 0.2495 0.0000
vt 0.4930 0.2494 0.0000
vt 0.4940 0.2645 0.0000
vt 0.4933 0.2645 0.0000
vt 0.4876 0.2539 0.0000
vt 0.4922 0.2655 0.0000
vt 0.4964 0.2531 0.0000
vt 0.4953 0.2652 0.0000
vt 0.4994 0.2532 0.0000
vt 0.4960 0.2653 0.0000
vt 0.5625 0.2422 0.0000
vt 0.5656 0.2421 0.0000
vt 0.5594 0.2424 0.0000
vt 0.5577 0.2866 0.0000
vt 0.5560 0.2426 0.0000
vt 0.5729 0.2862 0.0000
vt 0.5693 0.2422 0.0000
vt 0.5724 0.2423 0.0000
vt 0.5576 0.3042 0.0000
vt 0.5559 0.2945 0.0000
vt 0.5751 0.2938 0.0000
vt 0.6302 0.1360 0.0000
vt 0.6248 0.1360 0.0000
vt 0.6250 0.1311 0.0000
vt 0.6305 0.1312 0.0000
vt 0.6220 0.1700 0.0000
vt 0.6188 0.1419 0.0000
vt 0.6245 0.1430 0.0000
vt 0.6237 0.1702 0.0000
vt 0.6335 0.1370 0.0000
vt 0.6274 0.1708 0.0000
vt 0.6251 0.1698 0.0000
vt 0.6298 0.1381 0.0000
vt 0.6196 0.1707 0.0000
vt 0.6187 0.1717 0.0000
vt 0.6131 0.1470 0.0000
vt 0.6364 0.1477 0.0000
vt 0.6282 0.1719 0.0000
vt 0.6354 0.1314 0.0000
vt 0.5566 0.3099 0.0000
vt 0.4016 0.3447 0.0000
vt 0.4072 0.3427 0.0000
vt 0.4019 0.3481 0.0000
vt 0.3993 0.3488 0.0000
vt 0.3852 0.3453 0.0000
vt 0.3903 0.3416 0.0000
vt 0.3939 0.3480 0.0000
vt 0.3914 0.3492 0.0000
vt 0.3959 0.3449 0.0000
vt 0.3968 0.3490 0.0000
vt 0.4001 0.3529 0.0000
vt 0.3986 0.3530 0.0000
vt 0.3954 0.3521 0.0000
vt 0.3937 0.3534 0.0000
vt 0.3968 0.3524 0.0000
vt 0.3962 0.3541 0.0000
vt 0.3984 0.3545 0.0000
vt 0.9085 0.6508 0.0000
vt 0.9118 0.6341 0.0000
vt 0.9380 0.6176 0.0000
vt 0.9813 0.6293 0.0000
vt 0.9611 0.6632 0.0000
vt 0.9631 0.6270 0.0000
vt 0.9918 0.6516 0.0000
vt 0.9754 0.6784 0.0000
vt 0.9775 0.6091 0.0000
vt 0.9538 0.6030 0.0000
vt 0.9828 0.5958 0.0000
vt 0.9514 0.6510 0.0000
vt 0.9271 0.6593 0.0000
vt 0.9853 0.6836 0.0000
vt 0.9586 0.6962 0.0000
vt 0.9532 0.6692 0.0000
vt 0.9316 0.6719 0.0000
vt 0.9426 0.6616 0.0000
vt 0.9086 0.5938 0.0000
vt 0.8865 0.6163 0.0000
vt 0.8875 0.6427 0.0000
vt 0.9908 0.6133 0.0000
vt 0.9414 0.6497 0.0000
vt 0.9222 0.5990 0.0000
vt 0.9020 0.6640 0.0000
vt 0.8263 0.6824 0.0000
vt 0.8443 0.7018 0.0000
vt 0.8344 0.7246 0.0000
vt 0.7938 0.7469 0.0000
vt 0.7953 0.7215 0.0000
vt 0.8096 0.7392 0.0000
vt 0.7749 0.7242 0.0000
vt 0.7796 0.7073 0.0000
vt 0.8237 0.7524 0.0000
vt 0.8334 0.7416 0.0000
vt 0.8439 0.7463 0.0000
vt 0.8105 0.7264 0.0000
vt 0.8141 0.6932 0.0000
vt 0.7718 0.7065 0.0000
vt 0.7841 0.6845 0.0000
vt 0.7934 0.7029 0.0000
vt 0.8022 0.6905 0.0000
vt 0.8036 0.7026 0.0000
vt 0.7656 0.7461 0.0000
vt 0.7494 0.7090 0.0000
vt 0.7566 0.6904 0.0000
vt 0.8167 0.7186 0.0000
vt 0.7553 0.7418 0.0000
vt 0.8248 0.7582 0.0000
vt 0.6583 0.7649 0.0000
vt 0.6595 0.7602 0.0000
vt 0.6711 0.7578 0.0000
vt 0.6899 0.7559 0.0000
vt 0.6922 0.7668 0.0000
vt 0.6838 0.7613 0.0000
vt 0.7008 0.7554 0.0000
vt 0.7024 0.7643 0.0000
vt 0.6849 0.7503 0.0000
vt 0.6763 0.7523 0.0000
vt 0.6832 0.7436 0.0000
vt 0.6826 0.7708 0.0000
vt 0.6662 0.7728 0.0000
vt 0.7073 0.7592 0.0000
vt 0.7126 0.7702 0.0000
vt 0.6977 0.7720 0.0000
vt 0.7037 0.7790 0.0000
vt 0.6947 0.7783 0.0000
vt 0.6600 0.7431 0.0000
vt 0.6481 0.7521 0.0000
vt 0.6480 0.7590 0.0000
vt 0.6890 0.7473 0.0000
vt 0.6763 0.7689 0.0000
vt 0.6651 0.7473 0.0000
vt 0.6515 0.7702 0.0000
vt 0.6623 0.7774 0.0000
vt 0.6712 0.7788 0.0000
# 149 texture coords

g Forest_C_Tree_16
usemtl ForestPack_Trees
s off
f 1/1/1 2/2/1 3/3/1 4/4/1 
f 2/2/2 5/5/2 6/6/2 3/3/2 
f 7/7/3 8/8/3 9/9/3 10/10/3 
f 11/11/4 12/12/4 13/13/4 
f 14/14/5 15/15/5 16/16/5 
f 12/17/6 14/18/6 17/19/6 18/20/6 
f 13/21/7 12/17/7 18/20/7 19/22/7 
f 14/18/8 16/23/8 20/24/8 17/19/8 
f 16/23/9 13/25/9 19/26/9 20/24/9 
f 13/13/10 16/16/10 21/27/10 22/28/10 
f 16/16/11 15/15/11 23/29/11 21/27/11 
f 15/15/12 24/30/12 25/31/12 23/29/12 
f 24/32/13 11/11/13 26/33/13 25/34/13 
f 11/11/14 13/13/14 22/28/14 26/33/14 
f 24/30/15 15/15/15 9/35/15 27/36/15 
f 11/11/16 24/32/16 27/37/16 4/4/16 
f 12/12/17 11/11/17 4/4/17 3/3/17 
f 14/14/18 12/12/18 3/3/18 6/6/18 
f 9/35/19 15/15/19 14/14/19 6/6/19 
f 28/38/20 29/39/20 30/40/20 31/41/20 
f 32/42/21 33/43/21 34/44/21 35/45/21 
f 4/46/22 36/47/22 37/48/22 38/49/22 
f 32/42/23 39/50/23 9/9/23 33/43/23 
f 39/50/24 40/51/24 27/52/24 9/9/24 
f 27/53/25 40/54/25 36/47/25 4/46/25 
f 37/48/26 35/45/26 34/44/26 38/49/26 
f 8/8/27 7/7/27 30/40/27 29/39/27 
f 4/46/28 28/38/28 31/41/28 1/55/28 
f 6/6/29 5/5/29 10/56/29 9/35/29 
f 9/9/30 8/8/30 33/43/30 
f 29/39/31 28/38/31 38/49/31 34/44/31 
f 38/49/32 28/38/32 4/46/32 
f 33/57/33 8/58/33 41/59/33 42/60/33 
f 8/61/34 29/62/34 43/63/34 41/64/34 
f 29/62/35 34/65/35 44/66/35 43/63/35 
f 34/65/36 33/57/36 42/60/36 44/66/36 
f 42/60/37 41/59/37 45/67/37 46/68/37 
f 41/64/38 43/63/38 47/69/38 45/70/38 
f 43/63/39 44/66/39 48/71/39 47/69/39 
f 44/66/40 42/60/40 46/68/40 48/71/40 
f 47/72/41 48/71/41 46/68/41 45/73/41 
f 49/74/42 50/75/42 51/76/42 
f 52/77/43 53/78/43 54/79/43 
f 52/77/44 55/80/44 56/81/44 
f 57/82/45 58/83/45 59/84/45 
f 60/85/46 54/79/46 53/78/46 
f 61/86/47 49/74/47 51/76/47 
f 62/87/48 63/88/48 56/81/48 
f 64/89/49 65/90/49 66/91/49 
f 54/79/50 58/83/50 57/82/50 
f 60/85/51 58/83/51 54/79/51 
f 67/92/52 50/75/52 55/93/52 
f 50/75/53 49/74/53 62/94/53 
f 54/79/54 57/82/54 52/77/54 
f 67/95/55 55/80/55 52/77/55 
f 68/96/56 61/86/56 51/76/56 
f 60/85/57 64/89/57 66/91/57 
f 51/76/58 58/83/58 68/96/58 
f 59/97/59 58/83/59 51/76/59 
f 63/98/60 62/94/60 49/74/60 
f 61/86/61 65/90/61 49/74/61 
f 56/81/62 63/88/62 64/89/62 
f 52/77/63 56/81/63 53/78/63 
f 68/96/64 58/83/64 60/85/64 
f 61/86/65 68/96/65 60/85/65 
f 56/81/66 55/80/66 62/87/66 
f 50/75/67 62/94/67 55/93/67 
f 59/97/68 51/76/68 50/75/68 
f 67/92/69 59/97/69 50/75/69 
f 60/85/70 53/78/70 64/89/70 
f 56/81/71 64/89/71 53/78/71 
f 65/90/72 64/89/72 63/88/72 
f 49/74/73 65/90/73 63/98/73 
f 67/95/74 57/82/74 59/84/74 
f 67/95/75 52/77/75 57/82/75 
f 65/90/76 61/86/76 66/91/76 
f 66/91/77 61/86/77 60/85/77 
f 69/99/78 70/100/78 71/101/78 
f 72/102/79 73/103/79 74/104/79 
f 72/102/80 75/105/80 76/106/80 
f 77/107/81 78/108/81 79/109/81 
f 80/110/82 74/104/82 73/103/82 
f 81/111/83 69/99/83 71/101/83 
f 82/112/84 83/113/84 76/106/84 
f 84/114/85 85/115/85 86/116/85 
f 74/104/86 78/108/86 77/107/86 
f 80/110/87 78/108/87 74/104/87 
f 87/117/88 70/118/88 75/105/88 
f 70/118/89 69/119/89 82/112/89 
f 74/104/90 77/107/90 72/102/90 
f 87/117/91 75/105/91 72/102/91 
f 88/120/92 81/111/92 71/101/92 
f 80/110/93 84/114/93 86/116/93 
f 71/101/94 78/108/94 88/120/94 
f 79/109/95 78/108/95 71/101/95 
f 83/113/96 82/112/96 69/119/96 
f 81/111/97 85/115/97 69/99/97 
f 76/106/98 83/113/98 84/114/98 
f 72/102/99 76/106/99 73/103/99 
f 88/120/100 78/108/100 80/110/100 
f 81/111/101 88/120/101 80/110/101 
f 76/106/102 75/105/102 82/112/102 
f 70/118/103 82/112/103 75/105/103 
f 79/109/104 71/101/104 70/100/104 
f 87/117/105 79/121/105 70/118/105 
f 80/110/106 73/103/106 84/114/106 
f 76/106/107 84/114/107 73/103/107 
f 85/115/108 84/114/108 83/113/108 
f 69/99/109 85/115/109 83/113/109 
f 87/122/110 77/107/110 79/109/110 
f 87/122/111 72/102/111 77/107/111 
f 85/115/112 81/111/112 86/116/112 
f 86/116/113 81/111/113 80/110/113 
f 89/123/114 90/124/114 91/125/114 
f 92/126/115 93/127/115 94/128/115 
f 92/126/116 95/129/116 96/130/116 
f 97/131/117 98/132/117 99/133/117 
f 100/134/118 94/128/118 93/127/118 
f 101/135/119 89/123/119 91/125/119 
f 102/136/120 103/137/120 96/130/120 
f 104/138/121 105/139/121 106/140/121 
f 94/128/122 98/132/122 97/131/122 
f 100/134/123 98/132/123 94/128/123 
f 107/141/124 90/124/124 95/142/124 
f 90/124/125 89/123/125 102/143/125 
f 94/128/126 97/131/126 92/126/126 
f 107/144/127 95/129/127 92/126/127 
f 108/145/128 101/135/128 91/125/128 
f 100/134/129 104/138/129 106/140/129 
f 91/125/130 98/132/130 108/145/130 
f 99/146/131 98/132/131 91/125/131 
f 103/147/132 102/143/132 89/123/132 
f 101/135/133 105/148/133 89/123/133 
f 96/130/134 103/137/134 104/138/134 
f 92/126/135 96/130/135 93/127/135 
f 108/145/136 98/132/136 100/134/136 
f 101/135/137 108/145/137 100/134/137 
f 96/130/138 95/129/138 102/136/138 
f 90/124/139 102/143/139 95/142/139 
f 99/146/140 91/125/140 90/124/140 
f 107/141/141 99/146/141 90/124/141 
f 100/134/142 93/127/142 104/138/142 
f 96/130/143 104/138/143 93/127/143 
f 105/139/144 104/138/144 103/137/144 
f 89/123/145 105/148/145 103/147/145 
f 107/144/146 97/131/146 99/133/146 
f 107/144/147 92/126/147 97/131/147 
f 105/148/148 101/135/148 106/149/148 
f 106/149/149 101/135/149 100/134/149 
# 37 polygons - 112 triangles

