# 3ds Max Wavefront OBJ Exporter v0.97b - (c)2007 guruware
# File Created: 20.05.2016 21:20:26

mtllib Forest_A_FirTree_25.mtl

#
# object Forest_A_FirTree_25
#

v  -3.9254 179.8446 -1.6556
v  48.0798 48.9856 -6.6073
v  45.3903 54.0370 -26.6828
v  -0.6359 51.8400 -48.4833
v  -18.0929 58.4136 -39.9641
v  -31.9290 56.4934 -41.4764
v  -49.0518 54.9798 -11.2467
v  -39.2349 48.9943 39.5596
v  -13.4495 59.5208 35.4815
v  -4.5652 51.8400 45.7830
v  28.5460 59.7975 43.9480
v  44.3897 53.7688 10.6073
v  36.4376 61.1901 3.3487
v  -0.3587 64.3818 -3.2148
v  2.5014 0.0001 -8.2561
v  -0.3403 105.4026 -4.1488
v  3.0079 104.5896 0.7148
v  8.9077 0.0000 0.8039
v  -8.1573 0.0001 -4.8369
v  -6.2184 105.3507 -2.4085
v  -8.2916 0.0000 6.4374
v  -6.3265 104.4771 3.8621
v  2.3076 0.0000 9.8790
v  -0.4644 104.0274 5.6338
# 24 vertices

vn 0.9284 0.0312 0.3702
vn 0.3921 0.8606 0.3249
vn -0.3160 0.8936 0.3188
vn 0.0635 0.9538 0.2935
vn -0.8273 0.4519 0.3337
vn -0.9235 -0.2158 0.3172
vn 0.0318 -0.9557 0.2925
vn -0.6162 -0.7375 0.2764
vn -0.0316 -0.9372 0.3475
vn 0.8648 -0.3450 0.3649
vn 0.7658 0.5985 0.2353
vn 0.7788 -0.5571 0.2884
vn -0.3095 0.1928 -0.9312
vn -0.0804 -0.2666 -0.9604
vn -0.2258 -0.2614 -0.9384
vn 0.1261 -0.0994 -0.9870
vn 0.1808 -0.0533 -0.9821
vn 0.2118 0.1546 -0.9650
vn 0.3796 -0.0122 -0.9251
vn -0.4433 0.2578 -0.8585
vn 0.2159 0.2247 -0.9502
vn -0.2472 -0.0575 -0.9673
vn 0.0777 0.7531 -0.6533
vn -0.1819 -0.6698 -0.7199
vn 0.8194 0.5714 0.0450
vn -0.2978 0.9542 0.0283
vn -0.9997 0.0129 0.0186
vn -0.3010 -0.9531 0.0300
vn 0.8099 -0.5848 0.0458
# 29 vertex normals

vt 0.9102 0.3933 0.0000
vt 0.8988 0.4264 0.0000
vt 0.8864 0.4177 0.0000
vt 0.8796 0.3790 0.0000
vt 0.8858 0.3733 0.0000
vt 0.8912 0.3666 0.0000
vt 0.9139 0.3608 0.0000
vt 0.9431 0.3829 0.0000
vt 0.9414 0.3922 0.0000
vt 0.9433 0.4006 0.0000
vt 0.9335 0.4164 0.0000
vt 0.9163 0.4268 0.0000
vt 0.9077 0.4241 0.0000
vt 0.6367 0.3978 0.0000
vt 0.6169 0.4026 0.0000
vt 0.6339 0.3903 0.0000
vt 0.6121 0.3836 0.0000
vt 0.6088 0.3882 0.0000
vt 0.6034 0.3877 0.0000
vt 0.5973 0.3985 0.0000
vt 0.6057 0.4214 0.0000
vt 0.6128 0.4192 0.0000
vt 0.6169 0.4236 0.0000
vt 0.6305 0.4210 0.0000
vt 0.6379 0.4076 0.0000
vt 0.6319 0.4037 0.0000
vt 0.2346 0.3047 0.0000
vt 0.2372 0.3459 0.0000
vt 0.2348 0.3457 0.0000
vt 0.2303 0.3051 0.0000
vt 0.2389 0.3046 0.0000
vt 0.2396 0.3458 0.0000
vt 0.2433 0.3047 0.0000
vt 0.2420 0.3455 0.0000
vt 0.2477 0.3049 0.0000
vt 0.2444 0.3454 0.0000
vt 0.2325 0.3458 0.0000
vt 0.2259 0.3057 0.0000
# 38 texture coords

g Forest_A_FirTree_25
usemtl ForestPack_Trees
s off
f 1/1/1 2/2/1 3/3/1 
f 1/1/2 3/3/2 4/4/2 
f 1/1/3 4/4/3 5/5/3 
f 1/1/4 5/5/4 6/6/4 
f 1/1/5 6/6/5 7/7/5 
f 1/1/6 7/7/6 8/8/6 
f 1/1/7 8/8/7 9/9/7 
f 1/1/8 9/9/8 10/10/8 
f 1/1/9 10/10/9 11/11/9 
f 1/1/10 11/11/10 12/12/10 
f 1/1/11 12/12/11 13/13/11 
f 1/1/12 13/13/12 2/2/12 
f 2/14/13 14/15/13 3/16/13 
f 3/16/14 14/15/14 4/17/14 
f 5/18/15 4/17/15 14/15/15 
f 6/19/16 5/18/16 14/15/16 
f 6/19/17 14/15/17 7/20/17 
f 7/20/18 14/15/18 8/21/18 
f 9/22/19 8/21/19 14/15/19 
f 10/23/20 9/22/20 14/15/20 
f 10/23/21 14/15/21 11/24/21 
f 11/24/22 14/15/22 12/25/22 
f 13/26/23 12/25/23 14/15/23 
f 2/14/24 13/26/24 14/15/24 
f 15/27/25 16/28/25 17/29/25 18/30/25 
f 19/31/26 20/32/26 16/28/26 15/27/26 
f 21/33/27 22/34/27 20/32/27 19/31/27 
f 23/35/28 24/36/28 22/34/28 21/33/28 
f 18/30/29 17/29/29 24/37/29 23/38/29 
# 5 polygons - 24 triangles

