# 3ds Max Wavefront OBJ Exporter v0.97b - (c)2007 guruware
# File Created: 20.05.2016 21:20:26

mtllib Forest_A_FirTree_26.mtl

#
# object Forest_A_FirTree_26
#

v  -1.7657 166.6284 -1.4511
v  43.7399 61.6705 9.1319
v  20.6387 60.8746 -35.3698
v  -10.3916 61.1962 -42.1284
v  -46.3343 60.2313 -7.4022
v  -34.4895 60.5589 30.2468
v  8.7878 59.4509 40.1530
v  -0.5413 71.0425 -2.3762
v  3.1010 0.0000 -9.0214
v  0.7998 89.8956 -4.8690
v  3.6839 89.3593 -0.7728
v  10.1199 0.0001 0.6843
v  -8.0239 0.0000 -6.6713
v  -4.1870 89.6880 -3.4033
v  -7.1001 0.0001 4.9544
v  -4.2313 89.0523 1.8778
v  3.9065 0.0001 9.6227
v  0.7680 88.8577 3.3700
# 18 vertices

vn 0.8388 0.4411 0.3192
vn 0.2036 0.9189 0.3379
vn -0.6636 0.6781 0.3159
vn -0.8916 -0.2774 0.3580
vn -0.2019 -0.9196 0.3371
vn 0.6127 -0.7145 0.3377
vn -0.2401 -0.1418 -0.9603
vn -0.0656 -0.2552 -0.9647
vn 0.2063 -0.1868 -0.9605
vn 0.2361 0.0658 -0.9695
vn 0.0373 0.2704 -0.9620
vn -0.1437 0.2308 -0.9623
vn 0.8124 0.5811 0.0483
vn -0.2308 0.9721 0.0421
vn -0.9979 -0.0533 0.0374
vn -0.3583 -0.9324 0.0483
vn 0.8169 -0.5727 0.0687
# 17 vertex normals

vt 0.9097 0.3953 0.0000
vt 0.8915 0.3997 0.0000
vt 0.9032 0.3764 0.0000
vt 0.9189 0.3776 0.0000
vt 0.9298 0.3981 0.0000
vt 0.9211 0.4120 0.0000
vt 0.9054 0.4150 0.0000
vt 0.6310 0.4055 0.0000
vt 0.6199 0.4035 0.0000
vt 0.6236 0.3934 0.0000
vt 0.6150 0.3936 0.0000
vt 0.6075 0.4037 0.0000
vt 0.6121 0.4135 0.0000
vt 0.6213 0.4149 0.0000
vt 0.0299 0.0089 0.0000
vt 0.0318 0.0456 0.0000
vt 0.0297 0.0456 0.0000
vt 0.0251 0.0092 0.0000
vt 0.0346 0.0088 0.0000
vt 0.0339 0.0455 0.0000
vt 0.0394 0.0091 0.0000
vt 0.0361 0.0454 0.0000
vt 0.0442 0.0096 0.0000
vt 0.0382 0.0455 0.0000
vt 0.0277 0.0457 0.0000
vt 0.0207 0.0099 0.0000
# 26 texture coords

g Forest_A_FirTree_26
usemtl ForestPack_Trees
s off
f 1/1/1 2/2/1 3/3/1 
f 1/1/2 3/3/2 4/4/2 
f 1/1/3 4/4/3 5/5/3 
f 1/1/4 5/5/4 6/6/4 
f 1/1/5 6/6/5 7/7/5 
f 1/1/6 7/7/6 2/2/6 
f 2/8/7 8/9/7 3/10/7 
f 3/10/8 8/9/8 4/11/8 
f 4/11/9 8/9/9 5/12/9 
f 5/12/10 8/9/10 6/13/10 
f 6/13/11 8/9/11 7/14/11 
f 7/14/12 8/9/12 2/8/12 
f 9/15/13 10/16/13 11/17/13 12/18/13 
f 13/19/14 14/20/14 10/16/14 9/15/14 
f 15/21/15 16/22/15 14/20/15 13/19/15 
f 17/23/16 18/24/16 16/22/16 15/21/16 
f 12/18/17 11/17/17 18/25/17 17/26/17 
# 5 polygons - 12 triangles

