# 3ds Max Wavefront OBJ Exporter v0.97b - (c)2007 guruware
# File Created: 20.05.2016 21:20:16

mtllib Forest_C_Tree_05.mtl

#
# object Forest_C_Tree_05
#

v  0.7637 0.0000 21.2526
v  15.6668 0.0000 8.1235
v  -1.4471 97.3965 7.4421
v  -14.0489 97.4079 10.1382
v  7.7856 0.0000 -10.1073
v  -1.2697 97.2787 -2.6594
v  -11.9883 0.0000 -8.2454
v  -13.7424 92.1292 -6.1110
v  -16.3281 0.0000 11.1360
v  -19.8240 92.2091 1.9573
v  -13.7814 102.3055 -6.3016
v  -19.8630 102.3854 1.7666
v  -2.5689 142.1951 3.0584
v  -10.3436 142.1951 7.1767
v  -1.2905 148.4771 -4.3651
v  -11.2126 148.2032 -6.9453
v  -17.8745 148.2032 -0.2870
v  -42.8551 134.6671 -14.2302
v  -41.9554 134.8246 -16.5017
v  -39.9638 136.5605 -15.5925
v  -40.8635 136.4029 -13.3210
v  -10.3545 152.4084 7.1102
v  -2.6850 152.4084 2.9748
v  -0.9354 203.5529 -1.5652
v  10.2513 203.8005 -1.5234
v  -1.1089 208.2231 6.4907
v  3.3290 209.4674 11.4574
v  9.2147 207.5263 6.2958
v  25.3925 162.2902 23.9254
v  21.8708 161.7906 25.8160
v  20.3591 166.6568 24.2950
v  23.8488 167.1487 22.3987
v  8.8838 213.7425 0.2991
v  -0.9135 213.0318 -1.3319
v  -21.2169 210.9503 -21.4823
v  -16.4898 211.5796 -23.2399
v  -16.7622 215.6422 -19.8595
v  -20.3860 214.9334 -18.6801
v  9.0843 240.9250 -7.9510
v  12.4025 237.5044 -1.7223
v  2.0331 242.1660 -0.6367
v  2.3014 242.2309 -7.4341
v  6.6311 238.6178 3.7984
v  -32.1880 237.6976 -46.4341
v  -29.5861 237.0812 -46.1490
v  -29.1806 239.5889 -44.4272
v  -31.7824 240.2054 -44.7124
v  41.4253 185.1349 40.1279
v  38.8397 184.9891 41.7019
v  37.7150 187.8514 40.1197
v  40.3005 187.9973 38.5457
v  5.1183 299.3760 -14.6426
v  9.4720 299.2682 -11.0974
v  12.4303 246.0677 -3.3463
v  0.2095 299.2242 -7.4280
v  0.0601 299.3669 -12.6854
v  4.5983 299.2687 -5.8072
v  6.7547 247.1787 2.1527
v  27.9773 257.7223 2.7732
v  24.7501 259.9335 6.7526
v  21.2484 262.4060 2.5069
v  24.4230 260.1879 -1.4302
v  36.0263 302.2203 0.3432
v  32.7991 304.4315 4.3227
v  29.2974 306.9040 0.0769
v  32.4720 304.6859 -3.8601
v  -20.1214 291.4915 -48.4914
v  14.4129 319.3076 -53.4178
v  51.5381 298.8888 -17.4257
v  27.6482 442.7867 -2.7809
v  4.7250 439.4214 11.4484
v  4.8706 397.0942 36.5066
v  39.3321 412.0765 13.4132
v  9.6733 435.3401 -26.6434
v  -17.4724 432.9589 -10.9357
v  7.2890 449.5448 -6.5379
v  40.3966 376.5798 -14.8717
v  59.0662 360.2028 5.7094
v  46.3956 327.8517 -51.5396
v  -5.6438 291.0664 -2.0420
v  -8.5980 370.7330 -51.2445
v  -49.9758 326.1096 -26.5024
v  -40.8030 403.0643 -17.3018
v  -39.7336 306.2518 -4.2147
v  -2.9007 299.9815 36.7149
v  -24.8610 324.4130 29.8410
v  -43.7653 324.0048 3.4758
v  36.3585 367.2230 30.1203
v  52.3117 360.6500 26.2339
v  5.3020 339.2083 56.7750
v  47.4390 331.3375 44.5340
v  40.2984 409.5040 -18.0726
v  20.2847 393.0705 -37.6596
v  41.6929 307.5821 37.8867
v  18.7265 289.1346 23.0508
v  69.4615 333.0135 20.6360
v  -36.8896 397.2955 21.1301
v  30.8712 359.1289 -48.7049
v  47.3189 188.5302 59.6559
v  42.2894 218.4511 56.8623
v  25.5234 185.4432 60.8766
v  37.6819 189.2206 12.0948
v  49.1987 177.7590 28.6849
v  25.3888 184.7188 19.6826
v  44.5507 219.3448 30.3434
v  50.8220 189.8359 25.7282
v  23.9313 194.6848 30.9523
v  20.4475 187.1235 44.9690
v  28.2228 178.1121 29.0101
v  44.7617 180.0607 52.1599
v  52.7012 217.8198 36.2878
v  54.8175 189.6882 41.8991
v  27.5448 177.3443 41.4986
v  -1.7983 239.2937 -28.9569
v  -2.9894 233.2332 -48.9577
v  0.3179 244.9061 -57.9865
v  -1.0815 252.6391 -42.6979
v  -37.4263 273.4500 -58.1303
v  -23.1119 276.3674 -50.5950
v  -18.6800 285.1223 -68.0689
v  -41.4239 237.4385 -28.7030
v  -52.5643 244.9882 -33.7865
v  -44.1323 228.8572 -54.7799
v  -12.0083 231.6945 -36.2721
v  -28.4213 271.8390 -84.0887
v  -24.8592 241.6510 -84.1355
v  -39.8861 248.7649 -82.1503
v  -24.0128 226.8647 -66.8264
v  -26.8317 257.0607 -35.6199
v  -46.3913 263.6468 -37.9811
v  -19.2910 282.4517 -76.6182
v  -39.6690 264.6662 -70.4102
v  -8.5553 265.9844 -66.2003
v  -11.8492 244.8352 -72.2239
v  -52.0459 247.3383 -61.9867
v  -29.7006 238.0695 -24.5298
v  -8.1212 257.8306 -34.6109
v  -46.5925 232.8302 -69.9547
v  -35.4700 136.6331 -47.1530
v  -46.2150 125.1097 -47.7968
v  -48.1081 178.0987 -41.8224
v  -63.7626 130.6807 -5.2348
v  -50.9583 140.6378 3.2387
v  -57.6818 177.9587 -8.3420
v  -67.5507 124.9035 -21.9825
v  -47.1922 118.9455 -1.4056
v  -72.6764 168.8249 -30.3903
v  -59.1595 185.2132 -29.7733
v  -58.8364 146.4000 -53.1090
v  -41.5102 159.5885 -5.4793
v  -17.6365 146.5596 -17.5950
v  -50.1323 119.2018 -28.6107
v  -33.0273 130.2729 -25.7364
v  -40.0632 132.8040 1.3524
v  -22.4386 133.9346 -17.3321
v  -73.6188 145.0617 -34.9762
v  -38.6391 165.6728 -15.8786
# 157 vertices

vn 0.4943 -0.8590 0.1330
vn 0.9557 0.2604 0.1375
vn 0.0408 0.9978 0.0528
vn -0.9342 0.3545 -0.0402
vn -0.6278 -0.7781 0.0227
vn 0.2732 0.9618 -0.0170
vn -0.8192 -0.5735 0.0076
vn 0.3164 -0.9461 0.0684
vn 0.9959 -0.0889 0.0175
vn 0.2612 0.9648 -0.0302
vn -0.7560 0.6543 0.0183
vn -0.7327 -0.6754 0.0834
vn -0.6856 0.4671 -0.5584
vn 0.3412 0.9400 0.0008
vn -0.5354 -0.8438 0.0369
vn 0.6539 -0.4461 0.6112
vn -0.7024 -0.7118 0.0039
vn 0.9836 -0.1801 0.0127
vn 0.1219 0.9913 0.0496
vn -0.8461 0.4718 0.2480
vn -0.7407 -0.6591 0.1300
vn 0.5389 -0.8231 -0.1792
vn 0.9417 -0.2593 -0.2143
vn 0.2731 -0.4423 -0.8543
vn -0.5101 -0.8592 0.0390
vn 0.6022 0.7981 -0.0190
vn -0.2317 0.3549 0.9057
vn 0.9898 -0.0727 0.1228
vn -0.9997 0.0232 0.0029
vn 0.0132 0.3555 -0.9346
vn 0.6253 0.7048 0.3351
vn -0.6936 -0.7109 -0.1164
vn -0.1100 -0.2303 0.9669
vn 0.9007 0.4009 -0.1675
vn -0.9949 -0.0020 0.1006
vn 0.0560 0.9668 -0.2495
vn -0.6719 -0.7029 0.2334
vn 0.6873 -0.7172 0.1147
vn -0.1389 0.6975 -0.7029
vn 0.9351 0.2887 0.2053
vn -0.9360 -0.3463 -0.0631
vn 0.0859 -0.6736 0.7341
vn 0.4068 -0.5866 -0.7003
vn -0.7070 -0.7060 0.0423
vn 0.7237 0.6896 -0.0275
vn -0.3926 0.5521 0.7355
vn 0.7389 0.6726 -0.0412
vn -0.9993 0.0105 -0.0367
vn -0.2150 0.9702 -0.1118
vn -0.4782 -0.8725 0.1005
vn 0.7153 -0.6853 0.1370
vn 0.8545 0.5098 -0.0995
vn -0.6204 -0.7685 0.1567
vn 0.5116 -0.6720 -0.5355
vn -0.4385 -0.8417 0.3152
vn 0.5182 0.8135 -0.2641
vn -0.5218 0.6739 0.5230
vn 0.7453 -0.6593 -0.0988
vn -0.7112 -0.6832 0.1659
vn 0.7033 0.6915 -0.1650
vn -0.7466 0.6578 0.0991
vn 0.3719 0.7176 -0.5888
vn 0.3525 -0.7892 0.5029
vn -0.3892 0.5619 0.7300
vn 0.8138 0.4118 0.4101
vn 0.1229 0.0474 -0.9913
vn -0.6317 0.7573 0.1658
vn -0.7078 -0.5473 -0.4467
vn 0.4749 -0.1949 0.8582
vn 0.3400 -0.8316 0.4390
vn -0.1288 0.9915 -0.0157
vn 0.9347 0.0004 0.3554
vn 0.5557 0.7171 0.4208
vn 0.5193 -0.2221 -0.8252
vn -0.5582 -0.7802 -0.2823
vn 0.7313 -0.2310 -0.6418
vn 0.9417 0.2886 -0.1727
vn -0.5529 0.8317 0.0515
vn -0.4103 -0.1196 -0.9041
vn -0.9878 -0.1162 0.1039
vn -0.5641 -0.3425 0.7513
vn 0.2113 -0.9268 -0.3104
vn 0.1000 -0.7109 -0.6962
vn -0.4806 0.7657 0.4275
vn 0.2098 0.9320 0.2956
vn 0.2316 0.6497 -0.7241
vn 0.0303 0.9940 0.1051
vn -0.3001 -0.8213 0.4852
vn -0.6043 -0.4003 0.6889
vn -0.9411 -0.1747 -0.2894
vn -0.7950 0.1568 -0.5860
vn 0.7862 0.4434 0.4304
vn -0.4081 -0.2320 -0.8830
vn 0.0558 -0.8842 -0.4638
vn -0.3138 -0.2339 -0.9202
vn 0.0904 0.1634 -0.9824
vn -0.3272 -0.8926 0.3101
vn 0.4528 -0.8404 0.2977
vn 0.4442 -0.8488 0.2867
vn 0.9978 -0.0635 -0.0206
vn 0.9653 0.2602 -0.0224
vn 0.4516 0.7973 0.4003
vn -0.2677 0.9377 0.2216
vn 0.3044 0.9362 0.1758
vn 0.1876 -0.5019 0.8443
vn 0.3543 0.5112 0.7830
vn 0.7023 -0.6231 -0.3442
vn 0.6920 -0.6584 0.2960
vn 0.8422 -0.2669 0.4685
vn 0.9321 0.3111 0.1855
vn -0.6606 -0.7505 -0.0193
vn -0.8105 -0.5822 -0.0642
vn -0.9777 -0.2055 0.0422
vn -0.7941 -0.1685 0.5839
vn -0.3773 0.8009 0.4650
vn 0.0415 -0.9941 0.0998
vn -0.0351 0.5514 -0.8335
vn 0.6909 0.6773 0.2528
vn -0.8325 -0.0881 0.5470
vn -0.0227 0.5733 -0.8191
vn 0.1366 -0.7210 -0.6794
vn 0.9705 0.2396 0.0252
vn 0.7780 -0.2053 -0.5938
vn -0.9767 0.1986 0.0818
vn -0.8437 0.1150 -0.5243
vn -0.7670 0.0438 0.6402
vn 0.8786 -0.4388 0.1887
vn -0.5715 0.5838 0.5766
vn -0.6213 0.5993 0.5047
vn -0.0875 -0.3764 -0.9223
vn -0.0153 -0.0947 -0.9954
vn -0.7650 -0.1788 -0.6187
vn -0.8306 -0.3136 0.4601
vn 0.9078 -0.3929 0.1467
vn 0.8024 -0.3054 -0.5126
vn 0.9534 0.2373 -0.1862
vn 0.7016 0.6646 -0.2570
vn -0.8199 0.0794 -0.5669
vn 0.1859 0.0502 -0.9813
vn 0.6007 0.7605 0.2466
vn 0.1511 -0.0462 0.9874
vn 0.9922 -0.0503 -0.1138
vn -0.3580 -0.3441 0.8680
vn -0.6254 -0.3018 -0.7196
vn 0.4694 -0.2303 -0.8524
vn -0.1378 0.9903 -0.0147
vn -0.0035 -0.1575 -0.9875
vn -0.0822 -0.9443 0.3187
vn -0.6495 0.2961 0.7003
vn 0.7132 0.6955 0.0870
vn -0.9488 -0.0089 0.3159
vn 0.1322 -0.6194 -0.7739
vn -0.1014 -0.3205 -0.9418
vn 0.0492 -0.9104 0.4107
vn 0.6929 -0.1713 0.7004
vn 0.6227 0.5258 -0.5794
vn 0.2450 -0.0568 -0.9679
vn -0.2219 0.2131 -0.9515
vn -0.8117 0.4645 0.3540
vn -0.3121 -0.7991 0.5138
vn -0.0838 -0.3750 -0.9232
vn -0.6775 0.1837 0.7122
vn 0.7817 -0.4263 0.4552
vn 0.8739 0.2007 0.4427
vn 0.6616 0.7486 -0.0423
vn 0.9302 0.0943 0.3548
vn -0.9107 0.0509 -0.4098
vn -0.2065 0.7251 -0.6570
vn -0.3344 -0.2878 0.8974
vn 0.1049 -0.7955 0.5968
vn 0.6193 0.5264 -0.5826
vn -0.8509 0.1607 0.5001
vn -0.0677 -0.7820 0.6196
vn 0.8021 -0.4370 0.4069
vn 0.6625 0.7448 0.0793
vn -0.9379 0.2872 -0.1948
vn -0.8044 0.4727 0.3600
vn -0.0583 0.9922 0.1098
vn -0.6156 -0.7772 0.1303
vn -0.5915 -0.3792 -0.7115
vn -0.5025 0.7428 0.4424
vn 0.2039 -0.9240 0.3235
vn 0.7661 0.5651 0.3062
vn 0.5501 0.0673 -0.8324
vn 0.7108 -0.6549 -0.2567
vn -0.7501 -0.2579 0.6090
vn 0.7252 -0.1754 0.6658
vn -0.6460 0.5382 -0.5414
vn 0.7317 0.0597 -0.6790
vn -0.8449 -0.5156 0.1426
vn -0.9583 -0.2587 -0.1217
vn 0.6740 -0.1043 0.7313
vn 0.5389 -0.8088 0.2354
vn 0.6348 -0.1328 0.7611
vn -0.5192 0.7344 0.4372
vn 0.5537 0.2945 -0.7789
vn 0.8527 0.4027 -0.3327
vn 0.8359 -0.2622 -0.4822
vn -0.3865 -0.8858 -0.2568
vn 0.3562 -0.5432 0.7603
vn 0.5972 -0.5214 0.6094
vn -0.3028 -0.0238 -0.9527
vn -0.4077 0.3437 -0.8459
vn 0.5416 0.8329 0.1133
vn -0.6423 0.5621 -0.5210
vn 0.3368 -0.9079 0.2498
vn 0.0215 -0.9784 -0.2057
vn 0.2173 -0.1466 -0.9650
vn 0.5143 0.2975 -0.8043
vn -0.7717 0.6181 0.1499
vn -0.9520 -0.3053 -0.0212
# 211 vertex normals

vt 0.5559 0.1454 0.0000
vt 0.5621 0.1440 0.0000
vt 0.5651 0.1755 0.0000
vt 0.5611 0.1764 0.0000
vt 0.5684 0.1438 0.0000
vt 0.5683 0.1753 0.0000
vt 0.5747 0.1444 0.0000
vt 0.5726 0.1737 0.0000
vt 0.5809 0.1450 0.0000
vt 0.5758 0.1739 0.0000
vt 0.5872 0.1455 0.0000
vt 0.5788 0.1757 0.0000
vt 0.5725 0.1769 0.0000
vt 0.5756 0.1770 0.0000
vt 0.5669 0.1895 0.0000
vt 0.5642 0.1898 0.0000
vt 0.5692 0.1914 0.0000
vt 0.5722 0.1910 0.0000
vt 0.5749 0.1908 0.0000
vt 0.5783 0.1894 0.0000
vt 0.4398 0.1398 0.0000
vt 0.4429 0.1392 0.0000
vt 0.4466 0.1549 0.0000
vt 0.4459 0.1552 0.0000
vt 0.4391 0.1430 0.0000
vt 0.4451 0.1556 0.0000
vt 0.4453 0.1414 0.0000
vt 0.4475 0.1548 0.0000
vt 0.4484 0.1408 0.0000
vt 0.4483 0.1548 0.0000
vt 0.5778 0.1927 0.0000
vt 0.5669 0.1926 0.0000
vt 0.5722 0.2080 0.0000
vt 0.5690 0.2086 0.0000
vt 0.5746 0.2097 0.0000
vt 0.5767 0.2104 0.0000
vt 0.5666 0.2096 0.0000
vt 0.5641 0.2097 0.0000
vt 0.5643 0.1921 0.0000
vt 0.3985 0.2214 0.0000
vt 0.4003 0.2339 0.0000
vt 0.3991 0.2336 0.0000
vt 0.3958 0.2207 0.0000
vt 0.4040 0.2214 0.0000
vt 0.4071 0.2204 0.0000
vt 0.4048 0.2334 0.0000
vt 0.4032 0.2336 0.0000
vt 0.4015 0.2226 0.0000
vt 0.4019 0.2341 0.0000
vt 0.5683 0.2117 0.0000
vt 0.5720 0.2113 0.0000
vt 0.5428 0.2655 0.0000
vt 0.5444 0.2742 0.0000
vt 0.5428 0.2742 0.0000
vt 0.5399 0.2636 0.0000
vt 0.5473 0.2628 0.0000
vt 0.5506 0.2627 0.0000
vt 0.5487 0.2739 0.0000
vt 0.5470 0.2737 0.0000
vt 0.5457 0.2657 0.0000
vt 0.5458 0.2739 0.0000
vt 0.5688 0.2211 0.0000
vt 0.5668 0.2196 0.0000
vt 0.5733 0.2213 0.0000
vt 0.5710 0.2216 0.0000
vt 0.5754 0.2202 0.0000
vt 0.5642 0.2193 0.0000
vt 0.5452 0.2860 0.0000
vt 0.5444 0.2857 0.0000
vt 0.5478 0.2855 0.0000
vt 0.5469 0.2856 0.0000
vt 0.5462 0.2861 0.0000
vt 0.4011 0.2440 0.0000
vt 0.4001 0.2438 0.0000
vt 0.4041 0.2437 0.0000
vt 0.4031 0.2438 0.0000
vt 0.4022 0.2441 0.0000
vt 0.5687 0.2409 0.0000
vt 0.5668 0.2406 0.0000
vt 0.5666 0.2225 0.0000
vt 0.5723 0.2407 0.0000
vt 0.5705 0.2409 0.0000
vt 0.5739 0.2407 0.0000
vt 0.5751 0.2230 0.0000
vt 0.5644 0.2404 0.0000
vt 0.5640 0.2227 0.0000
vt 0.5836 0.2116 0.0000
vt 0.5859 0.2123 0.0000
vt 0.5854 0.2200 0.0000
vt 0.5837 0.2202 0.0000
vt 0.5819 0.2136 0.0000
vt 0.5818 0.2204 0.0000
vt 0.5780 0.2126 0.0000
vt 0.5797 0.2145 0.0000
vt 0.5799 0.2203 0.0000
vt 0.5781 0.2201 0.0000
vt 0.5855 0.2343 0.0000
vt 0.5838 0.2347 0.0000
vt 0.5820 0.2354 0.0000
vt 0.5803 0.2350 0.0000
vt 0.5785 0.2344 0.0000
vt 0.0364 0.8654 0.0000
vt 0.0425 0.8744 0.0000
vt 0.0326 0.8875 0.0000
vt 0.0811 0.8925 0.0000
vt 0.0867 0.8854 0.0000
vt 0.1017 0.8872 0.0000
vt 0.0935 0.8983 0.0000
vt 0.0772 0.8832 0.0000
vt 0.0830 0.8742 0.0000
vt 0.0824 0.8849 0.0000
vt 0.0570 0.8951 0.0000
vt 0.0473 0.9020 0.0000
vt 0.0437 0.8824 0.0000
vt 0.0240 0.8706 0.0000
vt 0.0589 0.8715 0.0000
vt 0.0445 0.8541 0.0000
vt 0.0727 0.8614 0.0000
vt 0.1272 0.8611 0.0000
vt 0.1328 0.8795 0.0000
vt 0.1233 0.8736 0.0000
vt 0.1215 0.8636 0.0000
vt 0.0555 0.9099 0.0000
vt 0.0479 0.9084 0.0000
vt 0.1106 0.8987 0.0000
vt 0.1205 0.8863 0.0000
vt 0.1249 0.8987 0.0000
vt 0.1151 0.9043 0.0000
vt 0.0682 0.8927 0.0000
vt 0.0709 0.9020 0.0000
vt 0.0641 0.8831 0.0000
vt 0.0187 0.8951 0.0000
vt 0.0173 0.8818 0.0000
vt 0.0349 0.9041 0.0000
vt 0.0274 0.8565 0.0000
vt 0.0934 0.8635 0.0000
vt 0.1187 0.8539 0.0000
vt 0.0997 0.8733 0.0000
vt 0.1331 0.8961 0.0000
vt 0.0084 0.8835 0.0000
vt 0.0530 0.8828 0.0000
vt 0.0121 0.8708 0.0000
vt 0.1259 0.9085 0.0000
vt 0.4495 0.9887 0.0000
vt 0.4380 0.9918 0.0000
vt 0.4460 0.9832 0.0000
vt 0.4316 0.9741 0.0000
vt 0.4250 0.9774 0.0000
vt 0.4313 0.9706 0.0000
vt 0.4354 0.9839 0.0000
vt 0.4274 0.9784 0.0000
vt 0.4400 0.9758 0.0000
vt 0.4441 0.9791 0.0000
vt 0.4238 0.9719 0.0000
vt 0.4524 0.9837 0.0000
vt 0.4337 0.9859 0.0000
vt 0.4252 0.9835 0.0000
vt 0.4198 0.9836 0.0000
vt 0.4439 0.9707 0.0000
vt 0.4481 0.9736 0.0000
vt 0.4229 0.9900 0.0000
vt 0.4481 0.9775 0.0000
vt 0.5583 0.9343 0.0000
vt 0.5629 0.9399 0.0000
vt 0.5608 0.9434 0.0000
vt 0.5555 0.9403 0.0000
vt 0.5480 0.9544 0.0000
vt 0.5513 0.9497 0.0000
vt 0.5545 0.9547 0.0000
vt 0.5374 0.9467 0.0000
vt 0.5389 0.9495 0.0000
vt 0.5326 0.9551 0.0000
vt 0.5655 0.9359 0.0000
vt 0.5583 0.9594 0.0000
vt 0.5663 0.9535 0.0000
vt 0.5685 0.9581 0.0000
vt 0.5762 0.9453 0.0000
vt 0.5690 0.9471 0.0000
vt 0.5456 0.9440 0.0000
vt 0.5434 0.9499 0.0000
vt 0.5556 0.9562 0.0000
vt 0.5483 0.9594 0.0000
vt 0.5582 0.9495 0.0000
vt 0.5631 0.9491 0.0000
vt 0.5401 0.9582 0.0000
vt 0.5383 0.9436 0.0000
vt 0.5330 0.9386 0.0000
vt 0.5404 0.9346 0.0000
vt 0.5503 0.9393 0.0000
vt 0.5750 0.9521 0.0000
vt 0.5450 0.9648 0.0000
vt 0.5366 0.9610 0.0000
vt 0.5462 0.8496 0.0000
vt 0.5415 0.8479 0.0000
vt 0.5548 0.8399 0.0000
vt 0.5727 0.8434 0.0000
vt 0.5683 0.8473 0.0000
vt 0.5612 0.8395 0.0000
vt 0.5776 0.8418 0.0000
vt 0.5726 0.8499 0.0000
vt 0.5585 0.8315 0.0000
vt 0.5564 0.8363 0.0000
vt 0.5451 0.8408 0.0000
vt 0.5623 0.8472 0.0000
vt 0.5576 0.8562 0.0000
vt 0.5797 0.8516 0.0000
vt 0.5729 0.8592 0.0000
vt 0.5684 0.8515 0.0000
vt 0.5651 0.8587 0.0000
vt 0.5429 0.8350 0.0000
vt 0.5338 0.8414 0.0000
vt 0.5365 0.8503 0.0000
vt 0.5703 0.8328 0.0000
vt 0.5600 0.8466 0.0000
vt 0.5443 0.8559 0.0000
vt 0.5506 0.8590 0.0000
# 216 texture coords

g Forest_C_Tree_05
usemtl ForestPack_Trees
s off
f 1/1/1 2/2/1 3/3/1 4/4/1 
f 2/2/2 5/5/2 6/6/2 3/3/2 
f 5/5/3 7/7/3 8/8/3 6/6/3 
f 7/7/4 9/9/4 10/10/4 8/8/4 
f 9/9/5 1/11/5 4/12/5 10/10/5 
f 6/6/6 8/8/6 11/13/6 
f 10/10/7 4/12/7 12/14/7 
f 4/4/8 3/3/8 13/15/8 14/16/8 
f 3/3/9 6/6/9 15/17/9 13/15/9 
f 6/6/10 11/13/10 16/18/10 15/17/10 
f 11/13/11 12/14/11 17/19/11 16/18/11 
f 12/14/12 4/12/12 14/20/12 17/19/12 
f 8/21/13 10/22/13 18/23/13 19/24/13 
f 11/25/14 8/21/14 19/24/14 20/26/14 
f 10/22/15 12/27/15 21/28/15 18/23/15 
f 12/27/16 11/29/16 20/30/16 21/28/16 
f 17/19/17 14/20/17 22/31/17 
f 13/15/18 15/17/18 23/32/18 
f 16/18/19 24/33/19 25/34/19 15/17/19 
f 17/19/20 26/35/20 24/33/20 16/18/20 
f 22/31/21 27/36/21 26/35/21 17/19/21 
f 23/32/22 28/37/22 27/38/22 22/39/22 
f 23/32/23 15/17/23 25/34/23 28/37/23 
f 13/40/24 29/41/24 30/42/24 14/43/24 
f 22/44/25 14/45/25 30/46/25 31/47/25 
f 23/48/26 32/49/26 29/41/26 13/40/26 
f 23/48/27 22/44/27 31/47/27 32/49/27 
f 28/37/28 25/34/28 33/50/28 
f 24/33/29 26/35/29 34/51/29 
f 24/52/30 35/53/30 36/54/30 25/55/30 
f 33/56/31 25/57/31 36/58/31 37/59/31 
f 34/60/32 38/61/32 35/53/32 24/52/32 
f 34/60/33 33/56/33 37/59/33 38/61/33 
f 33/50/34 39/62/34 40/63/34 28/37/34 
f 34/51/35 26/35/35 41/64/35 42/65/35 
f 33/50/36 34/51/36 42/65/36 39/62/36 
f 27/36/37 43/66/37 41/64/37 26/35/37 
f 27/38/38 28/37/38 40/63/38 43/67/38 
f 35/53/39 44/68/39 45/69/39 36/54/39 
f 45/70/40 46/71/40 37/59/40 36/58/40 
f 38/61/41 47/72/41 44/68/41 35/53/41 
f 46/71/42 47/72/42 38/61/42 37/59/42 
f 29/41/43 48/73/43 49/74/43 30/42/43 
f 49/75/44 50/76/44 31/47/44 30/46/44 
f 32/49/45 51/77/45 48/73/45 29/41/45 
f 50/76/46 51/77/46 32/49/46 31/47/46 
f 39/62/47 52/78/47 53/79/47 54/80/47 
f 55/81/48 56/82/48 42/65/48 41/64/48 
f 56/82/49 52/78/49 39/62/49 42/65/49 
f 57/83/50 55/81/50 41/64/50 58/84/50 
f 54/80/51 53/79/51 57/85/51 58/86/51 
f 39/62/52 54/80/52 40/63/52 
f 43/66/53 58/84/53 41/64/53 
f 43/87/54 40/88/54 59/89/54 60/90/54 
f 58/91/55 43/87/55 60/90/55 61/92/55 
f 40/93/56 54/94/56 62/95/56 59/96/56 
f 54/94/57 58/91/57 61/92/57 62/95/57 
f 60/90/58 59/89/58 63/97/58 64/98/58 
f 61/92/59 60/90/59 64/98/59 65/99/59 
f 59/96/60 62/95/60 66/100/60 63/101/60 
f 62/95/61 61/92/61 65/99/61 66/100/61 
f 67/102/62 68/103/62 69/104/62 
f 70/105/63 71/106/63 72/107/63 73/108/63 
f 74/109/64 75/110/64 76/111/64 
f 77/112/65 78/113/65 79/114/65 
f 80/115/66 67/102/66 69/104/66 
f 81/116/67 82/117/67 83/118/67 
f 84/119/68 85/120/68 86/121/68 87/122/68 
f 77/112/69 88/123/69 89/124/69 78/113/69 
f 88/125/70 90/126/70 91/127/70 89/128/70 
f 68/103/71 67/102/71 81/116/71 
f 92/129/72 70/105/72 73/130/72 
f 74/109/73 70/105/73 92/129/73 93/131/73 
f 94/132/74 95/133/74 69/104/74 
f 90/126/75 86/121/75 85/120/75 
f 69/104/76 96/134/76 94/132/76 
f 79/114/77 96/134/77 69/104/77 
f 82/117/78 81/116/78 67/102/78 
f 80/115/79 84/135/79 67/102/79 
f 83/136/80 82/137/80 97/138/80 
f 76/111/81 75/110/81 71/106/81 
f 94/139/82 91/127/82 90/126/82 
f 95/133/83 94/132/83 85/140/83 
f 75/110/84 74/109/84 81/116/84 
f 81/116/85 74/109/85 93/131/85 
f 79/114/86 69/104/86 68/103/86 
f 98/141/87 79/114/87 68/103/87 
f 72/107/88 71/106/88 97/138/88 
f 75/110/89 97/138/89 71/106/89 
f 84/119/90 87/122/90 82/137/90 
f 67/102/91 84/135/91 82/117/91 
f 98/141/92 77/112/92 79/114/92 
f 84/135/93 80/115/93 85/142/93 
f 94/139/94 90/126/94 85/120/94 
f 85/142/95 80/115/95 95/133/95 
f 95/133/96 80/115/96 69/104/96 
f 97/138/97 90/126/97 72/107/97 
f 72/107/98 90/126/98 88/125/98 
f 72/107/99 88/125/99 73/108/99 
f 73/130/100 88/123/100 77/112/100 92/129/100 
f 92/129/101 77/112/101 98/141/101 
f 92/129/102 98/141/102 93/131/102 
f 93/131/103 98/141/103 68/103/103 
f 93/131/104 68/103/104 81/116/104 
f 71/106/105 70/105/105 76/111/105 
f 76/111/106 70/105/106 74/109/106 
f 94/139/107 96/143/107 91/127/107 
f 91/127/108 96/143/108 89/128/108 
f 89/124/109 96/134/109 78/113/109 
f 78/113/110 96/134/110 79/114/110 
f 90/126/111 97/138/111 86/121/111 
f 86/121/112 97/138/112 87/122/112 
f 87/122/113 97/138/113 82/137/113 
f 97/138/114 75/110/114 83/136/114 
f 83/118/115 75/110/115 81/116/115 
f 99/144/116 100/145/116 101/146/116 
f 102/147/117 103/148/117 104/149/117 
f 102/147/118 105/150/118 106/151/118 
f 107/152/119 108/153/119 100/145/119 
f 109/154/120 104/149/120 103/148/120 
f 110/155/121 99/144/121 101/146/121 
f 111/156/122 112/157/122 106/151/122 
f 103/148/123 112/157/123 110/158/123 
f 104/159/124 108/153/124 107/152/124 
f 109/160/125 108/153/125 104/159/125 
f 107/152/126 100/145/126 105/150/126 
f 100/145/127 99/161/127 111/156/127 
f 104/149/128 107/152/128 102/147/128 
f 107/152/129 105/150/129 102/147/129 
f 113/162/130 110/155/130 101/146/130 
f 110/158/131 109/154/131 103/148/131 
f 101/146/132 108/153/132 113/162/132 
f 100/145/133 108/153/133 101/146/133 
f 112/157/134 111/156/134 99/161/134 
f 110/158/135 112/157/135 99/161/135 
f 106/151/136 112/157/136 103/148/136 
f 102/147/137 106/151/137 103/148/137 
f 113/162/138 108/153/138 109/160/138 
f 110/155/139 113/162/139 109/160/139 
f 106/151/140 105/150/140 111/156/140 
f 100/145/141 111/156/141 105/150/141 
f 114/163/142 115/164/142 116/165/142 117/166/142 
f 118/167/143 119/168/143 120/169/143 
f 121/170/144 122/171/144 123/172/144 
f 124/173/145 115/164/145 114/163/145 
f 125/174/146 126/175/146 127/176/146 
f 123/177/147 128/178/147 124/173/147 
f 121/170/148 129/179/148 130/180/148 122/171/148 
f 120/169/149 131/181/149 132/182/149 118/167/149 
f 125/174/150 133/183/150 116/165/150 134/184/150 
f 122/171/151 130/180/151 135/185/151 
f 136/186/152 124/187/152 114/188/152 
f 124/187/153 121/170/153 123/172/153 
f 136/186/154 114/188/154 137/189/154 129/179/154 
f 119/168/155 137/189/155 117/166/155 133/183/155 
f 115/164/156 128/178/156 126/175/156 134/184/156 
f 124/173/157 128/178/157 115/164/157 
f 138/190/158 128/178/158 123/177/158 
f 132/182/159 127/191/159 135/185/159 
f 136/186/160 129/179/160 121/170/160 
f 124/187/161 136/186/161 121/170/161 
f 125/174/162 132/182/162 131/181/162 
f 119/168/163 133/183/163 120/169/163 
f 120/169/164 133/183/164 131/181/164 
f 131/181/165 133/183/165 125/174/165 
f 116/165/166 133/183/166 117/166/166 
f 135/185/167 123/172/167 122/171/167 
f 138/190/168 127/176/168 126/175/168 128/178/168 
f 130/180/169 119/168/169 118/167/169 
f 129/179/170 119/168/170 130/180/170 
f 116/165/171 115/164/171 134/184/171 
f 118/167/172 132/182/172 135/185/172 130/180/172 
f 137/189/173 119/168/173 129/179/173 
f 137/189/174 114/163/174 117/166/174 
f 126/175/175 125/174/175 134/184/175 
f 138/192/176 123/172/176 135/185/176 127/191/176 
f 127/191/177 132/182/177 125/174/177 
f 139/193/178 140/194/178 141/195/178 
f 142/196/179 143/197/179 144/198/179 
f 142/196/180 145/199/180 146/200/180 
f 147/201/181 148/202/181 149/203/181 
f 150/204/182 144/198/182 143/197/182 
f 151/205/183 139/193/183 141/195/183 
f 152/206/184 153/207/184 146/200/184 
f 154/208/185 155/209/185 151/205/185 
f 144/198/186 148/202/186 147/201/186 
f 150/204/187 148/202/187 144/198/187 
f 156/210/188 140/194/188 145/211/188 
f 140/194/189 139/193/189 152/212/189 
f 144/198/190 147/201/190 142/196/190 
f 156/213/191 145/199/191 142/196/191 
f 157/214/192 151/205/192 141/195/192 
f 151/205/193 150/204/193 154/208/193 
f 141/195/194 148/202/194 157/214/194 
f 149/203/195 148/202/195 141/195/195 
f 153/215/196 152/212/196 139/193/196 
f 151/205/197 155/216/197 139/193/197 
f 146/200/198 153/207/198 154/208/198 
f 142/196/199 146/200/199 143/197/199 
f 157/214/200 148/202/200 150/204/200 
f 151/205/201 157/214/201 150/204/201 
f 146/200/202 145/199/202 152/206/202 
f 140/194/203 152/212/203 145/211/203 
f 149/203/204 141/195/204 140/194/204 
f 156/210/205 149/203/205 140/194/205 
f 150/204/206 143/197/206 154/208/206 
f 146/200/207 154/208/207 143/197/207 
f 155/209/208 154/208/208 153/207/208 
f 139/193/209 155/216/209 153/215/209 
f 156/210/210 147/201/210 149/203/210 
f 156/213/211 142/196/211 147/201/211 
# 69 polygons - 142 triangles

