# 3ds Max Wavefront OBJ Exporter v0.97b - (c)2007 guruware
# File Created: 20.05.2016 21:20:15

mtllib Forest_C_Tree_09.mtl

#
# object Forest_C_Tree_09
#

v  1.8039 0.0000 9.9521
v  11.0558 0.0000 1.8015
v  6.5140 120.4973 2.2875
v  0.5393 120.4973 5.1876
v  6.1631 0.0000 -9.5163
v  5.6021 120.4973 -4.2909
v  -6.1126 0.0000 -8.3604
v  -0.9362 117.6081 -5.4565
v  -8.8068 0.0000 3.6716
v  -4.0651 117.6081 0.4015
v  -0.9362 123.3866 -5.4565
v  -4.0651 123.3866 0.4015
v  -39.6204 157.9914 -18.2729
v  -38.6485 157.8809 -20.3468
v  -37.2775 160.0466 -19.8197
v  -38.2495 160.1570 -17.7458
v  2.2146 144.8289 0.8568
v  7.2230 139.3353 -3.5366
v  6.9000 148.2668 -4.2491
v  3.9121 139.3353 -8.6385
v  -3.1427 144.8289 -7.3981
v  3.5837 148.2668 -9.2774
v  15.0788 159.5416 -19.0184
v  17.0616 158.7499 -16.7050
v  15.3988 161.9507 -14.5624
v  13.4172 162.7285 -16.8524
v  -3.4629 144.8288 -1.3245
v  26.8982 181.8406 -30.1240
v  28.2973 181.7269 -28.2266
v  27.1474 183.9561 -27.2451
v  25.7483 184.0697 -29.1425
v  -5.7820 182.6911 -3.7256
v  1.6057 178.6090 -1.5202
v  -1.3397 186.4670 -2.0423
v  4.7227 179.4929 -6.0443
v  -0.7386 184.1212 -11.0458
v  1.7773 187.3509 -6.5664
v  24.4938 230.2483 16.4597
v  23.3364 229.8053 18.3890
v  21.5042 231.5368 17.6874
v  22.6615 231.9798 15.7581
v  -20.3098 203.3570 -10.6176
v  -24.2370 199.1079 -7.8718
v  -24.3565 205.7332 -7.3167
v  -22.2981 199.1922 -3.7998
v  -17.1725 203.4935 -4.0289
v  -22.4066 205.8180 -3.2981
v  -42.5301 217.2479 10.3742
v  -44.3345 216.8743 7.8218
v  -41.7006 219.5251 5.9146
v  -39.8978 219.8847 8.4436
v  -16.3499 203.5293 -8.4640
v  -5.8187 182.6807 -9.2901
v  -50.2768 239.4259 19.8054
v  -51.4106 239.5863 17.7417
v  -49.6489 241.4501 16.9186
v  -48.5151 241.2896 18.9824
v  -0.0771 239.0113 -7.4346
v  3.1436 235.5981 -10.7355
v  6.1939 234.8517 -4.1468
v  1.8188 238.5474 -3.4160
v  6.9936 234.6560 -8.5819
v  10.0487 174.1502 -21.0253
v  6.0724 187.2444 -23.8170
v  6.3732 184.3882 -45.0706
v  44.4861 205.1564 -30.2148
v  43.8877 176.0625 -26.3910
v  47.1582 202.2743 -52.8158
v  27.8795 201.2714 -17.8365
v  40.3698 185.1835 -16.9822
v  25.5736 208.3531 -40.0603
v  16.9699 195.1906 -51.8652
v  44.7488 187.7354 -52.6840
v  20.7639 162.4974 -36.6017
v  24.5329 189.5755 -11.2363
v  24.6977 172.7540 -15.6834
v  27.7744 179.3143 -52.8418
v  2.4630 240.5795 20.2472
v  12.1703 235.2805 2.1634
v  3.2604 225.0678 18.3926
v  51.8193 233.4384 4.0270
v  49.1113 239.8115 27.3846
v  43.7728 215.4707 22.0590
v  29.8205 244.2654 -3.6046
v  39.5783 251.7228 26.8808
v  29.2964 226.7033 -6.5471
v  17.5766 211.4328 18.7582
v  37.9241 224.7901 41.1435
v  7.3613 240.5392 44.3161
v  19.8644 253.5306 12.4912
v  13.7200 214.8814 35.5846
v  39.9517 241.4562 39.3589
v  -33.2538 251.2368 -11.4028
v  -28.9421 249.1735 7.0112
v  -30.9190 272.7030 -9.2702
v  22.2549 255.0357 24.7898
v  30.3827 243.1946 -5.0217
v  23.5730 277.1234 1.5555
v  -2.9339 233.5927 27.5157
v  16.4925 223.9731 -4.4353
v  -6.5238 258.3382 25.1862
v  -13.7007 281.9071 -7.6188
v  -27.4420 253.0605 18.1149
v  22.4623 265.0464 -23.7646
v  -14.9725 249.6389 -35.6559
v  -15.9418 231.3548 6.2206
v  -8.8745 245.9005 31.7289
v  -7.4754 281.3106 -25.9670
v  23.6204 234.5975 -19.5309
v  -73.1625 246.7597 16.4545
v  -65.4699 241.9793 -2.6998
v  -72.8856 231.8768 14.6375
v  -29.7277 239.9097 3.3845
v  -25.7949 246.9834 24.0867
v  -35.2828 224.2835 18.1045
v  -47.3267 249.7887 -5.1602
v  -39.5478 254.9834 22.0358
v  -48.2670 234.9490 -2.9025
v  -58.0432 220.9228 15.2458
v  -40.1700 232.2533 35.1069
v  -65.2429 245.4294 35.3799
v  -56.6840 259.1649 9.0456
v  -61.5413 223.6720 29.9691
v  -38.7480 246.8399 32.9937
v  -68.4499 165.2825 -37.7430
v  -64.0301 163.3724 -14.2569
v  -68.6884 183.9275 -34.5976
v  -27.0612 157.3151 -6.4933
v  -19.0473 155.9660 -24.5867
v  -26.1047 173.3434 -23.3536
v  -43.2240 148.9982 -0.9753
v  -29.1269 142.0175 -24.1611
v  -46.0114 168.1858 -2.0455
v  -52.9699 187.1261 -24.8734
v  -62.9416 166.1930 -6.1993
v  -24.7948 171.8232 -38.1878
v  -49.3890 165.7487 -46.2388
v  -52.6634 147.3742 -16.4285
v  -54.9624 157.3687 -44.9125
v  -23.9544 149.7273 -35.1156
v  -50.0121 160.1122 -46.3204
v  -49.4678 160.9973 3.6800
v  -33.7797 177.2379 -36.0579
# 143 vertices

vn 0.5871 -0.8090 0.0285
vn 0.9509 0.3084 0.0274
vn -0.0047 0.9994 0.0342
vn -0.9502 0.3093 0.0396
vn -0.5923 -0.8049 0.0358
vn 0.1755 0.9845 -0.0000
vn -0.7206 -0.6933 0.0000
vn -0.6325 0.3172 -0.7066
vn 0.3661 0.9306 -0.0014
vn -0.4507 -0.8925 0.0186
vn 0.6145 -0.3076 0.7264
vn 0.7063 -0.7031 0.0816
vn -0.2312 0.9698 -0.0779
vn 0.6068 0.4993 -0.6185
vn 0.7546 -0.6546 0.0463
vn -0.6415 0.7671 -0.0087
vn -0.5639 -0.4797 0.6722
vn -0.9590 0.2772 -0.0596
vn -0.5290 -0.8375 0.1371
vn 0.5984 -0.7866 0.1520
vn 0.9383 0.3392 -0.0672
vn -0.1062 0.9808 -0.1634
vn 0.5692 0.5820 -0.5807
vn 0.7344 -0.6787 -0.0101
vn -0.7211 0.6922 0.0280
vn -0.5371 -0.5667 0.6248
vn -0.3131 -0.9482 -0.0544
vn 0.7594 0.6029 0.2446
vn 0.7716 -0.4113 -0.4852
vn -0.4851 -0.8645 -0.1314
vn 0.5358 0.8288 0.1612
vn -0.7469 0.3829 0.5436
vn -0.6115 0.7893 0.0551
vn 0.1059 -0.9917 -0.0733
vn -0.4802 -0.3276 -0.8137
vn -0.5885 0.8074 0.0418
vn 0.5532 -0.8328 -0.0223
vn 0.4463 0.3127 0.8384
vn 0.6342 -0.3497 0.6896
vn 0.4864 0.7250 0.4877
vn -0.2925 0.9191 -0.2640
vn -0.6756 -0.1456 -0.7227
vn -0.1115 -0.9927 -0.0466
vn -0.7407 -0.4925 -0.4569
vn -0.6268 0.7650 0.1476
vn 0.6158 -0.7779 -0.1252
vn 0.7140 0.4787 0.5110
vn 0.7609 0.6477 0.0393
vn -0.2658 0.9613 -0.0730
vn -0.9974 0.0242 -0.0672
vn -0.3035 -0.9515 0.0511
vn 0.7583 -0.6477 0.0741
vn -0.4699 0.8149 0.3394
vn 0.1045 -0.9918 -0.0740
vn -0.7441 -0.3819 0.5482
vn 0.7915 -0.1554 -0.5911
vn 0.4325 0.8419 -0.3226
vn -0.9580 -0.0248 -0.2856
vn 0.9930 -0.1180 -0.0049
vn 0.4799 -0.7737 0.4137
vn -0.7750 0.1257 0.6193
vn 0.9857 0.0404 -0.1637
vn -0.8068 0.1227 -0.5779
vn 0.2704 -0.9314 -0.2436
vn 0.3494 -0.3587 -0.8656
vn -0.1903 0.6658 0.7215
vn -0.0305 0.9995 -0.0040
vn -0.5729 -0.3022 0.7619
vn -0.5636 -0.8260 0.0050
vn 0.2155 0.0984 0.9715
vn 0.0032 -0.3033 0.9529
vn -0.3973 0.7373 -0.5464
vn 0.5798 0.3147 -0.7515
vn -0.3760 0.9047 -0.2002
vn -0.7410 0.0997 0.6641
vn -0.3527 -0.9038 -0.2424
vn -0.2501 -0.4638 -0.8499
vn 0.4805 -0.6964 -0.5331
vn 0.9438 -0.3297 0.0239
vn -0.0158 0.9986 0.0506
vn 0.3632 0.5899 -0.7211
vn 0.4047 -0.8411 0.3589
vn -0.5229 -0.6696 0.5275
vn -0.8796 0.4756 0.0116
vn 0.9523 -0.1780 -0.2478
vn 0.5090 0.3548 0.7842
vn -0.5807 0.6006 -0.5496
vn 0.8713 -0.4034 -0.2794
vn -0.9773 -0.1988 -0.0740
vn -0.1498 -0.3227 0.9346
vn 0.1907 0.4409 -0.8770
vn 0.0790 -0.4569 -0.8860
vn -0.6478 0.5128 0.5633
vn 0.4586 0.5161 -0.7234
vn -0.8802 -0.3381 -0.3332
vn 0.1474 -0.9852 0.0876
vn -0.6895 0.0096 -0.7242
vn -0.5208 0.6408 -0.5640
vn -0.5595 -0.1152 0.8208
vn 0.0745 -0.6323 0.7712
vn 0.7799 0.0790 0.6209
vn 0.3143 -0.2592 -0.9132
vn -0.0769 -0.9379 -0.3382
vn 0.3151 0.3195 0.8937
vn -0.5037 0.6434 0.5765
vn 0.7918 -0.6100 -0.0310
vn 0.6885 -0.4484 0.5700
vn -0.3808 0.9100 0.1638
vn 0.3858 0.9117 0.1412
vn -0.9683 -0.2359 0.0819
vn 0.9670 -0.2021 0.1549
vn 0.5798 -0.5370 -0.6128
vn -0.3796 -0.5931 0.7100
vn 0.9637 0.1482 0.2222
vn -0.7855 0.6016 0.1452
vn -0.3232 0.3849 -0.8645
vn -0.0414 -0.5889 0.8071
vn 0.2179 0.4279 0.8772
vn -0.6999 -0.5008 -0.5093
vn -0.7993 -0.1212 -0.5886
vn 0.0920 -0.6888 0.7191
vn 0.2673 -0.9439 -0.1941
vn -0.6253 0.6925 0.3599
vn 0.3439 0.9318 -0.1165
vn -0.4501 0.1811 0.8744
vn -0.4314 -0.5613 0.7063
vn -0.5310 0.3494 -0.7720
vn -0.0641 0.5944 -0.8016
vn 0.7446 -0.4117 -0.5255
vn 0.4660 -0.1296 0.8753
vn 0.2016 0.9490 0.2426
vn -0.1557 -0.1968 -0.9680
vn -0.6976 -0.4818 -0.5303
vn -0.9913 -0.1313 0.0076
vn -0.5456 -0.3416 -0.7653
vn 0.9112 0.4113 -0.0225
vn 0.8097 0.0301 -0.5860
vn -0.3874 -0.7837 0.4855
vn 0.0644 -0.8881 0.4550
vn -0.9250 0.3788 0.0290
vn 0.9260 0.0480 -0.3744
vn 0.5752 0.3092 0.7573
vn -0.2851 0.6775 -0.6780
vn 0.7853 -0.4331 -0.4424
vn -0.9222 -0.3814 -0.0637
vn -0.1088 -0.4317 0.8954
vn 0.1888 0.5348 -0.8236
vn 0.0766 -0.4412 -0.8942
vn -0.6587 0.4203 0.6240
vn 0.3900 0.5970 -0.7010
vn -0.8375 -0.4796 -0.2618
vn 0.0817 -0.9875 0.1351
vn -0.5940 -0.0091 -0.8044
vn -0.4656 0.5857 -0.6634
vn -0.5000 -0.2672 0.8238
vn 0.0109 -0.5959 0.8030
vn 0.5083 0.3633 0.7807
vn 0.3099 -0.2452 -0.9186
vn -0.1260 -0.9575 -0.2595
vn 0.4261 0.2858 0.8583
vn -0.3686 0.6689 0.6456
vn 0.5650 -0.8226 0.0641
vn 0.3621 -0.5388 0.7606
vn -0.0711 0.9868 -0.1456
vn 0.3556 0.9204 -0.1626
vn -0.9825 -0.1814 -0.0432
vn 0.8724 -0.3619 0.3286
vn 0.5244 -0.5215 -0.6731
vn -0.2458 -0.6622 0.7078
vn 0.9267 -0.0436 0.3733
vn -0.4057 0.9021 0.1470
vn -0.3028 0.2937 -0.9067
vn 0.3850 0.9224 -0.0292
vn 0.3644 -0.5263 0.7682
vn 0.4581 0.0505 0.8874
vn -0.6851 -0.4841 -0.5443
vn -0.8041 -0.1037 -0.5854
vn 0.4965 -0.6127 0.6149
vn 0.3880 -0.9092 -0.1508
vn 0.0810 0.7981 0.5971
vn 0.3350 0.9349 -0.1172
vn 0.1415 0.5082 0.8495
vn -0.4728 -0.5336 0.7012
vn -0.5800 0.2276 -0.7822
vn -0.4076 0.9113 0.0582
vn -0.0170 0.5808 -0.8138
vn 0.7567 -0.3751 -0.5354
vn 0.5405 -0.2061 0.8157
vn 0.1348 0.8254 0.5483
vn -0.6850 -0.4763 -0.5513
vn -0.9853 -0.1569 -0.0680
vn 0.1044 0.7957 -0.5966
vn -0.3676 0.9089 0.1969
vn -0.2499 -0.6953 0.6739
vn 0.4311 -0.7953 0.4262
# 195 vertex normals

vt 0.6078 0.1310 0.0000
vt 0.6119 0.1312 0.0000
vt 0.6088 0.1715 0.0000
vt 0.6067 0.1714 0.0000
vt 0.5913 0.1324 0.0000
vt 0.5954 0.1317 0.0000
vt 0.6003 0.1721 0.0000
vt 0.5981 0.1723 0.0000
vt 0.5995 0.1312 0.0000
vt 0.6023 0.1709 0.0000
vt 0.6036 0.1310 0.0000
vt 0.6045 0.1706 0.0000
vt 0.6026 0.1729 0.0000
vt 0.6047 0.1725 0.0000
vt 0.5912 0.1791 0.0000
vt 0.5933 0.1789 0.0000
vt 0.5952 0.1965 0.0000
vt 0.5945 0.1966 0.0000
vt 0.5902 0.1806 0.0000
vt 0.5937 0.1969 0.0000
vt 0.5947 0.1800 0.0000
vt 0.5960 0.1965 0.0000
vt 0.5967 0.1798 0.0000
vt 0.5967 0.1965 0.0000
vt 0.6072 0.1791 0.0000
vt 0.6094 0.1776 0.0000
vt 0.6092 0.1801 0.0000
vt 0.6014 0.1782 0.0000
vt 0.6037 0.1796 0.0000
vt 0.6017 0.1807 0.0000
vt 0.5161 0.3052 0.0000
vt 0.5170 0.3130 0.0000
vt 0.5160 0.3129 0.0000
vt 0.5143 0.3052 0.0000
vt 0.5198 0.3071 0.0000
vt 0.5219 0.3052 0.0000
vt 0.5206 0.3129 0.0000
vt 0.5193 0.3130 0.0000
vt 0.5180 0.3073 0.0000
vt 0.5183 0.3132 0.0000
vt 0.6054 0.1793 0.0000
vt 0.5995 0.1782 0.0000
vt 0.5172 0.3216 0.0000
vt 0.5165 0.3215 0.0000
vt 0.5196 0.3216 0.0000
vt 0.5188 0.3218 0.0000
vt 0.5180 0.3219 0.0000
vt 0.6061 0.1901 0.0000
vt 0.6078 0.1886 0.0000
vt 0.6075 0.1904 0.0000
vt 0.6093 0.1882 0.0000
vt 0.6101 0.1900 0.0000
vt 0.6087 0.1900 0.0000
vt 0.5146 0.1720 0.0000
vt 0.5163 0.1719 0.0000
vt 0.5177 0.1902 0.0000
vt 0.5170 0.1902 0.0000
vt 0.5201 0.1735 0.0000
vt 0.5223 0.1720 0.0000
vt 0.5200 0.1902 0.0000
vt 0.5192 0.1903 0.0000
vt 0.5184 0.1735 0.0000
vt 0.5185 0.1903 0.0000
vt 0.6038 0.1963 0.0000
vt 0.6053 0.1962 0.0000
vt 0.6044 0.1974 0.0000
vt 0.6063 0.1959 0.0000
vt 0.6078 0.1956 0.0000
vt 0.6076 0.1968 0.0000
vt 0.6077 0.2028 0.0000
vt 0.6070 0.2028 0.0000
vt 0.6061 0.2030 0.0000
vt 0.6086 0.2026 0.0000
vt 0.6086 0.1965 0.0000
vt 0.6093 0.2024 0.0000
vt 0.6088 0.1955 0.0000
vt 0.6096 0.1962 0.0000
vt 0.6032 0.1903 0.0000
vt 0.6045 0.1903 0.0000
vt 0.6088 0.2085 0.0000
vt 0.6082 0.2085 0.0000
vt 0.6077 0.2088 0.0000
vt 0.6094 0.2085 0.0000
vt 0.6099 0.2084 0.0000
vt 0.6001 0.1808 0.0000
vt 0.6012 0.1891 0.0000
vt 0.6093 0.1888 0.0000
vt 0.3802 0.1547 0.0000
vt 0.3784 0.1549 0.0000
vt 0.3782 0.1421 0.0000
vt 0.3800 0.1423 0.0000
vt 0.3770 0.1545 0.0000
vt 0.3753 0.1542 0.0000
vt 0.3750 0.1420 0.0000
vt 0.3768 0.1419 0.0000
vt 0.3827 0.1541 0.0000
vt 0.3813 0.1539 0.0000
vt 0.3813 0.1418 0.0000
vt 0.3827 0.1419 0.0000
vt 0.9914 0.7803 0.0000
vt 0.9882 0.7821 0.0000
vt 0.9854 0.7750 0.0000
vt 0.9746 0.7825 0.0000
vt 0.9651 0.7801 0.0000
vt 0.9748 0.7772 0.0000
vt 0.9782 0.7878 0.0000
vt 0.9688 0.7843 0.0000
vt 0.9800 0.7807 0.0000
vt 0.9825 0.7757 0.0000
vt 0.9737 0.7741 0.0000
vt 0.9913 0.7715 0.0000
vt 0.9689 0.7891 0.0000
vt 0.9611 0.7831 0.0000
vt 0.9631 0.7707 0.0000
vt 0.9881 0.7883 0.0000
vt 0.9782 0.7706 0.0000
vt 0.9948 0.7820 0.0000
vt 0.5116 0.8461 0.0000
vt 0.5120 0.8550 0.0000
vt 0.5078 0.8475 0.0000
vt 0.5255 0.8539 0.0000
vt 0.5228 0.8450 0.0000
vt 0.5271 0.8457 0.0000
vt 0.5199 0.8586 0.0000
vt 0.5200 0.8454 0.0000
vt 0.5120 0.8627 0.0000
vt 0.5014 0.8524 0.0000
vt 0.5315 0.8391 0.0000
vt 0.5166 0.8355 0.0000
vt 0.5158 0.8498 0.0000
vt 0.5315 0.8461 0.0000
vt 0.5317 0.8579 0.0000
vt 0.5023 0.8424 0.0000
vt 0.5241 0.8408 0.0000
vt 0.5310 0.8397 0.0000
vt 0.5310 0.8213 0.0000
vt 0.5301 0.8269 0.0000
vt 0.5267 0.8210 0.0000
vt 0.5113 0.8205 0.0000
vt 0.5088 0.8094 0.0000
vt 0.5158 0.8145 0.0000
vt 0.5033 0.8259 0.0000
vt 0.5014 0.8110 0.0000
vt 0.5176 0.8298 0.0000
vt 0.5218 0.8188 0.0000
vt 0.5267 0.8306 0.0000
vt 0.5196 0.8050 0.0000
vt 0.5313 0.8126 0.0000
vt 0.5374 0.8254 0.0000
vt 0.5451 0.8157 0.0000
vt 0.5281 0.8361 0.0000
vt 0.5391 0.8329 0.0000
vt 0.5095 0.8304 0.0000
vt 0.5238 0.8137 0.0000
vt 0.5372 0.8044 0.0000
vt 0.5070 0.8045 0.0000
vt 0.5084 0.9832 0.0000
vt 0.5074 0.9903 0.0000
vt 0.5048 0.9836 0.0000
vt 0.5212 0.9922 0.0000
vt 0.5198 0.9860 0.0000
vt 0.5253 0.9855 0.0000
vt 0.5139 0.9949 0.0000
vt 0.5155 0.9859 0.0000
vt 0.5053 0.9949 0.0000
vt 0.4992 0.9854 0.0000
vt 0.5213 0.9805 0.0000
vt 0.5117 0.9767 0.0000
vt 0.5119 0.9879 0.0000
vt 0.5308 0.9828 0.0000
vt 0.5249 0.9950 0.0000
vt 0.5016 0.9782 0.0000
vt 0.5178 0.9822 0.0000
vt 0.5240 0.9754 0.0000
vt 0.4823 0.9914 0.0000
vt 0.4886 0.9942 0.0000
vt 0.4772 0.9939 0.0000
vt 0.4651 0.9795 0.0000
vt 0.4673 0.9743 0.0000
vt 0.4720 0.9793 0.0000
vt 0.4618 0.9845 0.0000
vt 0.4592 0.9758 0.0000
vt 0.4664 0.9863 0.0000
vt 0.4744 0.9890 0.0000
vt 0.4656 0.9919 0.0000
vt 0.4756 0.9774 0.0000
vt 0.4804 0.9851 0.0000
vt 0.4918 0.9863 0.0000
vt 0.4825 0.9860 0.0000
vt 0.4887 0.9761 0.0000
vt 0.4836 0.9754 0.0000
vt 0.4815 0.9848 0.0000
vt 0.4644 0.9867 0.0000
vt 0.4642 0.9937 0.0000
vt 0.4756 0.9813 0.0000
vt 0.4578 0.9867 0.0000
vt 0.4827 0.9719 0.0000
# 197 texture coords

g Forest_C_Tree_09
usemtl ForestPack_Trees
s off
f 1/1/1 2/2/1 3/3/1 4/4/1 
f 2/5/2 5/6/2 6/7/2 3/8/2 
f 5/6/3 7/9/3 8/10/3 6/7/3 
f 7/9/4 9/11/4 10/12/4 8/10/4 
f 9/11/5 1/1/5 4/4/5 10/12/5 
f 6/7/6 8/10/6 11/13/6 
f 10/12/7 4/4/7 12/14/7 
f 8/15/8 10/16/8 13/17/8 14/18/8 
f 11/19/9 8/15/9 14/18/9 15/20/9 
f 10/16/10 12/21/10 16/22/10 13/17/10 
f 12/21/11 11/23/11 15/24/11 16/22/11 
f 17/25/12 18/26/12 19/27/12 
f 20/28/13 21/29/13 22/30/13 
f 20/31/14 23/32/14 24/33/14 18/34/14 
f 19/35/15 18/36/15 24/37/15 25/38/15 
f 22/39/16 26/40/16 23/32/16 20/31/16 
f 22/39/17 19/35/17 25/38/17 26/40/17 
f 11/13/18 12/14/18 27/41/18 21/29/18 
f 12/14/19 4/4/19 17/25/19 27/41/19 
f 4/4/20 3/3/20 18/26/20 17/25/20 
f 3/8/21 6/7/21 20/28/21 18/42/21 
f 6/7/22 11/13/22 21/29/22 20/28/22 
f 23/32/23 28/43/23 29/44/23 24/33/23 
f 29/45/24 30/46/24 25/38/24 24/37/24 
f 26/40/25 31/47/25 28/43/25 23/32/25 
f 30/46/26 31/47/26 26/40/26 25/38/26 
f 32/48/27 33/49/27 34/50/27 
f 35/51/28 36/52/28 37/53/28 
f 33/54/29 35/55/29 38/56/29 39/57/29 
f 34/58/30 33/59/30 39/60/30 40/61/30 
f 35/55/31 37/62/31 41/63/31 38/56/31 
f 37/62/32 34/58/32 40/61/32 41/63/32 
f 42/64/33 43/65/33 44/66/33 
f 45/67/34 46/68/34 47/69/34 
f 45/67/35 48/70/35 49/71/35 43/65/35 
f 44/66/36 43/65/36 49/71/36 50/72/36 
f 47/69/37 51/73/37 48/70/37 45/67/37 
f 47/69/38 44/74/38 50/75/38 51/73/38 
f 34/50/39 37/53/39 52/76/39 46/68/39 
f 37/53/40 36/52/40 42/77/40 52/76/40 
f 36/78/41 53/79/41 43/65/41 42/64/41 
f 53/79/42 32/48/42 45/67/42 43/65/42 
f 32/48/43 34/50/43 46/68/43 45/67/43 
f 48/70/44 54/80/44 55/81/44 49/71/44 
f 55/81/45 56/82/45 50/72/45 49/71/45 
f 51/73/46 57/83/46 54/80/46 48/70/46 
f 56/84/47 57/83/47 51/73/47 50/75/47 
f 19/85/48 22/30/48 36/78/48 35/86/48 
f 22/30/49 21/29/49 53/79/49 36/78/49 
f 21/29/50 27/41/50 32/48/50 53/79/50 
f 27/41/51 17/25/51 33/49/51 32/48/51 
f 17/25/52 19/27/52 35/87/52 33/49/52 
f 42/88/53 44/89/53 58/90/53 59/91/53 
f 47/92/54 46/93/54 60/94/54 61/95/54 
f 44/89/55 47/92/55 61/95/55 58/90/55 
f 46/96/56 52/97/56 62/98/56 60/99/56 
f 52/97/57 42/88/57 59/91/57 62/98/57 
f 63/100/58 64/101/58 65/102/58 
f 66/103/59 67/104/59 68/105/59 
f 66/103/60 69/106/60 70/107/60 
f 71/108/61 72/109/61 64/101/61 
f 73/110/62 68/105/62 67/104/62 
f 74/111/63 63/100/63 65/102/63 
f 75/112/64 76/113/64 70/107/64 
f 67/104/65 76/113/65 74/114/65 
f 68/105/66 72/109/66 71/108/66 
f 73/110/67 72/109/67 68/105/67 
f 71/108/68 64/101/68 69/106/68 
f 64/101/69 63/100/69 75/115/69 
f 68/105/70 71/108/70 66/103/70 
f 71/108/71 69/106/71 66/103/71 
f 77/116/72 74/111/72 65/102/72 
f 74/114/73 73/110/73 67/104/73 
f 65/102/74 72/109/74 77/116/74 
f 64/101/75 72/109/75 65/102/75 
f 76/117/76 75/115/76 63/100/76 
f 74/111/77 76/117/77 63/100/77 
f 70/107/78 76/113/78 67/104/78 
f 66/103/79 70/107/79 67/104/79 
f 77/116/80 72/109/80 73/110/80 
f 74/114/81 77/116/81 73/110/81 
f 70/107/82 69/106/82 75/112/82 
f 64/101/83 75/115/83 69/106/83 
f 78/118/84 79/119/84 80/120/84 
f 81/121/85 82/122/85 83/123/85 
f 81/121/86 84/124/86 85/125/86 
f 86/126/87 87/127/87 79/119/87 
f 88/128/88 83/123/88 82/122/88 
f 89/129/89 78/118/89 80/120/89 
f 90/130/90 89/129/90 85/125/90 
f 83/123/91 87/131/91 86/132/91 
f 88/128/92 87/131/92 83/123/92 
f 79/119/93 78/118/93 90/130/93 
f 83/123/94 86/132/94 81/121/94 
f 91/133/95 89/129/95 80/120/95 
f 89/129/96 88/128/96 92/134/96 
f 80/120/97 87/127/97 91/133/97 
f 79/119/98 87/127/98 80/120/98 
f 89/129/99 90/130/99 78/118/99 
f 85/125/100 89/129/100 92/134/100 
f 81/121/101 85/125/101 82/122/101 
f 91/135/102 87/131/102 88/128/102 
f 89/129/103 91/135/103 88/128/103 
f 85/125/104 84/124/104 90/130/104 
f 79/119/105 90/130/105 84/124/105 
f 88/128/106 82/122/106 92/134/106 
f 85/125/107 92/134/107 82/122/107 
f 84/124/108 86/126/108 79/119/108 
f 84/124/109 81/121/109 86/132/109 
f 93/136/110 94/137/110 95/138/110 
f 96/139/111 97/140/111 98/141/111 
f 96/139/112 99/142/112 100/143/112 
f 101/144/113 102/145/113 103/146/113 
f 104/147/114 98/141/114 97/140/114 
f 105/148/115 93/136/115 95/138/115 
f 106/149/116 105/148/116 100/150/116 
f 98/141/117 102/145/117 101/144/117 
f 104/147/118 102/145/118 98/141/118 
f 107/151/119 94/137/119 99/152/119 
f 94/137/120 93/136/120 106/149/120 
f 98/141/121 101/144/121 96/139/121 
f 107/153/122 99/142/122 96/139/122 
f 108/154/123 105/148/123 95/138/123 
f 105/148/124 104/147/124 109/155/124 
f 95/138/125 102/145/125 108/154/125 
f 103/146/126 102/145/126 95/138/126 
f 105/148/127 106/149/127 93/136/127 
f 100/150/128 105/148/128 109/155/128 
f 96/139/129 100/143/129 97/140/129 
f 108/154/130 102/145/130 104/147/130 
f 105/148/131 108/154/131 104/147/131 
f 100/150/132 99/152/132 106/149/132 
f 94/137/133 106/149/133 99/152/133 
f 103/146/134 95/138/134 94/137/134 
f 107/151/135 103/146/135 94/137/135 
f 104/147/136 97/140/136 109/156/136 
f 100/143/137 109/156/137 97/140/137 
f 107/151/138 101/144/138 103/146/138 
f 107/153/139 96/139/139 101/144/139 
f 110/157/140 111/158/140 112/159/140 
f 113/160/141 114/161/141 115/162/141 
f 113/160/142 116/163/142 117/164/142 
f 118/165/143 119/166/143 111/158/143 
f 120/167/144 115/162/144 114/161/144 
f 121/168/145 110/157/145 112/159/145 
f 122/169/146 121/168/146 117/164/146 
f 115/162/147 119/170/147 118/171/147 
f 120/167/148 119/170/148 115/162/148 
f 111/158/149 110/157/149 122/169/149 
f 115/162/150 118/171/150 113/160/150 
f 123/172/151 121/168/151 112/159/151 
f 121/168/152 120/167/152 124/173/152 
f 112/159/153 119/166/153 123/172/153 
f 111/158/154 119/166/154 112/159/154 
f 121/168/155 122/169/155 110/157/155 
f 117/164/156 121/168/156 124/173/156 
f 113/160/157 117/164/157 114/161/157 
f 123/174/158 119/170/158 120/167/158 
f 121/168/159 123/174/159 120/167/159 
f 117/164/160 116/163/160 122/169/160 
f 111/158/161 122/169/161 116/163/161 
f 120/167/162 114/161/162 124/173/162 
f 117/164/163 124/173/163 114/161/163 
f 116/163/164 118/165/164 111/158/164 
f 116/163/165 113/160/165 118/171/165 
f 125/175/166 126/176/166 127/177/166 
f 128/178/167 129/179/167 130/180/167 
f 128/178/168 131/181/168 132/182/168 
f 133/183/169 134/184/169 135/185/169 
f 136/186/170 130/180/170 129/179/170 
f 137/187/171 125/175/171 127/177/171 
f 138/188/172 139/189/172 132/190/172 
f 140/191/173 141/192/173 137/187/173 
f 130/180/174 134/184/174 133/183/174 
f 136/186/175 134/184/175 130/180/175 
f 142/193/176 126/194/176 131/181/176 
f 126/176/177 125/175/177 138/188/177 
f 130/180/178 133/183/178 128/178/178 
f 142/193/179 131/181/179 128/178/179 
f 143/195/180 137/187/180 127/177/180 
f 137/187/181 136/186/181 140/191/181 
f 127/177/182 134/184/182 143/195/182 
f 135/185/183 134/184/183 127/177/183 
f 139/189/184 138/188/184 125/175/184 
f 137/187/185 141/192/185 125/175/185 
f 132/190/186 139/189/186 140/191/186 
f 128/178/187 132/182/187 129/179/187 
f 143/195/188 134/184/188 136/186/188 
f 137/187/189 143/195/189 136/186/189 
f 132/182/132 131/181/132 138/196/132 
f 126/194/190 138/196/190 131/181/190 
f 135/185/191 127/177/191 126/194/191 
f 142/193/135 135/185/135 126/194/135 
f 136/186/136 129/197/136 140/191/136 
f 132/190/137 140/191/137 129/197/137 
f 141/192/192 140/191/192 139/189/192 
f 125/175/193 141/192/193 139/189/193 
f 142/193/194 133/183/194 135/185/194 
f 142/193/195 128/178/195 133/183/195 
# 49 polygons - 150 triangles

