# 3ds Max Wavefront OBJ Exporter v0.97b - (c)2007 guruware
# File Created: 20.05.2016 21:20:25

mtllib Forest_A_FirTree_23.mtl

#
# object Forest_A_FirTree_23
#

v  -2.6277 281.7728 -2.0065
v  23.2313 205.4708 -5.4121
v  23.3265 204.0437 -10.6066
v  21.1692 207.6851 -15.9875
v  17.1397 205.5963 -19.2479
v  11.3838 204.9908 -23.2191
v  5.4024 208.5457 -20.5167
v  -0.0678 208.6582 -28.2123
v  -8.0223 205.2243 -27.4458
v  -12.7107 206.1714 -20.2558
v  -20.7336 203.2090 -20.6338
v  -25.4175 202.7592 -16.3418
v  -27.8647 204.7832 -10.9800
v  -30.5006 204.5237 -5.7283
v  -29.1545 203.4036 5.7573
v  -22.1318 208.8139 8.3090
v  -23.0929 204.7616 17.8171
v  -16.0145 204.3594 22.1035
v  -6.6253 203.3041 18.1559
v  -1.5504 203.9572 23.5828
v  6.7258 204.6189 24.7379
v  17.3217 201.8294 20.7594
v  22.0034 204.0393 14.1476
v  23.9591 210.5611 4.6120
v  18.2104 212.8965 -0.8340
v  -1.8620 212.3732 -2.5851
v  -4.0535 271.7134 -2.3538
v  56.3696 73.5004 7.7838
v  52.6615 74.2616 -20.2304
v  33.7152 82.2018 -19.1996
v  40.2893 81.7218 -31.7392
v  20.6895 86.3061 -52.4838
v  3.5552 88.7841 -44.5365
v  -4.9259 86.7039 -53.0122
v  -26.3640 83.0755 -46.6251
v  -28.5615 83.3436 -33.4679
v  -42.3914 77.4532 -32.9810
v  -48.5728 73.4615 -22.8972
v  -45.4122 72.1467 -8.3712
v  -56.3696 72.9685 0.2741
v  -52.6195 71.8959 20.3403
v  -39.5049 70.1055 25.0741
v  -39.4004 67.1170 35.0368
v  -29.3737 68.8123 42.7088
v  -16.3805 71.1693 39.3141
v  -12.6451 63.3502 53.0122
v  15.2407 65.0282 51.4034
v  19.5394 72.5576 35.3612
v  37.5600 67.4111 36.8550
v  47.5234 67.3722 27.0857
v  41.9223 70.3563 12.7663
v  -8.5028 81.1120 0.6179
v  1.6791 0.0000 -9.2316
v  -0.6221 89.8956 -5.0792
v  2.2620 89.3593 -0.9830
v  8.6981 0.0001 0.4741
v  -9.4457 0.0000 -6.8815
v  -5.6088 89.6880 -3.6135
v  -8.5220 0.0001 4.7442
v  -5.6532 89.0523 1.6676
v  2.4846 0.0001 9.4124
v  -0.6539 88.8577 3.1598
# 62 vertices

vn 0.9437 0.0715 0.3230
vn 0.9324 0.1518 0.3281
vn 0.4946 0.8112 0.3120
vn 0.5165 0.7965 0.3143
vn -0.3006 0.9320 0.2026
vn 0.7950 0.5617 0.2292
vn -0.2274 0.9192 0.3215
vn -0.7985 0.5522 0.2398
vn -0.0429 0.9699 0.2398
vn -0.6577 0.6848 0.3139
vn -0.8092 0.4911 0.3225
vn -0.8510 0.4110 0.3269
vn -0.9333 -0.1416 0.3299
vn -0.4950 -0.8322 0.2500
vn -0.9655 -0.0132 0.2600
vn -0.4739 -0.8141 0.3355
vn 0.3989 -0.8928 0.2091
vn -0.7270 -0.6552 0.2054
vn -0.1556 -0.9390 0.3066
vn 0.4080 -0.8462 0.3428
vn 0.7047 -0.6164 0.3514
vn 0.8400 -0.4130 0.3520
vn 0.7157 0.6675 0.2052
vn 0.8318 -0.4905 0.2600
vn -0.2298 -0.2539 -0.9395
vn -0.3998 0.3983 -0.8255
vn 0.0871 -0.4589 -0.8842
vn -0.0938 -0.2815 -0.9550
vn -0.5202 0.0286 -0.8536
vn -0.1986 -0.1270 -0.9718
vn 0.4042 -0.1589 -0.9008
vn 0.1659 -0.2343 -0.9579
vn 0.3390 -0.1194 -0.9332
vn 0.2702 -0.1961 -0.9426
vn 0.1342 -0.4030 -0.9053
vn 0.2553 -0.0805 -0.9635
vn 0.2750 0.1252 -0.9533
vn 0.4048 -0.5039 -0.7631
vn -0.0518 0.3960 -0.9168
vn 0.0998 0.2550 -0.9618
vn -0.2801 0.4379 -0.8543
vn 0.4141 0.2832 -0.8651
vn 0.1182 0.3053 -0.9449
vn -0.3096 0.1683 -0.9359
vn -0.0714 0.3613 -0.9297
vn 0.0946 0.5487 -0.8306
vn 0.0624 0.4482 -0.8917
vn -0.0582 -0.8317 -0.5521
vn 0.9515 0.1182 0.2840
vn -0.0186 0.9962 0.0848
vn 0.8797 -0.4560 0.1348
vn 0.7292 0.6298 0.2676
vn -0.3901 0.9007 0.1915
vn 0.6694 0.7173 0.1932
vn -0.3152 0.9149 0.2520
vn -0.9740 0.1658 0.1541
vn -0.1093 0.9783 0.1758
vn -0.8671 0.4365 0.2399
vn -0.9554 -0.2252 0.1912
vn -0.6056 0.7817 0.1491
vn -0.9487 -0.1908 0.2522
vn -0.3118 -0.9326 0.1817
vn -0.9813 -0.0647 0.1814
vn -0.6150 -0.7500 0.2433
vn 0.2167 -0.9584 0.1858
vn -0.9366 -0.3271 0.1255
vn 0.0404 -0.9661 0.2550
vn 0.9282 -0.3296 0.1724
vn -0.0293 -0.9827 0.1826
vn 0.6748 -0.6871 0.2693
vn 0.9274 0.3237 0.1874
vn 0.2958 -0.9452 0.1385
vn -0.1152 0.0117 -0.9933
vn -0.3096 0.6953 -0.6486
vn 0.0578 -0.0685 -0.9960
vn -0.0813 0.1412 -0.9866
vn -0.2408 0.2247 -0.9442
vn 0.3104 0.0781 -0.9474
vn 0.1390 0.0935 -0.9859
vn -0.1129 -0.0014 -0.9936
vn 0.3685 0.2750 -0.8880
vn 0.2917 0.1921 -0.9370
vn 0.2666 0.1443 -0.9529
vn 0.1585 -0.2905 -0.9437
vn 0.1677 0.0838 -0.9823
vn 0.0164 0.3930 -0.9194
vn 0.1117 0.2866 -0.9515
vn 0.2709 0.1438 -0.9518
vn 0.1168 0.2248 -0.9674
vn -0.5231 0.3104 -0.7937
vn 0.0387 0.3181 -0.9473
vn 0.1883 0.3755 -0.9075
vn -0.2733 0.0162 -0.9618
vn -0.1623 0.1617 -0.9734
vn -0.1756 0.1345 -0.9752
vn -0.0290 0.5923 -0.8052
vn 0.8124 0.5811 0.0483
vn -0.2308 0.9721 0.0421
vn -0.9979 -0.0533 0.0374
vn -0.3583 -0.9324 0.0483
vn 0.8169 -0.5727 0.0687
# 101 vertex normals

vt 0.9097 0.3953 0.0000
vt 0.8906 0.3897 0.0000
vt 0.8919 0.3853 0.0000
vt 0.8954 0.3820 0.0000
vt 0.8987 0.3787 0.0000
vt 0.9032 0.3764 0.0000
vt 0.9080 0.3766 0.0000
vt 0.9137 0.3765 0.0000
vt 0.9189 0.3776 0.0000
vt 0.9229 0.3811 0.0000
vt 0.9271 0.3844 0.0000
vt 0.9293 0.3886 0.0000
vt 0.9298 0.3934 0.0000
vt 0.9298 0.3981 0.0000
vt 0.9282 0.4041 0.0000
vt 0.9241 0.4072 0.0000
vt 0.9211 0.4120 0.0000
vt 0.9163 0.4144 0.0000
vt 0.9105 0.4152 0.0000
vt 0.9054 0.4150 0.0000
vt 0.9003 0.4132 0.0000
vt 0.8949 0.4102 0.0000
vt 0.8921 0.4057 0.0000
vt 0.8915 0.3997 0.0000
vt 0.8921 0.3946 0.0000
vt 0.6299 0.3976 0.0000
vt 0.6302 0.3997 0.0000
vt 0.6199 0.4035 0.0000
vt 0.6281 0.3956 0.0000
vt 0.6262 0.3945 0.0000
vt 0.6236 0.3934 0.0000
vt 0.6212 0.3953 0.0000
vt 0.6184 0.3928 0.0000
vt 0.6150 0.3936 0.0000
vt 0.6138 0.3969 0.0000
vt 0.6103 0.3971 0.0000
vt 0.6087 0.3991 0.0000
vt 0.6083 0.4015 0.0000
vt 0.6075 0.4037 0.0000
vt 0.6084 0.4083 0.0000
vt 0.6121 0.4092 0.0000
vt 0.6121 0.4135 0.0000
vt 0.6151 0.4149 0.0000
vt 0.6189 0.4131 0.0000
vt 0.6213 0.4149 0.0000
vt 0.6247 0.4149 0.0000
vt 0.6291 0.4132 0.0000
vt 0.6307 0.4102 0.0000
vt 0.6310 0.4055 0.0000
vt 0.6284 0.4034 0.0000
vt 0.9068 0.3960 0.0000
vt 0.9370 0.4323 0.0000
vt 0.9237 0.4397 0.0000
vt 0.9108 0.4397 0.0000
vt 0.8989 0.4398 0.0000
vt 0.8846 0.4336 0.0000
vt 0.8753 0.4243 0.0000
vt 0.8681 0.4153 0.0000
vt 0.8631 0.4022 0.0000
vt 0.8635 0.3906 0.0000
vt 0.8645 0.3789 0.0000
vt 0.8690 0.3687 0.0000
vt 0.8770 0.3602 0.0000
vt 0.8863 0.3537 0.0000
vt 0.8983 0.3494 0.0000
vt 0.9094 0.3486 0.0000
vt 0.9194 0.3491 0.0000
vt 0.9292 0.3534 0.0000
vt 0.9376 0.3603 0.0000
vt 0.9466 0.3664 0.0000
vt 0.9531 0.3793 0.0000
vt 0.9533 0.3910 0.0000
vt 0.9549 0.4030 0.0000
vt 0.9521 0.4140 0.0000
vt 0.9452 0.4235 0.0000
vt 0.6076 0.4305 0.0000
vt 0.5983 0.4237 0.0000
vt 0.6191 0.4062 0.0000
vt 0.6138 0.4247 0.0000
vt 0.6158 0.4301 0.0000
vt 0.6276 0.4298 0.0000
vt 0.6300 0.4224 0.0000
vt 0.6349 0.4219 0.0000
vt 0.6386 0.4134 0.0000
vt 0.6351 0.4093 0.0000
vt 0.6387 0.4043 0.0000
vt 0.6373 0.3995 0.0000
vt 0.6320 0.3966 0.0000
vt 0.6320 0.3909 0.0000
vt 0.6248 0.3867 0.0000
vt 0.6197 0.3893 0.0000
vt 0.6167 0.3864 0.0000
vt 0.6117 0.3875 0.0000
vt 0.6092 0.3925 0.0000
vt 0.6033 0.3895 0.0000
vt 0.5962 0.3985 0.0000
vt 0.6003 0.4047 0.0000
vt 0.5944 0.4097 0.0000
vt 0.5945 0.4153 0.0000
vt 0.6004 0.4176 0.0000
vt 0.0299 0.0089 0.0000
vt 0.0318 0.0456 0.0000
vt 0.0297 0.0456 0.0000
vt 0.0251 0.0092 0.0000
vt 0.0346 0.0088 0.0000
vt 0.0339 0.0455 0.0000
vt 0.0394 0.0091 0.0000
vt 0.0361 0.0454 0.0000
vt 0.0442 0.0096 0.0000
vt 0.0382 0.0455 0.0000
vt 0.0277 0.0457 0.0000
vt 0.0207 0.0099 0.0000
# 112 texture coords

g Forest_A_FirTree_23
usemtl ForestPack_Trees
s off
f 1/1/1 2/2/1 3/3/1 
f 1/1/2 3/3/2 4/4/2 
f 1/1/3 4/4/3 5/5/3 
f 1/1/4 5/5/4 6/6/4 
f 1/1/5 6/6/5 7/7/5 
f 1/1/6 7/7/6 8/8/6 
f 1/1/7 8/8/7 9/9/7 
f 1/1/8 9/9/8 10/10/8 
f 1/1/9 10/10/9 11/11/9 
f 1/1/10 11/11/10 12/12/10 
f 1/1/11 12/12/11 13/13/11 
f 1/1/12 13/13/12 14/14/12 
f 1/1/13 14/14/13 15/15/13 
f 1/1/14 15/15/14 16/16/14 
f 1/1/15 16/16/15 17/17/15 
f 1/1/16 17/17/16 18/18/16 
f 1/1/17 18/18/17 19/19/17 
f 1/1/18 19/19/18 20/20/18 
f 1/1/19 20/20/19 21/21/19 
f 1/1/20 21/21/20 22/22/20 
f 1/1/21 22/22/21 23/23/21 
f 1/1/22 23/23/22 24/24/22 
f 1/1/23 24/24/23 25/25/23 
f 1/1/24 25/25/24 2/2/24 
f 3/26/25 2/27/25 26/28/25 
f 4/29/26 3/26/26 26/28/26 
f 5/30/27 4/29/27 26/28/27 
f 6/31/28 5/30/28 26/28/28 
f 7/32/29 6/31/29 26/28/29 
f 8/33/30 7/32/30 26/28/30 
f 9/34/31 8/33/31 26/28/31 
f 10/35/32 9/34/32 26/28/32 
f 11/36/33 10/35/33 26/28/33 
f 12/37/34 11/36/34 26/28/34 
f 13/38/35 12/37/35 26/28/35 
f 14/39/36 13/38/36 26/28/36 
f 15/40/37 14/39/37 26/28/37 
f 16/41/38 15/40/38 26/28/38 
f 17/42/39 16/41/39 26/28/39 
f 18/43/40 17/42/40 26/28/40 
f 19/44/41 18/43/41 26/28/41 
f 20/45/42 19/44/42 26/28/42 
f 21/46/43 20/45/43 26/28/43 
f 22/47/44 21/46/44 26/28/44 
f 23/48/45 22/47/45 26/28/45 
f 24/49/46 23/48/46 26/28/46 
f 25/50/47 24/49/47 26/28/47 
f 2/27/48 25/50/48 26/28/48 
f 27/51/49 28/52/49 29/53/49 
f 27/51/50 29/53/50 30/54/50 
f 27/51/51 30/54/51 31/55/51 
f 27/51/52 31/55/52 32/56/52 
f 27/51/53 32/56/53 33/57/53 
f 27/51/54 33/57/54 34/58/54 
f 27/51/55 34/58/55 35/59/55 
f 27/51/56 35/59/56 36/60/56 
f 27/51/57 36/60/57 37/61/57 
f 27/51/58 37/61/58 38/62/58 
f 27/51/59 38/62/59 39/63/59 
f 27/51/60 39/63/60 40/64/60 
f 27/51/61 40/64/61 41/65/61 
f 27/51/62 41/65/62 42/66/62 
f 27/51/63 42/66/63 43/67/63 
f 27/51/64 43/67/64 44/68/64 
f 27/51/65 44/68/65 45/69/65 
f 27/51/66 45/69/66 46/70/66 
f 27/51/67 46/70/67 47/71/67 
f 27/51/68 47/71/68 48/72/68 
f 27/51/69 48/72/69 49/73/69 
f 27/51/70 49/73/70 50/74/70 
f 27/51/71 50/74/71 51/75/71 
f 27/51/72 51/75/72 28/52/72 
f 29/76/73 28/77/73 52/78/73 
f 30/79/74 29/76/74 52/78/74 
f 31/80/75 30/79/75 52/78/75 
f 32/81/76 31/80/76 52/78/76 
f 33/82/77 32/81/77 52/78/77 
f 34/83/78 33/82/78 52/78/78 
f 35/84/79 34/83/79 52/78/79 
f 36/85/80 35/84/80 52/78/80 
f 37/86/81 36/85/81 52/78/81 
f 38/87/82 37/86/82 52/78/82 
f 39/88/83 38/87/83 52/78/83 
f 40/89/84 39/88/84 52/78/84 
f 41/90/85 40/89/85 52/78/85 
f 42/91/86 41/90/86 52/78/86 
f 43/92/87 42/91/87 52/78/87 
f 44/93/88 43/92/88 52/78/88 
f 45/94/89 44/93/89 52/78/89 
f 46/95/90 45/94/90 52/78/90 
f 47/96/91 46/95/91 52/78/91 
f 48/97/92 47/96/92 52/78/92 
f 49/98/93 48/97/93 52/78/93 
f 50/99/94 49/98/94 52/78/94 
f 51/100/95 50/99/95 52/78/95 
f 28/77/96 51/100/96 52/78/96 
f 53/101/97 54/102/97 55/103/97 56/104/97 
f 57/105/98 58/106/98 54/102/98 53/101/98 
f 59/107/99 60/108/99 58/106/99 57/105/99 
f 61/109/100 62/110/100 60/108/100 59/107/100 
f 56/104/101 55/103/101 62/111/101 61/112/101 
# 5 polygons - 96 triangles

