# 3ds Max Wavefront OBJ Exporter v0.97b - (c)2007 guruware
# File Created: 20.05.2016 21:20:22

mtllib Forest_A_FirTree_08.mtl

#
# object Forest_A_FirTree_08
#

v  2.5368 319.1732 -1.7242
v  58.0879 193.3915 -7.0486
v  60.4462 190.9991 -20.5965
v  57.3059 197.2404 -33.3826
v  49.1215 193.3717 -41.0902
v  36.6034 192.0009 -50.0341
v  23.1489 198.6376 -47.7263
v  11.7549 198.1960 -63.3791
v  -5.7918 195.5005 -62.1132
v  -17.2054 202.1768 -49.2578
v  -33.1486 199.0265 -49.4672
v  -43.7246 195.7641 -40.3481
v  -49.9542 193.0883 -28.8626
v  -53.8778 190.0500 -17.9189
v  -51.4369 190.9662 7.3930
v  -38.6203 204.1210 12.9711
v  -45.0758 199.2374 36.8666
v  -30.9592 201.6232 49.3819
v  -14.1463 204.6417 42.9294
v  -5.0609 200.5357 56.2487
v  7.3099 205.9532 59.1774
v  25.1666 221.2500 55.2452
v  45.0769 211.4366 44.9562
v  56.9745 203.4422 19.9852
v  42.1619 211.1005 6.1315
v  -1.5250 215.7139 -4.2390
v  5.1023 260.9177 -5.1513
v  60.5957 136.3042 16.8885
v  56.5726 139.5267 -13.0743
v  37.1206 142.9816 -12.5738
v  42.9912 133.1888 -23.4797
v  22.0907 127.8040 -45.6435
v  1.8474 138.1269 -38.3980
v  -4.6506 122.0201 -49.5442
v  -22.2818 131.1636 -44.2983
v  -23.7882 154.3231 -31.7326
v  -37.5914 138.8775 -32.5820
v  -44.3974 141.9928 -23.6304
v  -41.9337 154.7401 -10.5231
v  -52.5526 153.1258 -2.3235
v  -48.6790 157.9745 17.5058
v  -35.8733 161.9536 22.6007
v  -36.0779 147.2823 34.7961
v  -26.0673 143.8453 45.3927
v  -13.4567 153.3879 43.1403
v  -9.3799 138.0078 58.7484
v  18.7119 125.8026 59.1872
v  23.7035 141.5163 42.4134
v  44.1907 124.2181 45.5663
v  54.8262 122.8660 36.2034
v  46.7985 131.9558 22.1741
v  -1.9940 167.8507 -0.6017
v  2.4258 80.3592 -8.7872
v  1.7646 213.0063 -4.7114
v  6.8627 212.0831 2.7892
v  9.1848 79.1023 1.0840
v  -9.2082 80.1626 -4.8408
v  -7.2104 212.8693 -1.6748
v  -9.4463 78.8223 7.4746
v  -7.3845 211.8686 7.7510
v  2.0317 78.1314 11.0430
v  1.4861 211.3921 10.2939
v  17.3107 388.5273 -5.6468
v  6.4655 241.6717 66.2417
v  36.9740 240.9211 59.0566
v  35.2915 246.3536 38.5718
v  48.0202 235.8341 42.4901
v  68.1855 235.1610 18.2470
v  61.2925 248.1525 -2.2229
v  71.8694 236.0545 -10.4986
v  63.1048 247.7415 -28.5852
v  48.7098 266.2489 -31.5624
v  47.0067 249.6774 -49.4603
v  35.1997 246.5621 -58.4698
v  14.3383 252.2388 -56.5717
v  0.6490 250.2850 -70.2050
v  -21.8844 256.6288 -64.2913
v  -23.3649 266.9279 -46.8658
v  -37.7835 255.0861 -49.0046
v  -49.7472 257.9095 -36.5022
v  -44.5000 275.2137 -21.3393
v  -57.5302 265.8438 -13.8168
v  -49.5179 260.4054 20.2668
v  -30.5263 264.3427 27.1448
v  -28.4363 243.2144 46.3583
v  -16.6325 240.0574 56.9483
v  -1.5571 246.5144 51.8478
v  6.0371 267.2675 -10.4221
v  6.3654 0.0004 -12.8836
v  15.3005 0.0002 -0.1330
v  -8.3660 0.0004 -7.8241
v  -8.6877 0.0001 8.0588
v  6.1043 0.0000 12.9170
# 93 vertices

vn 0.9126 -0.0883 0.3993
vn 0.9099 0.0213 0.4142
vn 0.5073 0.7509 0.4228
vn 0.4962 0.7591 0.4213
vn 0.0171 0.9332 0.3591
vn 0.7550 0.5592 0.3425
vn -0.1319 0.8872 0.4421
vn -0.5794 0.7163 0.3888
vn -0.0640 0.9207 0.3849
vn -0.6607 0.6094 0.4384
vn -0.8340 0.3537 0.4234
vn -0.8876 0.2035 0.4133
vn -0.9172 -0.0743 0.3914
vn -0.6326 -0.7069 0.3166
vn -0.9321 0.1886 0.3093
vn -0.6330 -0.6276 0.4532
vn 0.2915 -0.9048 0.3103
vn -0.7252 -0.5992 0.3393
vn -0.3807 -0.8210 0.4255
vn -0.2011 -0.8662 0.4574
vn 0.5795 -0.6391 0.5057
vn 0.8533 -0.2623 0.4506
vn 0.7244 0.6540 0.2181
vn 0.7914 -0.5160 0.3277
vn -0.3444 -0.1048 -0.9330
vn -0.4219 0.3119 -0.8513
vn -0.0375 -0.4798 -0.8766
vn -0.1508 -0.3526 -0.9235
vn -0.4240 -0.1123 -0.8987
vn -0.2643 -0.2189 -0.9393
vn 0.1663 -0.3142 -0.9347
vn -0.1640 -0.3360 -0.9275
vn 0.1862 -0.2229 -0.9569
vn 0.3627 -0.0887 -0.9277
vn 0.4171 -0.0145 -0.9087
vn 0.4560 0.0825 -0.8862
vn 0.4423 0.0102 -0.8968
vn 0.4705 -0.5487 -0.6911
vn 0.2394 0.1319 -0.9619
vn 0.2594 0.1097 -0.9595
vn 0.0971 0.2027 -0.9744
vn -0.0748 0.2468 -0.9662
vn 0.4319 0.1957 -0.8804
vn 0.6109 0.2029 -0.7653
vn -0.3302 -0.2333 -0.9146
vn -0.2707 -0.1741 -0.9468
vn 0.0296 0.5076 -0.8611
vn -0.2332 -0.6679 -0.7068
vn 0.9158 0.0806 0.3935
vn -0.0153 0.9982 0.0587
vn 0.9281 -0.2897 0.2337
vn 0.6585 0.6925 0.2947
vn -0.2047 0.9434 0.2609
vn 0.7358 0.6583 0.1587
vn -0.1199 0.9432 0.3099
vn -0.6173 0.7076 0.3438
vn -0.2839 0.9095 0.3037
vn -0.6689 0.6401 0.3779
vn -0.8863 0.2264 0.4041
vn -0.6104 0.7300 0.3073
vn -0.8798 -0.0564 0.4720
vn -0.4441 -0.7979 0.4076
vn -0.7237 -0.5257 0.4471
vn -0.5724 -0.6863 0.4487
vn -0.1648 -0.8888 0.4276
vn -0.7315 -0.5659 0.3804
vn 0.1764 -0.8817 0.4376
vn 0.7687 -0.5439 0.3364
vn 0.1894 -0.9017 0.3887
vn 0.6287 -0.6532 0.4221
vn 0.9011 0.3789 0.2111
vn 0.2648 -0.9224 0.2811
vn -0.4415 0.0371 -0.8965
vn -0.0706 -0.8509 -0.5206
vn -0.3386 -0.5212 -0.7834
vn -0.3435 -0.5147 -0.7855
vn -0.1853 -0.5958 -0.7815
vn 0.5847 -0.5374 -0.6078
vn -0.1688 -0.6786 -0.7149
vn -0.6671 -0.6358 -0.3883
vn 0.7314 0.2336 -0.6407
vn 0.2500 -0.4823 -0.8396
vn 0.0656 -0.6893 -0.7215
vn 0.2707 -0.1638 -0.9486
vn 0.2695 -0.1787 -0.9463
vn 0.2502 -0.1212 -0.9606
vn -0.3856 0.7122 -0.5866
vn 0.1217 0.4084 -0.9046
vn 0.5869 0.1113 -0.8019
vn -0.7225 0.3802 -0.5774
vn -0.3488 0.4553 -0.8192
vn 0.2689 0.6146 -0.7415
vn -0.6342 0.0911 -0.7678
vn -0.4236 0.3613 -0.8307
vn -0.4917 0.2576 -0.8318
vn -0.0992 0.7737 -0.6257
vn 0.8270 0.5618 0.0215
vn -0.3212 0.9466 0.0275
vn -0.9997 0.0173 0.0155
vn -0.2875 -0.9578 0.0033
vn 0.8122 -0.5834 0.0067
vn 0.2181 -0.8828 0.4160
vn 0.9926 0.0526 0.1092
vn -0.0542 -0.9554 0.2903
vn 0.7290 -0.5971 0.3348
vn 0.9467 0.1326 0.2934
vn 0.7586 -0.6007 0.2523
vn 0.9146 0.2271 0.3345
vn 0.5539 0.7742 0.3063
vn 0.8804 0.3646 0.3033
vn 0.5057 0.7858 0.3561
vn 0.0100 0.9368 0.3498
vn 0.6655 0.7038 0.2485
vn -0.1134 0.8949 0.4316
vn -0.8667 0.3063 0.3937
vn -0.1643 0.9162 0.3655
vn -0.5878 0.6661 0.4591
vn -0.8284 0.2720 0.4896
vn -0.6660 0.5979 0.4461
vn -0.8293 -0.2728 0.4877
vn -0.3833 -0.8459 0.3710
vn -0.7249 -0.5438 0.4228
vn -0.5370 -0.7264 0.4290
vn 0.1613 -0.9221 0.3519
vn -0.7766 -0.5413 0.3223
vn -0.0973 0.3147 -0.9442
vn -0.2920 0.2227 -0.9301
vn -0.6471 -0.0620 -0.7599
vn -0.3449 0.2618 -0.9014
vn -0.2266 0.4664 -0.8551
vn -0.3381 -0.6125 -0.7145
vn -0.4013 0.3519 -0.8456
vn -0.4062 0.7985 -0.4444
vn 0.2967 -0.6334 -0.7146
vn -0.0411 -0.3743 -0.9264
vn -0.2309 -0.2635 -0.9366
vn -0.1460 -0.2825 -0.9481
vn -0.1900 -0.2841 -0.9398
vn -0.4985 -0.4093 -0.7642
vn 0.5989 0.4772 -0.6431
vn 0.0415 -0.2577 -0.9653
vn -0.2580 -0.7641 -0.5913
vn 0.0545 0.7402 -0.6701
vn 0.0309 0.1646 -0.9859
vn 0.1709 -0.0899 -0.9812
vn -0.5559 0.5869 -0.5887
vn 0.0680 0.3539 -0.9328
vn 0.3012 0.2682 -0.9151
vn -0.0044 0.3167 -0.9485
vn 0.8214 0.5659 0.0707
vn -0.3233 0.9458 0.0321
vn -0.9997 0.0203 -0.0098
vn -0.3053 -0.9522 0.0055
vn 0.8128 -0.5799 0.0551
# 154 vertex normals

vt 0.9096 0.3951 0.0000
vt 0.8756 0.4087 0.0000
vt 0.8723 0.4010 0.0000
vt 0.8731 0.3926 0.0000
vt 0.8738 0.3848 0.0000
vt 0.8770 0.3767 0.0000
vt 0.8837 0.3719 0.0000
vt 0.8900 0.3646 0.0000
vt 0.8982 0.3601 0.0000
vt 0.9073 0.3611 0.0000
vt 0.9160 0.3599 0.0000
vt 0.9242 0.3615 0.0000
vt 0.9315 0.3651 0.0000
vt 0.9377 0.3698 0.0000
vt 0.9434 0.3798 0.0000
vt 0.9415 0.3883 0.0000
vt 0.9451 0.3989 0.0000
vt 0.9422 0.4083 0.0000
vt 0.9356 0.4151 0.0000
vt 0.9310 0.4229 0.0000
vt 0.9232 0.4263 0.0000
vt 0.9123 0.4253 0.0000
vt 0.9012 0.4269 0.0000
vt 0.8893 0.4227 0.0000
vt 0.8854 0.4135 0.0000
vt 0.6057 0.3802 0.0000
vt 0.6110 0.3804 0.0000
vt 0.6168 0.4044 0.0000
vt 0.6011 0.3831 0.0000
vt 0.5982 0.3865 0.0000
vt 0.5955 0.3917 0.0000
vt 0.5977 0.3970 0.0000
vt 0.5925 0.4022 0.0000
vt 0.5935 0.4089 0.0000
vt 0.5995 0.4125 0.0000
vt 0.5997 0.4187 0.0000
vt 0.6033 0.4228 0.0000
vt 0.6077 0.4252 0.0000
vt 0.6119 0.4270 0.0000
vt 0.6215 0.4259 0.0000
vt 0.6242 0.4191 0.0000
vt 0.6335 0.4217 0.0000
vt 0.6381 0.4161 0.0000
vt 0.6355 0.4097 0.0000
vt 0.6409 0.4065 0.0000
vt 0.6417 0.4013 0.0000
vt 0.6393 0.3926 0.0000
vt 0.6343 0.3847 0.0000
vt 0.6242 0.3805 0.0000
vt 0.6190 0.3870 0.0000
vt 0.9083 0.3984 0.0000
vt 0.8894 0.3684 0.0000
vt 0.9017 0.3653 0.0000
vt 0.9111 0.3672 0.0000
vt 0.9190 0.3657 0.0000
vt 0.9309 0.3705 0.0000
vt 0.9353 0.3802 0.0000
vt 0.9430 0.3840 0.0000
vt 0.9435 0.3941 0.0000
vt 0.9371 0.4015 0.0000
vt 0.9403 0.4098 0.0000
vt 0.9363 0.4166 0.0000
vt 0.9282 0.4204 0.0000
vt 0.9225 0.4262 0.0000
vt 0.9124 0.4283 0.0000
vt 0.9043 0.4263 0.0000
vt 0.8961 0.4287 0.0000
vt 0.8880 0.4254 0.0000
vt 0.8847 0.4178 0.0000
vt 0.8763 0.4144 0.0000
vt 0.8699 0.4035 0.0000
vt 0.8750 0.3956 0.0000
vt 0.8715 0.3854 0.0000
vt 0.8748 0.3777 0.0000
vt 0.8826 0.3738 0.0000
vt 0.6267 0.3821 0.0000
vt 0.6374 0.3869 0.0000
vt 0.6169 0.4056 0.0000
vt 0.6218 0.3879 0.0000
vt 0.6195 0.3822 0.0000
vt 0.6077 0.3824 0.0000
vt 0.6052 0.3912 0.0000
vt 0.5979 0.3882 0.0000
vt 0.5958 0.3958 0.0000
vt 0.6015 0.4041 0.0000
vt 0.5958 0.4097 0.0000
vt 0.5976 0.4138 0.0000
vt 0.6042 0.4162 0.0000
vt 0.6043 0.4214 0.0000
vt 0.6116 0.4244 0.0000
vt 0.6162 0.4215 0.0000
vt 0.6225 0.4252 0.0000
vt 0.6281 0.4244 0.0000
vt 0.6297 0.4185 0.0000
vt 0.6381 0.4200 0.0000
vt 0.6456 0.4109 0.0000
vt 0.6386 0.4052 0.0000
vt 0.6461 0.3980 0.0000
vt 0.6452 0.3926 0.0000
vt 0.6381 0.3927 0.0000
vt 0.1628 0.2225 0.0000
vt 0.1619 0.2734 0.0000
vt 0.1584 0.2730 0.0000
vt 0.1582 0.2220 0.0000
vt 0.1675 0.2227 0.0000
vt 0.1655 0.2734 0.0000
vt 0.1722 0.2226 0.0000
vt 0.1691 0.2733 0.0000
vt 0.1534 0.2219 0.0000
vt 0.1549 0.2729 0.0000
vt 0.1514 0.2732 0.0000
vt 0.1489 0.2225 0.0000
vt 0.9081 0.3957 0.0000
vt 0.8712 0.4162 0.0000
vt 0.8670 0.4032 0.0000
vt 0.8696 0.3931 0.0000
vt 0.8676 0.3844 0.0000
vt 0.8733 0.3720 0.0000
vt 0.8835 0.3670 0.0000
vt 0.8879 0.3591 0.0000
vt 0.8990 0.3582 0.0000
vt 0.9080 0.3627 0.0000
vt 0.9179 0.3587 0.0000
vt 0.9270 0.3613 0.0000
vt 0.9346 0.3693 0.0000
vt 0.9424 0.3762 0.0000
vt 0.9457 0.3876 0.0000
vt 0.9426 0.3971 0.0000
vt 0.9456 0.4058 0.0000
vt 0.9414 0.4152 0.0000
vt 0.9318 0.4190 0.0000
vt 0.9274 0.4271 0.0000
vt 0.9137 0.4328 0.0000
vt 0.9033 0.4304 0.0000
vt 0.8923 0.4341 0.0000
vt 0.8834 0.4303 0.0000
vt 0.8785 0.4222 0.0000
vt 0.5846 0.3956 0.0000
vt 0.5899 0.3849 0.0000
vt 0.6157 0.4047 0.0000
vt 0.5917 0.3999 0.0000
vt 0.5858 0.4025 0.0000
vt 0.5869 0.4144 0.0000
vt 0.5959 0.4178 0.0000
vt 0.5939 0.4244 0.0000
vt 0.6024 0.4263 0.0000
vt 0.6108 0.4233 0.0000
vt 0.6184 0.4285 0.0000
vt 0.6237 0.4276 0.0000
vt 0.6277 0.4206 0.0000
vt 0.6350 0.4209 0.0000
vt 0.6392 0.4130 0.0000
vt 0.6345 0.4069 0.0000
vt 0.6397 0.4022 0.0000
vt 0.6393 0.3959 0.0000
vt 0.6319 0.3911 0.0000
vt 0.6316 0.3845 0.0000
vt 0.6192 0.3792 0.0000
vt 0.6130 0.3837 0.0000
vt 0.6030 0.3792 0.0000
vt 0.5973 0.3803 0.0000
vt 0.5963 0.3865 0.0000
vt 0.1637 0.1917 0.0000
vt 0.1577 0.1916 0.0000
vt 0.1696 0.1922 0.0000
vt 0.1756 0.1929 0.0000
vt 0.1517 0.1920 0.0000
vt 0.1458 0.1927 0.0000
# 168 texture coords

g Forest_A_FirTree_08
usemtl ForestPack_Trees
s off
f 1/1/1 2/2/1 3/3/1 
f 1/1/2 3/3/2 4/4/2 
f 1/1/3 4/4/3 5/5/3 
f 1/1/4 5/5/4 6/6/4 
f 1/1/5 6/6/5 7/7/5 
f 1/1/6 7/7/6 8/8/6 
f 1/1/7 8/8/7 9/9/7 
f 1/1/8 9/9/8 10/10/8 
f 1/1/9 10/10/9 11/11/9 
f 1/1/10 11/11/10 12/12/10 
f 1/1/11 12/12/11 13/13/11 
f 1/1/12 13/13/12 14/14/12 
f 1/1/13 14/14/13 15/15/13 
f 1/1/14 15/15/14 16/16/14 
f 1/1/15 16/16/15 17/17/15 
f 1/1/16 17/17/16 18/18/16 
f 1/1/17 18/18/17 19/19/17 
f 1/1/18 19/19/18 20/20/18 
f 1/1/19 20/20/19 21/21/19 
f 1/1/20 21/21/20 22/22/20 
f 1/1/21 22/22/21 23/23/21 
f 1/1/22 23/23/22 24/24/22 
f 1/1/23 24/24/23 25/25/23 
f 1/1/24 25/25/24 2/2/24 
f 3/26/25 2/27/25 26/28/25 
f 4/29/26 3/26/26 26/28/26 
f 5/30/27 4/29/27 26/28/27 
f 6/31/28 5/30/28 26/28/28 
f 7/32/29 6/31/29 26/28/29 
f 8/33/30 7/32/30 26/28/30 
f 9/34/31 8/33/31 26/28/31 
f 10/35/32 9/34/32 26/28/32 
f 11/36/33 10/35/33 26/28/33 
f 12/37/34 11/36/34 26/28/34 
f 13/38/35 12/37/35 26/28/35 
f 14/39/36 13/38/36 26/28/36 
f 15/40/37 14/39/37 26/28/37 
f 16/41/38 15/40/38 26/28/38 
f 17/42/39 16/41/39 26/28/39 
f 18/43/40 17/42/40 26/28/40 
f 19/44/41 18/43/41 26/28/41 
f 20/45/42 19/44/42 26/28/42 
f 21/46/43 20/45/43 26/28/43 
f 22/47/44 21/46/44 26/28/44 
f 23/48/45 22/47/45 26/28/45 
f 24/49/46 23/48/46 26/28/46 
f 25/50/47 24/49/47 26/28/47 
f 2/27/48 25/50/48 26/28/48 
f 27/51/49 28/52/49 29/53/49 
f 27/51/50 29/53/50 30/54/50 
f 27/51/51 30/54/51 31/55/51 
f 27/51/52 31/55/52 32/56/52 
f 27/51/53 32/56/53 33/57/53 
f 27/51/54 33/57/54 34/58/54 
f 27/51/55 34/58/55 35/59/55 
f 27/51/56 35/59/56 36/60/56 
f 27/51/57 36/60/57 37/61/57 
f 27/51/58 37/61/58 38/62/58 
f 27/51/59 38/62/59 39/63/59 
f 27/51/60 39/63/60 40/64/60 
f 27/51/61 40/64/61 41/65/61 
f 27/51/62 41/65/62 42/66/62 
f 27/51/63 42/66/63 43/67/63 
f 27/51/64 43/67/64 44/68/64 
f 27/51/65 44/68/65 45/69/65 
f 27/51/66 45/69/66 46/70/66 
f 27/51/67 46/70/67 47/71/67 
f 27/51/68 47/71/68 48/72/68 
f 27/51/69 48/72/69 49/73/69 
f 27/51/70 49/73/70 50/74/70 
f 27/51/71 50/74/71 51/75/71 
f 27/51/72 51/75/72 28/52/72 
f 29/76/73 28/77/73 52/78/73 
f 30/79/74 29/76/74 52/78/74 
f 31/80/75 30/79/75 52/78/75 
f 32/81/76 31/80/76 52/78/76 
f 33/82/77 32/81/77 52/78/77 
f 34/83/78 33/82/78 52/78/78 
f 35/84/79 34/83/79 52/78/79 
f 36/85/80 35/84/80 52/78/80 
f 37/86/81 36/85/81 52/78/81 
f 38/87/82 37/86/82 52/78/82 
f 39/88/83 38/87/83 52/78/83 
f 40/89/84 39/88/84 52/78/84 
f 41/90/85 40/89/85 52/78/85 
f 42/91/86 41/90/86 52/78/86 
f 43/92/87 42/91/87 52/78/87 
f 44/93/88 43/92/88 52/78/88 
f 45/94/89 44/93/89 52/78/89 
f 46/95/90 45/94/90 52/78/90 
f 47/96/91 46/95/91 52/78/91 
f 48/97/92 47/96/92 52/78/92 
f 49/98/93 48/97/93 52/78/93 
f 50/99/94 49/98/94 52/78/94 
f 51/100/95 50/99/95 52/78/95 
f 28/77/96 51/100/96 52/78/96 
f 53/101/97 54/102/97 55/103/97 56/104/97 
f 57/105/98 58/106/98 54/102/98 53/101/98 
f 59/107/99 60/108/99 58/106/99 57/105/99 
f 61/109/100 62/110/100 60/111/100 59/112/100 
f 56/104/101 55/103/101 62/110/101 61/109/101 
f 63/113/102 64/114/102 65/115/102 
f 63/113/103 65/115/103 66/116/103 
f 63/113/104 66/116/104 67/117/104 
f 63/113/105 67/117/105 68/118/105 
f 63/113/106 68/118/106 69/119/106 
f 63/113/107 69/119/107 70/120/107 
f 63/113/108 70/120/108 71/121/108 
f 63/113/109 71/121/109 72/122/109 
f 63/113/110 72/122/110 73/123/110 
f 63/113/111 73/123/111 74/124/111 
f 63/113/112 74/124/112 75/125/112 
f 63/113/113 75/125/113 76/126/113 
f 63/113/114 76/126/114 77/127/114 
f 63/113/115 77/127/115 78/128/115 
f 63/113/116 78/128/116 79/129/116 
f 63/113/117 79/129/117 80/130/117 
f 63/113/118 80/130/118 81/131/118 
f 63/113/119 81/131/119 82/132/119 
f 63/113/120 82/132/120 83/133/120 
f 63/113/121 83/133/121 84/134/121 
f 63/113/122 84/134/122 85/135/122 
f 63/113/123 85/135/123 86/136/123 
f 63/113/124 86/136/124 87/137/124 
f 63/113/125 87/137/125 64/114/125 
f 65/138/126 64/139/126 88/140/126 
f 66/141/127 65/138/127 88/140/127 
f 67/142/128 66/141/128 88/140/128 
f 68/143/129 67/142/129 88/140/129 
f 69/144/130 68/143/130 88/140/130 
f 70/145/131 69/144/131 88/140/131 
f 71/146/132 70/145/132 88/140/132 
f 72/147/133 71/146/133 88/140/133 
f 73/148/134 72/147/134 88/140/134 
f 74/149/135 73/148/135 88/140/135 
f 75/150/136 74/149/136 88/140/136 
f 76/151/137 75/150/137 88/140/137 
f 77/152/138 76/151/138 88/140/138 
f 78/153/139 77/152/139 88/140/139 
f 79/154/140 78/153/140 88/140/140 
f 80/155/141 79/154/141 88/140/141 
f 81/156/142 80/155/142 88/140/142 
f 82/157/143 81/156/143 88/140/143 
f 83/158/144 82/157/144 88/140/144 
f 84/159/145 83/158/145 88/140/145 
f 85/160/146 84/159/146 88/140/146 
f 86/161/147 85/160/147 88/140/147 
f 87/162/148 86/161/148 88/140/148 
f 64/139/149 87/162/149 88/140/149 
f 89/163/150 53/101/150 56/104/150 90/164/150 
f 91/165/151 57/105/151 53/101/151 89/163/151 
f 92/166/152 59/107/152 57/105/152 91/165/152 
f 93/167/153 61/109/153 59/112/153 92/168/153 
f 90/164/154 56/104/154 61/109/154 93/167/154 
# 10 polygons - 144 triangles

