# 3ds Max Wavefront OBJ Exporter v0.97b - (c)2007 guruware
# File Created: 20.05.2016 21:20:14

mtllib Forest_C_Tree_07.mtl

#
# object Forest_C_Tree_07
#

v  -1.9448 0.0000 14.3876
v  12.4711 0.0000 1.6878
v  1.2127 102.0184 14.8815
v  -9.7650 102.0184 20.2101
v  4.8476 0.0000 -15.9469
v  -0.4627 102.0184 2.7945
v  -14.2798 0.0000 -14.1460
v  -12.6365 97.2238 0.2653
v  -18.4777 0.0000 4.6018
v  -18.3856 97.2238 11.0287
v  9.3715 205.0053 11.7018
v  0.4879 205.0052 16.1643
v  7.8726 207.4366 1.8741
v  -1.9373 208.8813 0.2627
v  -6.5013 208.8813 9.0945
v  -8.9491 333.0977 -1.0030
v  -3.4308 328.2349 4.3427
v  -3.4403 336.1409 4.2847
v  3.3586 328.2350 0.7464
v  2.0363 333.0977 -6.8219
v  3.2572 336.1409 0.6735
v  -5.5702 333.0977 -7.9031
v  -9.0926 350.3897 -4.0988
v  0.1625 351.2868 -7.7016
v  -8.4697 351.5427 1.2936
v  -1.4311 352.4248 4.6508
v  3.5584 353.2225 -1.1244
v  37.7868 368.2188 20.8899
v  34.3487 367.7312 22.7355
v  32.8730 372.4818 21.2506
v  36.2798 372.9620 19.3994
v  -0.2418 359.3705 -5.2853
v  -9.2839 358.0884 -2.9747
v  -37.6503 368.8264 -18.5344
v  -34.0576 368.3067 -19.2959
v  -32.3861 372.2676 -14.6687
v  -36.4261 372.6957 -14.2568
v  -0.4575 430.4087 0.7774
v  1.0179 430.3016 2.1657
v  -6.7236 430.2719 2.9144
v  -5.8895 430.4002 0.7220
v  -2.5745 430.3016 5.3590
v  -54.2195 408.3091 -32.2644
v  -51.0240 408.5472 -32.4443
v  -51.0107 410.6403 -29.4388
v  -54.2061 410.4023 -29.2588
v  49.7410 432.7340 22.6253
v  46.9835 432.5784 24.3040
v  45.7839 435.6309 22.6166
v  48.5414 435.7867 20.9379
v  25.4319 0.0001 6.8856
v  32.7174 0.0001 0.4673
v  35.7626 67.7564 0.5466
v  29.9016 72.6306 2.9853
v  28.8646 0.0001 -8.4449
v  34.9329 69.0010 -5.4363
v  19.1980 0.0001 -7.5348
v  28.0774 72.6256 -7.0338
v  17.0764 0.0001 1.9400
v  25.2953 72.2833 -1.6963
v  34.9133 74.9828 -0.4345
v  34.1010 76.2235 -6.1735
v  43.1238 110.9886 -0.9184
v  38.6342 110.9886 1.3369
v  42.3663 112.2174 -5.8851
v  37.4085 112.9475 -6.6995
v  35.1020 112.9475 -2.2361
v  63.1106 91.0549 -8.6517
v  64.4951 91.2131 -2.6471
v  59.2939 94.7465 -8.1604
v  60.6459 94.9054 -2.3956
v  -74.4227 471.3279 -25.2832
v  -29.5772 487.3626 -32.8482
v  -1.9940 451.5560 -85.3002
v  52.6497 450.2243 63.1561
v  24.3077 423.5466 65.3923
v  73.1289 420.3413 -4.5293
v  11.6759 480.9567 52.7798
v  -26.2715 446.5691 79.3218
v  66.2543 464.7676 -10.8425
v  44.9230 443.4661 -71.3172
v  10.9673 485.2953 -28.4355
v  23.0301 410.1604 -13.4369
v  -77.9042 419.4663 -39.6519
v  -31.7330 483.2606 51.3191
v  -80.2635 455.5883 28.0737
v  -61.3160 386.9001 54.3379
v  -88.2636 422.2054 9.5122
v  -45.5934 382.1952 -30.4482
v  32.6507 483.3454 10.2029
v  -4.1677 416.0512 -54.6183
v  -47.2084 387.8821 -50.4086
v  71.0306 124.9157 8.5005
v  55.8825 134.3075 12.3700
v  44.9033 121.0309 35.9138
v  18.9876 120.4411 -29.1842
v  31.5105 108.6250 -30.5029
v  10.7048 107.2054 1.0221
v  36.6242 131.4703 -25.0649
v  53.7438 118.8221 -37.2568
v  13.8219 126.8826 3.7377
v  22.5041 107.6937 23.7304
v  37.8796 133.3919 10.8863
v  32.9902 102.6960 4.3852
v  76.6969 91.0934 14.8221
v  55.8611 132.4907 -24.9215
v  72.9980 117.9443 -15.1919
v  71.7847 85.8330 -26.6011
v  80.7137 92.3066 -7.0662
v  65.8062 83.7491 11.1216
v  27.8309 132.5283 -5.9701
v  45.4583 97.5816 22.3037
v  66.7527 86.2679 19.9407
# 113 vertices

vn 0.5788 -0.8152 -0.0219
vn 0.9471 0.2963 0.1233
vn -0.0022 0.9864 0.1641
vn -0.9468 0.3191 0.0426
vn -0.5917 -0.8029 -0.0723
vn 0.4421 -0.8969 -0.0081
vn 0.9851 0.1517 -0.0809
vn 0.1881 0.9819 -0.0207
vn -0.8817 0.4640 0.0851
vn -0.7207 -0.6869 0.0935
vn -0.6938 -0.7202 0.0044
vn 0.9862 0.1652 0.0111
vn -0.1507 0.9869 0.0584
vn -0.9756 0.2144 -0.0465
vn -0.5623 -0.8266 -0.0231
vn 0.6266 -0.7793 -0.0099
vn 0.9481 0.3175 0.0182
vn 0.3777 -0.6508 -0.6587
vn -0.4728 -0.8797 0.0518
vn 0.5304 0.8469 -0.0372
vn -0.3775 0.6395 0.6697
vn 0.8484 0.4940 0.1901
vn -0.9914 -0.1237 -0.0427
vn -0.1839 0.6082 -0.7722
vn 0.4398 0.7947 0.4184
vn -0.5452 -0.7772 -0.3142
vn 0.0956 -0.6858 0.7214
vn 0.7541 0.6545 0.0554
vn -0.9990 -0.0309 0.0329
vn -0.1597 0.9846 0.0706
vn -0.4596 -0.8881 -0.0114
vn 0.7225 -0.6913 -0.0007
vn -0.1427 0.9182 -0.3696
vn 0.8805 0.3983 0.2572
vn -0.8933 -0.3658 -0.2614
vn 0.0852 -0.9133 0.3982
vn 0.5002 -0.8580 -0.1170
vn -0.6173 -0.7797 0.1053
vn 0.6247 0.7746 -0.0989
vn -0.5026 0.8561 0.1202
vn 0.4550 -0.8849 0.1001
vn 0.9887 0.1454 0.0356
vn 0.1476 0.9872 -0.0610
vn -0.8913 0.4500 -0.0549
vn -0.6872 -0.7250 0.0465
vn 0.5569 -0.8306 -0.0072
vn 0.9511 0.3037 -0.0565
vn 0.0459 0.9987 0.0199
vn -0.9448 0.3104 0.1048
vn -0.5953 -0.7981 0.0936
vn 0.4981 -0.8495 0.1739
vn 0.1867 0.9793 -0.0784
vn 0.5278 -0.8439 -0.0961
vn 0.9568 0.1909 -0.2195
vn 0.1579 0.9870 -0.0284
vn -0.8716 0.4454 0.2048
vn -0.6827 -0.7082 0.1798
vn 0.6016 0.1816 -0.7779
vn -0.0605 0.9970 -0.0482
vn -0.5831 -0.1841 0.7913
vn 0.0307 -0.9963 0.0798
vn -0.3512 0.6468 0.6770
vn 0.6258 -0.4656 -0.6258
vn 0.1527 -0.8567 0.4928
vn 0.4314 0.4313 0.7924
vn 0.1687 -0.1624 -0.9722
vn -0.5751 0.7777 0.2541
vn -0.5792 -0.6873 0.4384
vn -0.7277 0.0973 -0.6789
vn 0.9283 0.3600 0.0925
vn 0.2511 0.4097 -0.8770
vn 0.0192 -0.0654 0.9977
vn -0.3308 -0.0375 0.9429
vn 0.9608 -0.2118 0.1788
vn 0.5219 -0.3019 0.7978
vn 0.3415 0.7007 -0.6264
vn 0.3499 -0.1165 -0.9295
vn 0.1104 0.7486 -0.6537
vn 0.2961 0.5364 0.7903
vn -0.5509 -0.1801 0.8149
vn -0.9696 0.2112 0.1236
vn -0.6774 -0.7299 0.0922
vn 0.2049 -0.9692 -0.1364
vn 0.3585 0.3600 -0.8613
vn 0.5078 0.2738 -0.8168
vn 0.0055 -0.7945 0.6072
vn 0.0513 -0.0499 0.9974
vn 0.1002 0.5245 0.8455
vn 0.0484 -0.0232 0.9986
vn 0.3727 -0.1495 -0.9158
vn 0.0607 -0.9075 -0.4156
vn -0.8750 -0.4807 -0.0576
vn -0.9677 0.0322 0.2498
vn 0.3909 0.1738 0.9039
vn 0.5864 -0.2587 0.7676
vn -0.7357 0.1179 -0.6669
vn 0.4291 0.3993 -0.8102
vn -0.7329 0.1309 -0.6677
vn -0.4617 0.8741 -0.1511
vn 0.5288 -0.5904 0.6097
vn -0.6378 0.4491 -0.6258
vn -0.1622 0.8109 0.5622
vn -0.3723 -0.7217 0.5835
vn -0.1729 0.1579 -0.9722
vn 0.6847 -0.6871 0.2431
vn 0.6913 0.5864 0.4222
vn 0.5315 -0.0375 -0.8462
vn -0.8854 -0.4584 0.0770
vn -0.2158 -0.1329 -0.9673
vn -0.0209 0.0649 0.9977
vn 0.5187 0.0419 0.8539
vn -0.9660 0.1866 0.1788
vn -0.4670 0.2619 0.8446
vn -0.1700 -0.8505 -0.4977
vn -0.4770 0.1237 -0.8702
vn -0.1665 -0.8511 -0.4979
vn -0.6266 -0.4793 0.6145
vn 0.6883 0.1516 0.7094
vn 0.9625 -0.1875 0.1963
vn 0.7423 0.6398 0.1993
vn -0.2302 0.9636 -0.1364
vn -0.4021 -0.0185 -0.9154
vn -0.4236 -0.2905 -0.8580
vn -0.0301 0.7397 0.6722
vn -0.0525 0.0486 0.9974
vn -0.0829 -0.4599 0.8841
vn -0.0490 0.0220 0.9986
vn -0.4791 0.1273 -0.8685
vn -0.1151 0.9251 -0.3618
vn 0.8860 0.4465 0.1251
vn 0.9580 0.0048 0.2868
vn -0.2940 -0.1267 0.9474
vn -0.5019 0.2413 0.8306
vn 0.5457 -0.0538 -0.8363
vn -0.5143 -0.1153 -0.8498
vn 0.5050 -0.1865 -0.8428
vn 0.4901 -0.8670 -0.0903
# 137 vertex normals

vt 0.5487 0.0217 0.0000
vt 0.5547 0.0220 0.0000
vt 0.5475 0.0540 0.0000
vt 0.5437 0.0536 0.0000
vt 0.5245 0.0211 0.0000
vt 0.5305 0.0200 0.0000
vt 0.5321 0.0532 0.0000
vt 0.5283 0.0537 0.0000
vt 0.5366 0.0201 0.0000
vt 0.5361 0.0514 0.0000
vt 0.5426 0.0210 0.0000
vt 0.5399 0.0516 0.0000
vt 0.5454 0.0867 0.0000
vt 0.5422 0.0864 0.0000
vt 0.5325 0.0872 0.0000
vt 0.5294 0.0863 0.0000
vt 0.5358 0.0876 0.0000
vt 0.5390 0.0875 0.0000
vt 0.5377 0.1278 0.0000
vt 0.5401 0.1261 0.0000
vt 0.5402 0.1287 0.0000
vt 0.5304 0.1260 0.0000
vt 0.5328 0.1277 0.0000
vt 0.5303 0.1286 0.0000
vt 0.5352 0.1277 0.0000
vt 0.5364 0.1332 0.0000
vt 0.5334 0.1334 0.0000
vt 0.5381 0.1337 0.0000
vt 0.5407 0.1342 0.0000
vt 0.5428 0.1287 0.0000
vt 0.5433 0.1346 0.0000
vt 0.5310 0.1343 0.0000
vt 0.5186 0.1312 0.0000
vt 0.5194 0.1490 0.0000
vt 0.5183 0.1486 0.0000
vt 0.5163 0.1304 0.0000
vt 0.5146 0.1323 0.0000
vt 0.5171 0.1497 0.0000
vt 0.5205 0.1329 0.0000
vt 0.5206 0.1499 0.0000
vt 0.5228 0.1319 0.0000
vt 0.5218 0.1495 0.0000
vt 0.5331 0.1362 0.0000
vt 0.5364 0.1358 0.0000
vt 0.5212 0.0545 0.0000
vt 0.5211 0.0661 0.0000
vt 0.5201 0.0655 0.0000
vt 0.5185 0.0527 0.0000
vt 0.5161 0.0541 0.0000
vt 0.5181 0.0658 0.0000
vt 0.5234 0.0557 0.0000
vt 0.5229 0.0663 0.0000
vt 0.5145 0.0567 0.0000
vt 0.5173 0.0668 0.0000
vt 0.5339 0.1609 0.0000
vt 0.5332 0.1609 0.0000
vt 0.5366 0.1608 0.0000
vt 0.5358 0.1608 0.0000
vt 0.5383 0.1609 0.0000
vt 0.5400 0.1610 0.0000
vt 0.5221 0.0804 0.0000
vt 0.5211 0.0802 0.0000
vt 0.5199 0.0806 0.0000
vt 0.5232 0.0806 0.0000
vt 0.5190 0.0810 0.0000
vt 0.5205 0.1699 0.0000
vt 0.5194 0.1697 0.0000
vt 0.5187 0.1707 0.0000
vt 0.5213 0.1707 0.0000
vt 0.5224 0.1705 0.0000
vt 0.5426 0.1263 0.0000
vt 0.4764 0.2565 0.0000
vt 0.4795 0.2569 0.0000
vt 0.4773 0.2786 0.0000
vt 0.4751 0.2799 0.0000
vt 0.4827 0.2571 0.0000
vt 0.4792 0.2792 0.0000
vt 0.4671 0.2569 0.0000
vt 0.4702 0.2564 0.0000
vt 0.4711 0.2799 0.0000
vt 0.4687 0.2792 0.0000
vt 0.4733 0.2562 0.0000
vt 0.4730 0.2795 0.0000
vt 0.4768 0.2810 0.0000
vt 0.4695 0.2814 0.0000
vt 0.4765 0.2929 0.0000
vt 0.4749 0.2926 0.0000
vt 0.4787 0.2814 0.0000
vt 0.4781 0.2933 0.0000
vt 0.4716 0.2932 0.0000
vt 0.4700 0.2934 0.0000
vt 0.4732 0.2929 0.0000
vt 0.5822 0.3096 0.0000
vt 0.5802 0.3094 0.0000
vt 0.5802 0.2978 0.0000
vt 0.5822 0.2976 0.0000
vt 0.5782 0.3081 0.0000
vt 0.5785 0.2980 0.0000
vt 0.5763 0.3082 0.0000
vt 0.5766 0.2977 0.0000
vt 0.5842 0.3083 0.0000
vt 0.5839 0.2978 0.0000
vt 0.8917 0.5827 0.0000
vt 0.8935 0.5660 0.0000
vt 0.9114 0.5546 0.0000
vt 0.8565 0.5443 0.0000
vt 0.8455 0.5514 0.0000
vt 0.8633 0.5226 0.0000
vt 0.8660 0.5545 0.0000
vt 0.8553 0.5679 0.0000
vt 0.8799 0.5328 0.0000
vt 0.9039 0.5364 0.0000
vt 0.8894 0.5526 0.0000
vt 0.8454 0.6267 0.0000
vt 0.8312 0.6369 0.0000
vt 0.8248 0.6095 0.0000
vt 0.9100 0.5863 0.0000
vt 0.8681 0.5657 0.0000
vt 0.8730 0.5822 0.0000
vt 0.8486 0.5892 0.0000
vt 0.8710 0.5915 0.0000
vt 0.8666 0.6130 0.0000
vt 0.8852 0.5184 0.0000
vt 0.8530 0.6490 0.0000
vt 0.8772 0.5467 0.0000
vt 0.8618 0.6316 0.0000
vt 0.8720 0.6171 0.0000
vt 0.8689 0.6455 0.0000
vt 0.8818 0.6032 0.0000
vt 0.9240 0.5803 0.0000
vt 0.1677 0.9726 0.0000
vt 0.1704 0.9787 0.0000
vt 0.1659 0.9869 0.0000
vt 0.1891 0.9780 0.0000
vt 0.1916 0.9728 0.0000
vt 0.1917 0.9878 0.0000
vt 0.1836 0.9765 0.0000
vt 0.1838 0.9692 0.0000
vt 0.1831 0.9878 0.0000
vt 0.1745 0.9935 0.0000
vt 0.1750 0.9830 0.0000
vt 0.1498 0.9867 0.0000
vt 0.1470 0.9938 0.0000
vt 0.1383 0.9841 0.0000
vt 0.1572 0.9735 0.0000
vt 0.1800 0.9725 0.0000
vt 0.1749 0.9674 0.0000
vt 0.1446 0.9693 0.0000
vt 0.1539 0.9677 0.0000
vt 0.1544 0.9757 0.0000
vt 0.1832 0.9947 0.0000
vt 0.1560 0.9919 0.0000
vt 0.1812 0.9822 0.0000
vt 0.1569 0.9839 0.0000
vt 0.1564 0.9765 0.0000
vt 0.1814 0.9577 0.0000
vt 0.1722 0.9592 0.0000
# 157 texture coords

g Forest_C_Tree_07
usemtl ForestPack_Trees
s off
f 1/1/1 2/2/1 3/3/1 4/4/1 
f 2/5/2 5/6/2 6/7/2 3/8/2 
f 5/6/3 7/9/3 8/10/3 6/7/3 
f 7/9/4 9/11/4 10/12/4 8/10/4 
f 9/11/5 1/1/5 4/4/5 10/12/5 
f 3/3/6 11/13/6 12/14/6 4/4/6 
f 6/7/7 13/15/7 11/16/7 3/8/7 
f 8/10/8 14/17/8 13/15/8 6/7/8 
f 8/10/9 10/12/9 15/18/9 14/17/9 
f 10/12/10 4/4/10 12/14/10 15/18/10 
f 16/19/11 17/20/11 18/21/11 
f 19/22/12 20/23/12 21/24/12 
f 22/25/13 23/26/13 24/27/13 20/23/13 
f 16/19/14 25/28/14 23/26/14 22/25/14 
f 18/21/15 26/29/15 25/28/15 16/19/15 
f 21/30/16 27/31/16 26/29/16 18/21/16 
f 21/24/17 20/23/17 24/27/17 27/32/17 
f 19/33/18 28/34/18 29/35/18 17/36/18 
f 18/37/19 17/36/19 29/35/19 30/38/19 
f 21/39/20 31/40/20 28/34/20 19/33/20 
f 21/39/21 18/41/21 30/42/21 31/40/21 
f 27/32/22 24/27/22 32/43/22 
f 23/26/23 25/28/23 33/44/23 
f 23/45/24 34/46/24 35/47/24 24/48/24 
f 32/49/25 24/48/25 35/47/25 36/50/25 
f 33/51/26 37/52/26 34/46/26 23/45/26 
f 33/53/27 32/49/27 36/50/27 37/54/27 
f 27/32/28 32/43/28 38/55/28 39/56/28 
f 33/44/29 25/28/29 40/57/29 41/58/29 
f 32/43/30 33/44/30 41/58/30 38/55/30 
f 25/28/31 26/29/31 42/59/31 40/57/31 
f 26/29/32 27/31/32 39/60/32 42/59/32 
f 34/46/33 43/61/33 44/62/33 35/47/33 
f 44/62/34 45/63/34 36/50/34 35/47/34 
f 37/52/35 46/64/35 43/61/35 34/46/35 
f 45/63/36 46/65/36 37/54/36 36/50/36 
f 28/34/37 47/66/37 48/67/37 29/35/37 
f 48/67/38 49/68/38 30/38/38 29/35/38 
f 31/40/39 50/69/39 47/66/39 28/34/39 
f 49/70/40 50/69/40 31/40/40 30/42/40 
f 19/71/41 17/20/41 12/14/41 11/13/41 
f 13/15/42 20/23/42 19/22/42 11/16/42 
f 14/17/43 22/25/43 20/23/43 13/15/43 
f 16/19/44 22/25/44 14/17/44 15/18/44 
f 17/20/45 16/19/45 15/18/45 12/14/45 
f 51/72/46 52/73/46 53/74/46 54/75/46 
f 52/73/47 55/76/47 56/77/47 53/74/47 
f 55/78/48 57/79/48 58/80/48 56/81/48 
f 57/79/49 59/82/49 60/83/49 58/80/49 
f 59/82/50 51/72/50 54/75/50 60/83/50 
f 54/75/51 53/74/51 61/84/51 
f 56/81/52 58/80/52 62/85/52 
f 61/84/53 63/86/53 64/87/53 54/75/53 
f 62/88/54 65/89/54 63/86/54 61/84/54 
f 66/90/55 65/91/55 62/85/55 58/80/55 
f 67/92/56 66/90/56 58/80/56 60/83/56 
f 54/75/57 64/87/57 67/92/57 60/83/57 
f 53/93/58 56/94/58 68/95/58 69/96/58 
f 56/94/59 62/97/59 70/98/59 68/95/59 
f 62/97/60 61/99/60 71/100/60 70/98/60 
f 61/101/61 53/93/61 69/96/61 71/102/61 
f 72/103/62 73/104/62 74/105/62 
f 75/106/63 76/107/63 77/108/63 
f 75/106/64 78/109/64 79/110/64 
f 80/111/65 81/112/65 82/113/65 
f 83/114/66 77/115/66 76/116/66 
f 84/117/67 72/103/67 74/105/67 
f 85/118/68 86/119/68 79/110/68 
f 87/120/69 88/121/69 89/122/69 
f 77/123/70 81/112/70 80/111/70 
f 83/114/71 81/124/71 77/115/71 
f 90/125/72 73/104/72 78/109/72 
f 73/104/73 72/103/73 85/118/73 
f 77/108/74 80/111/74 75/106/74 
f 90/125/75 78/109/75 75/106/75 
f 91/126/76 92/127/76 74/128/76 
f 83/114/77 87/120/77 89/122/77 
f 74/128/78 81/124/78 91/126/78 
f 82/113/79 81/112/79 74/105/79 
f 86/119/80 85/118/80 72/103/80 
f 84/129/81 88/121/81 72/103/81 
f 79/110/82 86/119/82 87/120/82 
f 75/106/83 79/110/83 76/107/83 
f 91/126/84 81/124/84 83/114/84 
f 92/127/85 91/126/85 89/122/85 
f 79/110/86 78/109/86 85/118/86 
f 73/104/87 85/118/87 78/109/87 
f 82/113/88 74/105/88 73/104/88 
f 90/125/89 82/113/89 73/104/89 
f 83/114/90 76/116/90 87/120/90 
f 79/110/91 87/120/91 76/107/91 
f 88/121/92 87/120/92 86/119/92 
f 72/103/93 88/121/93 86/119/93 
f 90/125/94 80/111/94 82/113/94 
f 90/125/95 75/106/95 80/111/95 
f 88/121/96 84/129/96 89/122/96 
f 91/126/97 83/114/97 89/122/97 
f 89/122/98 84/129/98 92/127/98 
f 92/130/99 84/117/99 74/105/99 
f 93/131/100 94/132/100 95/133/100 
f 96/134/101 97/135/101 98/136/101 
f 96/134/102 99/137/102 100/138/102 
f 101/139/103 102/140/103 103/141/103 
f 104/142/104 98/143/104 97/144/104 
f 105/145/105 93/131/105 95/133/105 
f 106/146/106 107/147/106 100/138/106 
f 108/148/107 109/149/107 110/150/107 
f 98/151/108 102/140/108 101/139/108 
f 104/142/109 102/152/109 98/143/109 
f 111/153/110 94/132/110 99/137/110 
f 94/132/111 93/131/111 106/146/111 
f 98/136/112 101/139/112 96/134/112 
f 111/153/113 99/137/113 96/134/113 
f 112/154/114 113/155/114 95/133/114 
f 104/142/115 108/148/115 110/150/115 
f 95/133/116 102/152/116 112/154/116 
f 103/141/117 102/140/117 95/133/117 
f 107/147/118 106/146/118 93/131/118 
f 105/145/119 109/149/119 93/131/119 
f 100/138/120 107/147/120 108/156/120 
f 96/134/121 100/138/121 97/135/121 
f 112/154/122 102/152/122 104/142/122 
f 113/155/123 112/154/123 110/150/123 
f 100/138/124 99/137/124 106/146/124 
f 94/132/125 106/146/125 99/137/125 
f 103/141/126 95/133/126 94/132/126 
f 111/153/127 103/141/127 94/132/127 
f 104/142/128 97/144/128 108/148/128 
f 100/138/129 108/156/129 97/135/129 
f 109/157/130 108/156/130 107/147/130 
f 93/131/131 109/157/131 107/147/131 
f 111/153/132 101/139/132 103/141/132 
f 111/153/133 96/134/133 101/139/133 
f 109/149/134 105/145/134 110/150/134 
f 112/154/135 104/142/135 110/150/135 
f 110/150/136 105/145/136 113/155/136 
f 113/155/137 105/145/137 95/133/137 
# 55 polygons - 82 triangles

