# 3ds Max Wavefront OBJ Exporter v0.97b - (c)2007 guruware
# File Created: 20.05.2016 21:20:16

mtllib Forest_C_Tree_02.mtl

#
# object Forest_C_Tree_02
#

v  5.7618 0.0000 15.2452
v  11.9271 0.0000 0.8059
v  7.4158 449.0154 1.6137
v  3.7720 449.0154 10.1477
v  0.0996 0.0000 -9.5195
v  0.4255 449.0154 -4.4889
v  -13.3753 0.0000 -1.4617
v  -7.5386 444.9786 0.2735
v  -9.8759 0.0000 13.8437
v  -5.4703 444.9786 9.3194
v  -7.5386 453.0523 0.2735
v  -5.4703 453.0523 9.3194
v  6.7508 462.3294 1.8006
v  3.3827 468.4224 9.5139
v  0.4307 461.8844 -3.8168
v  -47.7881 488.4190 16.5892
v  -48.8330 488.2347 12.9156
v  -46.5307 491.8461 12.0796
v  -45.4858 492.0304 15.7533
v  -4.5035 494.6237 8.2629
v  2.9934 487.8294 8.8801
v  2.9502 498.8758 8.8421
v  5.8971 487.8294 1.9408
v  0.1947 494.6237 -2.9650
v  5.7750 498.8758 1.9486
v  47.4074 534.7954 13.3594
v  46.4233 534.6517 16.1721
v  44.5792 537.4694 15.6708
v  45.5633 537.6131 12.8582
v  6.4377 470.8506 1.8325
v  0.2949 471.2273 -3.6266
v  -6.2332 494.6237 0.9422
v  25.9361 481.6255 -24.8292
v  25.8598 486.3536 -24.7146
v  28.8080 486.1729 -22.0945
v  28.9694 481.8391 -22.1332
v  -5.7242 532.6067 0.3211
v  0.6346 535.2084 -3.3352
v  -4.2182 532.2214 7.4868
v  3.1952 539.8980 8.1536
v  6.0884 539.8980 1.4790
v  -5.4486 537.3110 0.4382
v  -4.7375 598.0211 2.2235
v  0.8581 598.0210 -1.1113
v  -3.9845 537.6372 7.4024
v  -3.2950 603.9047 8.5757
v  3.1920 603.9047 9.1668
v  5.7588 603.9047 3.1799
v  -61.9844 571.2744 14.9816
v  -62.7072 571.4592 11.5425
v  -61.8722 575.3686 14.9411
v  -62.5749 575.2121 11.5987
v  -95.4370 661.1157 -37.4954
v  -34.2217 677.2629 -36.1474
v  20.5688 648.9108 -71.2678
v  28.9699 648.9108 71.2678
v  46.6080 593.6819 68.0038
v  98.5695 597.5348 20.6481
v  -14.3596 677.2629 50.7224
v  -78.6262 569.4845 68.2407
v  -3.9593 638.4572 70.2413
v  52.6531 677.2629 10.6498
v  58.7698 650.1761 -46.6152
v  3.4956 689.6287 -19.6415
v  95.0158 581.0673 3.5267
v  -61.6401 556.1812 -45.9192
v  -89.0812 676.3688 37.6138
v  -113.7360 570.7498 9.5473
v  -57.0033 552.5090 48.6502
v  -83.4406 552.5090 -6.3075
v  -2.1929 592.5293 3.9385
v  12.4373 689.6287 19.4660
v  80.6060 584.7395 -39.3301
v  4.8075 590.1641 -42.6685
v  -3.1400 592.8698 29.9846
v  -2.0455 607.8867 63.9767
v  0.0809 586.7690 -23.8557
v  20.5674 530.5169 8.1152
v  20.7465 539.7001 24.2088
v  31.3480 563.5032 12.7769
v  74.6187 530.3443 39.8482
v  64.2034 518.0750 4.3890
v  88.7384 554.3631 27.5971
v  47.3780 524.2653 41.4989
v  57.5595 511.6626 19.8421
v  58.0113 553.4655 42.6501
v  50.3683 568.4277 22.6927
v  81.9380 551.5049 9.4883
v  38.3140 539.3185 -13.6980
v  36.8666 515.1965 29.4797
v  34.8999 515.5732 6.4808
v  59.5434 558.9767 0.8440
v  -101.7718 489.5792 -2.5889
v  -103.4640 495.4245 18.2473
v  -98.6773 526.9683 6.6567
v  -32.2333 492.9331 39.6940
v  -21.9813 489.2304 11.2486
v  -34.8881 525.2614 24.1540
v  -61.2862 481.3087 40.4052
v  -48.5686 469.1606 12.4557
v  -61.3556 516.1508 47.6836
v  -79.4579 538.8970 20.3419
v  -91.3943 503.5913 37.9496
v  -34.8468 521.2189 -1.9355
v  -77.2731 496.2567 -31.7506
v  -74.7541 473.6914 21.3117
v  -80.3367 477.8853 -7.1586
v  -39.2255 479.4787 -6.5691
v  -68.6903 484.0254 -25.6039
v  -71.5008 497.5634 48.0022
v  -59.6655 526.2063 -9.9192
# 111 vertices

vn 0.9196 -0.3927 0.0085
vn 0.6576 0.7533 0.0080
vn -0.5146 0.8574 0.0100
vn -0.9748 -0.2229 0.0119
vn -0.0910 -0.9958 0.0110
vn -0.5132 0.8583 0.0000
vn -0.0893 -0.9960 -0.0000
vn 0.9223 -0.3849 0.0350
vn 0.6595 0.7506 0.0412
vn -0.4956 0.8674 0.0455
vn -0.0758 -0.9966 0.0310
vn -0.6874 -0.1785 -0.7040
vn -0.2999 0.9539 -0.0092
vn 0.1949 -0.9803 0.0317
vn 0.6700 0.1744 0.7216
vn -0.0792 -0.9969 0.0031
vn 0.6575 0.7534 0.0078
vn 0.6880 -0.2643 -0.6758
vn -0.1775 -0.9840 0.0141
vn 0.2621 0.9650 0.0028
vn -0.6404 0.2405 0.7294
vn 0.9240 -0.3814 0.0291
vn 0.6668 0.7448 0.0248
vn -0.5063 0.8619 0.0270
vn -0.9737 -0.2260 0.0277
vn -0.0643 -0.9975 0.0283
vn 0.9251 -0.3782 0.0326
vn -0.4664 0.8845 0.0112
vn 0.6639 0.7472 0.0301
vn 0.3737 0.3525 -0.8580
vn -0.6389 0.7692 0.0070
vn -0.2509 -0.3447 0.9046
vn 0.7231 -0.6903 0.0229
vn -0.5084 0.8611 -0.0047
vn -0.9758 -0.2183 0.0143
vn -0.0988 -0.9949 0.0192
vn 0.9215 -0.3884 -0.0008
vn 0.6675 0.7445 -0.0138
vn -0.5155 0.8563 0.0317
vn -0.9775 -0.2106 0.0059
vn -0.0951 -0.9953 -0.0162
vn 0.9182 -0.3960 -0.0060
vn 0.6461 0.7628 0.0241
vn -0.5135 0.8565 0.0514
vn -0.1103 -0.9937 0.0202
vn -0.5523 -0.0714 -0.8306
vn 0.1342 -0.9909 0.0081
vn 0.5261 0.1498 0.8371
vn -0.1739 0.9844 0.0286
vn -0.1521 0.7536 0.6395
vn 0.6574 -0.7349 0.1665
vn -0.3437 -0.8727 0.3468
vn 0.4253 0.3495 0.8348
vn 0.5303 -0.5279 -0.6633
vn -0.2808 0.9597 -0.0134
vn -0.8559 -0.5133 0.0634
vn 0.4532 0.2180 -0.8643
vn 0.8658 0.1354 0.4817
vn 0.9037 0.3790 0.1990
vn -0.3413 -0.0780 0.9367
vn -0.2477 0.1726 0.9533
vn 0.7194 -0.5044 0.4776
vn 0.2646 -0.5423 0.7974
vn 0.0081 0.8982 -0.4395
vn 0.6065 -0.0324 -0.7944
vn 0.5382 0.8384 0.0863
vn 0.3112 0.5229 0.7935
vn -0.9753 -0.0384 0.2175
vn -0.8428 0.4854 -0.2325
vn -0.4480 -0.2495 -0.8585
vn 0.1491 -0.9705 -0.1895
vn 0.9183 0.2852 0.2747
vn -0.0455 0.1067 -0.9933
vn -0.1700 -0.9516 0.2560
vn -0.0125 -0.0029 0.9999
vn 0.0119 0.6168 0.7870
vn 0.6363 -0.2945 -0.7130
vn 0.3073 -0.7939 -0.5247
vn -0.4243 -0.2041 -0.8822
vn -0.5732 0.7686 -0.2840
vn 0.2804 0.0641 0.9577
vn 0.3529 -0.5060 0.7870
vn 0.4217 -0.1492 -0.8944
vn -0.1141 -0.1927 -0.9746
vn -0.1171 -0.0087 -0.9931
vn -0.1404 -0.2044 -0.9688
vn -0.0671 -0.9899 -0.1252
vn -0.1580 -0.8985 0.4096
vn 0.3699 -0.2175 -0.9033
vn 0.4566 0.0456 -0.8885
vn 0.2862 0.8290 -0.4804
vn -0.9279 0.1770 0.3283
vn 0.8454 0.0649 -0.5301
vn 0.2123 -0.5641 -0.7979
vn -0.5236 -0.6303 0.5732
vn 0.8689 0.2598 -0.4213
vn -0.7929 0.5114 0.3314
vn -0.1691 0.0017 -0.9856
vn 0.0009 0.7620 -0.6476
vn 0.2331 -0.5246 0.8188
vn 0.3617 0.2764 0.8904
vn -0.4804 -0.8657 0.1408
vn -0.8278 -0.2850 -0.4833
vn 0.4264 -0.8823 0.1994
vn 0.0752 -0.9949 -0.0666
vn -0.1787 0.6888 0.7026
vn 0.4935 0.8599 -0.1307
vn -0.0250 0.4057 0.9137
vn -0.4942 -0.6771 0.5453
vn -0.7181 -0.0500 -0.6942
vn -0.5758 0.6620 -0.4798
vn 0.0535 0.3630 -0.9302
vn 0.7244 -0.0256 -0.6889
vn 0.3855 0.2252 0.8948
vn 0.4123 0.8864 0.2104
vn 0.1074 -0.5373 -0.8365
vn -0.6257 -0.7380 -0.2529
vn -0.9878 0.1108 0.1092
vn 0.9261 -0.3048 0.2226
vn 0.3324 -0.4991 -0.8003
vn -0.4516 -0.7281 0.5158
vn 0.9339 0.0533 0.3536
vn -0.7716 0.5997 0.2121
vn -0.2035 0.1035 -0.9736
vn 0.5370 0.8423 -0.0465
vn 0.2027 -0.5435 0.8146
vn 0.3008 0.1456 0.9425
vn -0.5192 -0.6014 -0.6073
vn -0.6063 -0.1688 -0.7771
vn 0.5267 -0.7485 0.4030
vn 0.1570 -0.9289 -0.3355
vn -0.2801 0.6899 0.6675
vn 0.5616 0.8267 0.0329
vn -0.1880 0.4819 0.8558
vn -0.6864 -0.5309 0.4969
vn -0.4842 0.0338 -0.8743
vn -0.5069 0.5733 -0.6438
vn 0.0410 0.4607 -0.8866
vn 0.5821 -0.3078 -0.7526
vn 0.2606 0.2234 0.9392
vn 0.3528 0.8426 0.4068
vn -0.0283 -0.3876 -0.9214
vn -0.5200 -0.6067 -0.6013
vn -0.8656 -0.4129 0.2831
vn -0.4887 -0.5723 -0.6585
vn 0.7180 0.6960 0.0019
vn 0.5926 0.1393 -0.7934
vn 0.0412 0.2920 -0.9555
vn -0.4893 0.5375 -0.6868
vn -0.3843 -0.8954 0.2251
vn 0.1960 -0.9765 -0.0902
# 151 vertex normals

vt 0.4455 0.1607 0.0000
vt 0.4505 0.1606 0.0000
vt 0.4512 0.3028 0.0000
vt 0.4483 0.3029 0.0000
vt 0.4555 0.1606 0.0000
vt 0.4541 0.3028 0.0000
vt 0.4605 0.1607 0.0000
vt 0.4571 0.3016 0.0000
vt 0.4654 0.1609 0.0000
vt 0.4600 0.3017 0.0000
vt 0.4704 0.1611 0.0000
vt 0.4629 0.3032 0.0000
vt 0.4570 0.3042 0.0000
vt 0.4599 0.3043 0.0000
vt 0.4513 0.3071 0.0000
vt 0.4488 0.3092 0.0000
vt 0.4541 0.3069 0.0000
vt 0.4622 0.3094 0.0000
vt 0.4739 0.3199 0.0000
vt 0.4769 0.3203 0.0000
vt 0.4735 0.3393 0.0000
vt 0.4723 0.3392 0.0000
vt 0.4720 0.3215 0.0000
vt 0.4709 0.3393 0.0000
vt 0.4671 0.3198 0.0000
vt 0.4690 0.3215 0.0000
vt 0.4697 0.3393 0.0000
vt 0.4683 0.3391 0.0000
vt 0.4589 0.3175 0.0000
vt 0.4615 0.3155 0.0000
vt 0.4612 0.3190 0.0000
vt 0.4517 0.3152 0.0000
vt 0.4541 0.3173 0.0000
vt 0.4517 0.3186 0.0000
vt 0.5763 0.2761 0.0000
vt 0.5787 0.2761 0.0000
vt 0.5806 0.2962 0.0000
vt 0.5796 0.2963 0.0000
vt 0.5837 0.2782 0.0000
vt 0.5864 0.2760 0.0000
vt 0.5837 0.2962 0.0000
vt 0.5826 0.2963 0.0000
vt 0.5813 0.2785 0.0000
vt 0.5816 0.2964 0.0000
vt 0.4515 0.3098 0.0000
vt 0.4493 0.3153 0.0000
vt 0.4541 0.3099 0.0000
vt 0.4565 0.3174 0.0000
vt 0.4025 0.2593 0.0000
vt 0.4024 0.2578 0.0000
vt 0.4037 0.2578 0.0000
vt 0.4038 0.2592 0.0000
vt 0.3958 0.2464 0.0000
vt 0.3983 0.2454 0.0000
vt 0.4010 0.2573 0.0000
vt 0.3998 0.2578 0.0000
vt 0.4012 0.2463 0.0000
vt 0.4038 0.2463 0.0000
vt 0.4063 0.2453 0.0000
vt 0.4050 0.2572 0.0000
vt 0.4560 0.3295 0.0000
vt 0.4537 0.3302 0.0000
vt 0.4583 0.3294 0.0000
vt 0.4605 0.3320 0.0000
vt 0.4514 0.3317 0.0000
vt 0.4491 0.3316 0.0000
vt 0.4493 0.3186 0.0000
vt 0.4560 0.3309 0.0000
vt 0.4552 0.3504 0.0000
vt 0.4531 0.3503 0.0000
vt 0.4583 0.3312 0.0000
vt 0.4571 0.3524 0.0000
vt 0.4592 0.3525 0.0000
vt 0.4510 0.3521 0.0000
vt 0.4489 0.3522 0.0000
vt 0.4393 0.0804 0.0000
vt 0.4416 0.0803 0.0000
vt 0.4402 0.1025 0.0000
vt 0.4391 0.1025 0.0000
vt 0.4342 0.0804 0.0000
vt 0.4358 0.0812 0.0000
vt 0.4370 0.1032 0.0000
vt 0.4358 0.1025 0.0000
vt 0.4380 0.0811 0.0000
vt 0.4380 0.1031 0.0000
vt 0.6705 0.9762 0.0000
vt 0.6720 0.9555 0.0000
vt 0.6831 0.9377 0.0000
vt 0.6363 0.9343 0.0000
vt 0.6250 0.9233 0.0000
vt 0.6475 0.9046 0.0000
vt 0.6455 0.9464 0.0000
vt 0.6162 0.9729 0.0000
vt 0.6323 0.9439 0.0000
vt 0.6577 0.9299 0.0000
vt 0.6764 0.9228 0.0000
vt 0.6656 0.9445 0.0000
vt 0.6042 0.9081 0.0000
vt 0.6114 0.9055 0.0000
vt 0.7070 0.9695 0.0000
vt 0.6492 0.9659 0.0000
vt 0.6346 0.9948 0.0000
vt 0.6094 0.9640 0.0000
vt 0.5906 0.9674 0.0000
vt 0.6012 0.9395 0.0000
vt 0.6545 0.8999 0.0000
vt 0.6551 0.9408 0.0000
vt 0.6994 0.9149 0.0000
vt 0.7027 0.9427 0.0000
vt 0.6103 0.9410 0.0000
vt 0.7065 0.9843 0.0000
vt 0.5941 0.9803 0.0000
vt 0.6228 0.9425 0.0000
vt 0.6975 0.9006 0.0000
vt 0.5920 0.9374 0.0000
vt 0.5862 0.9347 0.0000
vt 0.5901 0.9109 0.0000
vt 0.6988 0.9942 0.0000
vt 0.5800 0.9575 0.0000
vt 0.5772 0.8659 0.0000
vt 0.5734 0.8698 0.0000
vt 0.5633 0.8698 0.0000
vt 0.5489 0.8950 0.0000
vt 0.5463 0.8827 0.0000
vt 0.5606 0.8924 0.0000
vt 0.5742 0.8901 0.0000
vt 0.5769 0.8808 0.0000
vt 0.5852 0.8822 0.0000
vt 0.5682 0.8833 0.0000
vt 0.5637 0.8777 0.0000
vt 0.5578 0.8873 0.0000
vt 0.5515 0.8726 0.0000
vt 0.5489 0.8651 0.0000
vt 0.5800 0.8764 0.0000
vt 0.5848 0.8712 0.0000
vt 0.5421 0.8731 0.0000
vt 0.5576 0.8792 0.0000
vt 0.5414 0.8845 0.0000
vt 0.2104 0.9622 0.0000
vt 0.2083 0.9585 0.0000
vt 0.2278 0.9571 0.0000
vt 0.2425 0.9849 0.0000
vt 0.2326 0.9931 0.0000
vt 0.2357 0.9793 0.0000
vt 0.2502 0.9766 0.0000
vt 0.2526 0.9898 0.0000
vt 0.2419 0.9720 0.0000
vt 0.2324 0.9633 0.0000
vt 0.2451 0.9625 0.0000
vt 0.2285 0.9815 0.0000
vt 0.2170 0.9717 0.0000
vt 0.2026 0.9765 0.0000
vt 0.2103 0.9748 0.0000
vt 0.2127 0.9902 0.0000
vt 0.2196 0.9881 0.0000
vt 0.2151 0.9759 0.0000
vt 0.2464 0.9717 0.0000
vt 0.2482 0.9571 0.0000
vt 0.2265 0.9734 0.0000
vt 0.2565 0.9743 0.0000
# 160 texture coords

g Forest_C_Tree_02
usemtl ForestPack_Trees
s off
f 1/1/1 2/2/1 3/3/1 4/4/1 
f 2/2/2 5/5/2 6/6/2 3/3/2 
f 5/5/3 7/7/3 8/8/3 6/6/3 
f 7/7/4 9/9/4 10/10/4 8/8/4 
f 9/9/5 1/11/5 4/12/5 10/10/5 
f 6/6/6 8/8/6 11/13/6 
f 10/10/7 4/12/7 12/14/7 
f 3/3/8 13/15/8 14/16/8 4/4/8 
f 6/6/9 15/17/9 13/15/9 3/3/9 
f 6/6/10 11/13/10 15/17/10 
f 12/14/11 4/12/11 14/18/11 
f 8/19/12 10/20/12 16/21/12 17/22/12 
f 11/23/13 8/19/13 17/22/13 18/24/13 
f 10/25/14 12/26/14 19/27/14 16/28/14 
f 12/26/15 11/23/15 18/24/15 19/27/15 
f 20/29/16 21/30/16 22/31/16 
f 23/32/17 24/33/17 25/34/17 
f 21/35/18 23/36/18 26/37/18 27/38/18 
f 22/39/19 21/40/19 27/41/19 28/42/19 
f 23/36/20 25/43/20 29/44/20 26/37/20 
f 25/43/21 22/39/21 28/42/21 29/44/21 
f 14/16/22 30/45/22 23/32/22 21/46/22 
f 31/47/23 24/33/23 23/32/23 30/45/23 
f 11/13/24 32/48/24 24/33/24 31/47/24 
f 20/29/25 32/48/25 11/13/25 12/14/25 
f 21/30/26 20/29/26 12/14/26 14/18/26 
f 13/15/27 30/45/27 14/16/27 
f 15/17/28 11/13/28 31/47/28 
f 33/49/29 34/50/29 35/51/29 36/52/29 
f 13/53/30 15/54/30 33/55/30 36/56/30 
f 15/54/31 31/57/31 34/50/31 33/55/31 
f 31/57/32 30/58/32 35/51/32 34/50/32 
f 30/58/33 13/59/33 36/60/33 35/51/33 
f 32/48/34 37/61/34 38/62/34 24/33/34 
f 20/29/35 39/63/35 37/61/35 32/48/35 
f 22/31/36 40/64/36 39/63/36 20/29/36 
f 25/34/37 41/65/37 40/66/37 22/67/37 
f 25/34/38 24/33/38 38/62/38 41/65/38 
f 38/62/39 42/68/39 43/69/39 44/70/39 
f 45/71/40 46/72/40 43/69/40 42/68/40 
f 40/64/41 47/73/41 46/72/41 45/71/41 
f 48/74/42 47/75/42 40/66/42 41/65/42 
f 44/70/43 48/74/43 41/65/43 38/62/43 
f 37/61/44 42/68/44 38/62/44 
f 39/63/45 40/64/45 45/71/45 
f 37/76/46 39/77/46 49/78/46 50/79/46 
f 39/80/47 45/81/47 51/82/47 49/83/47 
f 45/81/48 42/84/48 52/85/48 51/82/48 
f 42/84/49 37/76/49 50/79/49 52/85/49 
f 53/86/50 54/87/50 55/88/50 
f 56/89/51 57/90/51 58/91/51 
f 59/92/52 60/93/52 61/94/52 
f 62/95/53 63/96/53 64/97/53 
f 65/98/54 58/99/54 57/90/54 
f 66/100/55 53/86/55 55/88/55 
f 67/101/56 68/102/56 60/93/56 
f 69/103/57 70/104/57 71/105/57 
f 58/91/58 63/96/58 62/95/58 
f 65/106/59 63/96/59 58/91/59 
f 72/107/60 54/87/60 59/92/60 
f 54/87/61 53/86/61 67/101/61 
f 58/91/62 62/95/62 56/89/62 
f 72/107/63 59/92/63 56/89/63 
f 73/108/64 74/109/64 55/88/64 
f 75/110/65 69/103/65 71/105/65 
f 55/88/66 63/96/66 73/108/66 
f 64/97/67 63/96/67 55/88/67 
f 68/102/68 67/101/68 53/86/68 
f 66/100/69 70/111/69 53/86/69 
f 60/93/70 68/112/70 69/103/70 
f 61/94/71 60/93/71 76/113/71 
f 73/108/72 63/96/72 65/114/72 
f 77/115/73 74/116/73 73/117/73 65/98/73 
f 60/93/74 59/92/74 67/101/74 
f 54/87/75 67/101/75 59/92/75 
f 64/97/76 55/88/76 54/87/76 
f 72/107/60 64/97/60 54/87/60 
f 76/113/77 69/103/77 75/110/77 
f 60/93/78 69/103/78 76/113/78 
f 70/104/79 69/103/79 68/112/79 
f 53/86/80 70/111/80 68/118/80 
f 72/107/81 62/95/81 64/97/81 
f 72/107/82 56/89/82 62/95/82 
f 70/104/83 66/119/83 71/105/83 
f 71/105/84 77/115/84 65/98/84 
f 71/105/85 65/98/85 75/110/85 
f 75/110/86 65/98/86 57/90/86 76/113/86 
f 56/89/87 61/94/87 76/113/87 57/90/87 
f 61/94/88 56/89/88 59/92/88 
f 71/105/89 66/119/89 77/115/89 
f 77/115/90 66/119/90 74/116/90 
f 74/109/91 66/100/91 55/88/91 
f 78/120/92 79/121/92 80/122/92 
f 81/123/93 82/124/93 83/125/93 
f 81/126/94 84/127/94 85/128/94 
f 86/129/95 87/130/95 79/121/95 
f 88/131/96 83/125/96 82/124/96 
f 89/132/97 78/133/97 80/122/97 
f 90/134/98 91/135/98 85/128/98 
f 82/124/99 91/136/99 89/132/99 
f 83/125/100 87/130/100 86/129/100 
f 88/131/101 87/130/101 83/125/101 
f 86/129/102 79/121/102 84/127/102 
f 79/121/103 78/120/103 90/134/103 
f 83/125/104 86/129/104 81/126/104 
f 86/129/105 84/127/105 81/126/105 
f 92/137/106 89/132/106 80/122/106 
f 89/132/107 88/131/107 82/124/107 
f 80/122/108 87/130/108 92/137/108 
f 79/121/109 87/130/109 80/122/109 
f 91/135/110 90/134/110 78/120/110 
f 89/132/111 91/136/111 78/133/111 
f 85/138/112 91/136/112 82/124/112 
f 81/123/113 85/138/113 82/124/113 
f 92/137/114 87/130/114 88/131/114 
f 89/132/115 92/137/115 88/131/115 
f 85/128/116 84/127/116 90/134/116 
f 79/121/117 90/134/117 84/127/117 
f 93/139/118 94/140/118 95/141/118 
f 96/142/119 97/143/119 98/144/119 
f 96/142/120 99/145/120 100/146/120 
f 101/147/121 102/148/121 103/149/121 
f 104/150/122 98/144/122 97/143/122 
f 105/151/123 93/139/123 95/141/123 
f 106/152/124 107/153/124 100/154/124 
f 108/155/125 109/156/125 105/151/125 
f 98/144/126 102/148/126 101/147/126 
f 104/150/127 102/148/127 98/144/127 
f 110/157/128 94/158/128 99/145/128 
f 94/140/129 93/139/129 106/152/129 
f 98/144/130 101/147/130 96/142/130 
f 110/157/131 99/145/131 96/142/131 
f 111/159/132 105/151/132 95/141/132 
f 105/151/133 104/150/133 108/155/133 
f 95/141/134 102/148/134 111/159/134 
f 103/149/135 102/148/135 95/141/135 
f 107/153/136 106/152/136 93/139/136 
f 105/151/137 109/156/137 93/139/137 
f 100/154/138 107/153/138 108/155/138 
f 96/142/139 100/146/139 97/143/139 
f 111/159/140 102/148/140 104/150/140 
f 105/151/141 111/159/141 104/150/141 
f 100/146/142 99/145/142 106/160/142 
f 94/158/143 106/160/143 99/145/143 
f 103/149/144 95/141/144 94/158/144 
f 110/157/145 103/149/145 94/158/145 
f 104/150/146 97/143/146 108/155/146 
f 100/154/147 108/155/147 97/143/147 
f 109/156/148 108/155/148 107/153/148 
f 93/139/149 109/156/149 107/153/149 
f 110/157/150 101/147/150 103/149/150 
f 110/157/151 96/142/151 101/147/151 
# 42 polygons - 110 triangles

